<mxfile host="app.diagrams.net" modified="2020-12-06T05:17:03.049Z" agent="5.0 (Windows NT 10.0; Win64; x64) AppleWebKit/537.36 (KHTML, like Gecko) Chrome/87.0.4280.67 Safari/537.36 Edg/87.0.664.47" etag="wBoy8PrJYv745BBfnuuh" version="13.10.9" type="github" pages="3">
  <diagram id="Lyli3aLVaX2M3zhpWBQa" name="Dependency Injection">
    <mxGraphModel dx="4193" dy="810" grid="1" gridSize="10" guides="1" tooltips="1" connect="1" arrows="1" fold="1" page="1" pageScale="1" pageWidth="850" pageHeight="1100" math="0" shadow="0">
      <root>
        <mxCell id="0" />
        <mxCell id="1" parent="0" />
        <mxCell id="0h4DfGHdkXLBzVzGmen6-1" value="" style="rounded=0;whiteSpace=wrap;html=1;" vertex="1" parent="1">
          <mxGeometry x="-2510" y="40" width="1050" height="560" as="geometry" />
        </mxCell>
        <mxCell id="0h4DfGHdkXLBzVzGmen6-2" value="&lt;b&gt;&lt;font style=&quot;font-size: 30px&quot;&gt;&lt;u&gt;Dependency Injection&lt;/u&gt;&lt;/font&gt;&lt;/b&gt;" style="text;html=1;resizable=0;autosize=1;align=center;verticalAlign=middle;points=[];fillColor=none;strokeColor=none;rounded=0;" vertex="1" parent="1">
          <mxGeometry x="-2290" y="50" width="330" height="30" as="geometry" />
        </mxCell>
        <mxCell id="0h4DfGHdkXLBzVzGmen6-3" value="" style="shape=image;verticalLabelPosition=bottom;labelBackgroundColor=#ffffff;verticalAlign=top;aspect=fixed;imageAspect=0;image=data:image/png,iVBORw0KGgoAAAANSUhEUgAABR4AAAB3CAYAAABlnFxyAAAgAElEQVR4Aey9CVQU19o2GlYvfo6fn583y5vrn5uVGD89Jn4cIPobNcabxJho4onGHMUpMcajZjoZj5IYo+AYx2g3yKTigPPQ3cyDgICgIoMKAgIqk4A4gbMy1XPXrqpdXVVdjQ1iBLNZq1cV3bv2fvez371r11Pv8BTYH0PgT4JAdcQMPOvQB3NTrv9Jesy6+SgR4LjriDGGwTkgGQm13AObupSRhLf04fDMuvHAsg9bgGu4gNBZL8BJ1x3u24tQxz1Yvodts6XXcxyH7H8/g+Duc5Bjh3zcGX8Yn+kOY2BhS5uyq3xjVTIWvNYZjs+Mw45zDc1ew90MwVQnJzg6OkKn08HJzROpduhAs5WyHxkCDAGGAEOAIcAQYAgwBBgCDAGGwBOIwFNPYJ9YlxgCmggw4lETFvZlKxFoz8Qj6RIhH8O/HYVfD11Cox3EXithaPVl7Y145G5lYuU7E7Ct4B6IbM39cTdM+NjBEU+/OASTVx9E6b3myzdXF/uNIcAQYAgwBBgCDAGGAEOAIcAQYAg8yQgw4vFJHl3WN4YAQ4AhwBBgCDAEGAIMAYYAQ4AhwBBgCDAEGAIMAYbAY0KAEY+PCXjWLEOAIcAQYAgwBBgCDAGGAEOAIcAQYAgwBBgCDAGGAEPgSUaAEY9P8uiyvjEEGAIMAYYAQ4AhwBBgCDAEGAIMAYYAQ4AhwBBgCDAEHhMCTzU2NoF9GAZMB1qvA/fv3wP7MAya04HCwgJUVlbYpSf19fVsTWb3JaYDTAeYDjAdYDrAdOCR6EBz+xX1b/X1DY9EBvbc0frnDoYdw47pANOBjqgDT12+fBPswzBgOtA6Haiuvobi8tPswzBoVgeeeuopjHf/sNkyVI8qqi6wNZndl5gOMB1gOsB0gOkA04E214GW7lsrq6raXAb2zNG6Zw6GG8ON6QDTgY6sA4x4ZJsatqF4CB1o6QaOkkvs+OciaxnxyDYKHXmjwGRn+st0gOkA04EnQwdaum9lxOOTMe5s/rJxZDrAdOBx6wAjHh+CdHrcg8faf/wLSEs3cIxw/HMRjnS8GfH4+OcqWy/ZGDAdYDrAdIDpwJ9dB1q6b2XEI5szf/Y5w/rP5gDTgbbRAZZc5jEF12TNPhkINDTUobwqn30YBs3qACEe3Sd+1GwZqkc3bl15MiYH6wVDgCHAEGAIMAQYAu0KgZbuW2/fqW1X8jNhGAIMAYYAQ6BjItAhiEeu9gRWTl6Cl0b6ISDrdsdEmkkNjqtG7A990aXzC5i8owj3Oa7Do9LSDRwll9rbsawyBRHLh+Lnif8Ha7ZE4Gxlnl0kWXvrR3uVhxGPHX6qP1EduFuUjs/8zBi4+QgO13T8dfiJGhzWGYZAB0GA424jPiQCA7xDMf1QBRqegD1dB4H+ocRs6b7VFvHIcRxqj/6G0TO2I/+W9X2k7vwezBy9FEmXmh5KXnYxQ4AhwBBgCDwZCDwU8chxldjx5UL0nhKGvEe44ag9vBtvDvZCz8FeeG9DkSbyXG0mFo1biN6vWz6D5qeiugVySf0ZtQ2RF61vopoNsy/tRoCrjsDM53TQ6XTQjQpGZQvGxu5G/uCCLd3ANUeMEfIvdPEAeEwYg90ZDyb+sg/MxIIJvbByc/xDk4RlpzfAZ1pPzBnfE3P+vRLpfzDxSNpfP70XPCZYPl4rtyPvD5ajufF5mN/+7MQjx9Ugcn8Y3AwHsauara1/8DJl1VxObBRc9Ea46COwLJu9zLMCiH3RbhHgMpLgZjBjcnxVu5XxzyIYx+VhHr+OGOG6NQOFT8Ce7s8wdi3dt2oRjzzpmLYOI551RLdha5F5U3lfF35fi3e669D1jTXI1CAm/wxYsz4yBBgCDAGGgAWBhyQeKxD8uSd6TApF7iPccHC1WVg+YRF6DfeFX9Yti/SyM642A15jPdFjkJf06T8vBRdbIBchHvn+jNyKyCrlTVTW1GM95eqrkBowC8PdXkS3zk5wcuqK51+bhhUh2bja1D5lpoARi8eYb3vDyfFZTNhehHstGBtaR3s7qjdwZRXR2DX7fwQCbfrnCMt9MIFICS2eeFz0CmaP+wC70h983akDM/DruB5YERSnIB7LKtKQsvdnrP3XYMybRIi8Ppj3+Qfw3bQdaUXa9ZK2w397DR7ublgTFIGiP5jwK8veAJ9Pe2DOOMtnwYptyG0jOcoqjyNx46dYMt3dLlKXjklbHVtKPHJcOfyCTHAz2PpEYLmMMKo6nohh6rI+YXhvyyH4ZlTh1mOea4R4jNgfCmf9Qez4A1/qcDdKsHlvFN7efQIXmsFAC7/+vuFw35uG2LK7IA9RT9LfnaJ0TPM1oV9QKpJrbFujcNwVRJpjMWpLKg6rHizbOx5NxZmY6iPMn+HmfFx9wsbwUeBPiKRf1euIdwje2hCNLyJzcfbe458HhHh01hsx8Q8mHisyUzFtQxgWZ9rGQBu/UAzfEoc1xy/i7hOmgxx3C3HmcLjpQzAtoQL1zfTPHvwehU4/bJ0cdxnbtwvrSD+fRER0sHVQq//qfeuD9jmaxOPVePzw3zp0GbIKGTe05wTHNaEm1RNunRzxwowQlLfzZxQtrNh3DAGGAEOAIdB2CHQI4pF0l9zAmpq4Zh8AuSZSpglNVwUS8kkjHrnqQ5g/6Gk4EotB/uMABwfx3NERH2yvbDvNeEQ1CePY1Ow4PqKmH0m16g1cyZHlWDHJFauXfIwF493gvS9FQQo2t8FrC+KxrDgCe+b1x0/uovXi+B6YPY6e90JzVoRllbkorchFWRuRfc31Veu3sgqh/dLsQJ6EbFviMQWhi/pjzvjRdpG6WvI9zHfNEY85sXPxzlu/Iq5EIIVJjEdCPPpuMsLZYNb+6MOxVE48piViqF5VXrREcTGYMTqsEFeaeSh8JJNDVuljIx4vn4aHvxEu27NQ3kz/qzTwEywCjXD1jceu0jpZbzr+KSFS+ftlM5iQXgoEuBEuG1Jw2MbDZXtEg9xn8hNi0d8vDvP2hMPFPwkxzKX8gUNFiLO5ttYRvQluAcmIq9UmGR5YeRsVeFzE45m4aLjoTVjwAOLRJn4GM6bGP3nuyPbu6ezBr41UpE2r4aoyMU1vxHfGJAzRm/D90TttWv/jqIzuW8sqTyFt9xf48Gt/pJZpv5Qm+x418chxlxA+81nougzBqowbzXaB4+7g5JrX0En3LD4LZVbKzYLFfmQIMAQYAk84Ah2GeGzJOFDrxyeJeCSbu1zDIDjpnPDix0FIu3ADDTzR2oBbVbmIXj0Os/awm3pL9KQtytINHNmcEeIuxf9deEydjpDUrfD7Z0/MWxiIbDuJvLYgHon79fzxPfHLdz/ClJSCwnKBzDtfEIuYLV9jnX5Hm1kRPgwR19y11Pqx7YlH+61Jm5OvNb9pEY9llTk4HjwJvf+ig+7/HY3A9FyepKbJZegDXVPTNYRL1oLiy5UmJXkvEGfhWHrqlvDypakJ925cQUZKMsb6CC61cgvJttD9ltTxOInHOX5GONtJPH6WdEXErwE3KwuwfnsoXPVGvBdWhNoHkHQtwaOjlJUI8MAORjw2lcNvswlDD+TiTGYyhunDMDe9+QfkjjImj1JOSjy6mvKldaSp7jaqzuZgwSYTT7wNNOc/1lh+j4t4zI+LhrPehPl2EI8uW9Jxhr4Iv3MFyXFxeEtvhKtPMuIaHi9x+yj1p7m6BfyMzeLX3PWP6zeBME1AyLUCLPY1wnVvDq538HsB3beWVabB/LML/lP3v/D/jFyI2LPa5KOaeLx7aiUG6BzR59dU3LADC+7GUSzoq4PjywtwhLlcPy5VZu0yBBgCDIHHjkCbEY85N4sRpQ/AsBGL0Pv1xeg/KQgBx66gSXZTKt/tj96vr4NfnnLjReMzqmMyCuUtMRu1rtVC0B7ikeMacSUjFr9+vhYD3xLaeGn4b3jlDU/00HC15m4WI8Y/CH8ftYSPI/nS8FWYuCIRObWNChGkOJFTwpDL3UJhzAF8Om4ZXnp9IfqOWo+FoWdb5fZI3JQjZj4HnUMfzE29rmiT/MNbsMiwFr5rwvW8UCxxfwXPdiFu2Z3R3flDLIs+ZyUDl2fAACcn3mqy6XoejD+PQJ9unXlX7j6jlyG29D7fJtdUgI3vdIVT5xEILKq3lqMmAT/2doLTgGXIvC2MM63byYnIIHweZJ0puZQ7P4su5JrO3eH84TJEn7tlZS1ZX5WKgFlvivI6oevzr2HW1ixN13Ou6Qqy9nrC/RVLvb2HzELgkQutSnZDN3CEjCqrCEfwN73w8y/eOEHiNS56BXOm/hMhp603c4SkzE8OQNC8YVjwcR/BNXuyK+ZN7qXpal1SEAazfhKWTHfGT3wcxL6YN7UvPFSu1in+w3l3ZeJ+rbZcJP9bfXd4MZbK4iqSGIu2YkYKMSXHYPfxNKTs+h4rZwiy/DT1dawybMXJcmU/hT6uR8Cc10WXb0v8RiGW4xAEhKVZWYTaQzxa8HtL5k7+D2zaH40CGdGbEvCuJW7k+J6C9ae7So7ZqxQxLSVX9S/d8LOI9fwvrevmiWISk3P2KhwvCINx1Rh48mNJXNv/gc1hh1EiyqImHssqjyFq0VB0ddLhL31nYk+2xdKUEo90cslJu5023JQl4lFmBSmsAY3Iio7kXROnJ10V5jCNt7iRuM82oCL7OL7bFIoBBhP6+0bBI6nMimRrul6OsIh4jPEzC+7fPmEYs/MoosvuWc1HQpjWnMvB6l1ReNuXlg/FUB+TwtWa9IuP+8jLobonnDuOsQYTZogyUyz4PtVfw+H4RHyyUZDZzTsUo2SyELLMX+amTiwXiWumq8qFVF43tXj8TNVeQ8Ex/J1Yjm7PsnLVrrtUhE37YzBC7ONA/2h4JJbgssqdjMRTdPNNQOilWhyNT8TkwBD0N5jAl08qtcKa48iYpMNjazgGexMXPzOGBmrXzeNx5yLiDlrqdePHJhWh524rxkbCW46DFvZ0XMRytvAbpSJjuaZbyDl2BF+JuuRmCMFbm+Kw9ngVbqruTTwmfLzPJtSey8aSYLGvPuGYGZWH4vuCPhB36U98TOgfnIEz9UodIX2/mpWMdw0mjI0qVtzTms6m4SNDCL47WgPu8mkQ8vmNA3m4rJLDXvy4pgpsCQ6Bm3csNpc2kMsUf9z1M/AMNMEt6CjS7xDPDFG3d5xA6Y1ymEJjRT0xY+jGOPicqlXsjWhlnE3d/mPc/eXEI5WJHMn+oulcGsaSeSSL5ceVpGOiGG+Ru1eF8JBYvO1rghtxz96WguhK9f7oPgrTjmBWUBi/3vDlNsRiqQ03ZFJnREQcxgWECOuOdwje8AuxcrWWyyGXm5zHGIk8yYhTjT2ZZ1WnszAvOAJv8C75ZgwJUMoixJMU3GzJCwiyjrjI5w85l9VN8eOJR1l7HCHCg8i1MQgqVeox11CDo4lJmCb2sZ9PGMbuy8DRK2rsiBu8GcPCz6L+Qi5W74wS5PYOxfBga6xJ3+svn8UOozgmBhP6kfARGnULY9yA4hPpmEfmIt8v4mIfiyWp5VbW8gLeAi5COBDtmJtcRrIULsQe/OjY3S07bemfwYyB/hGYFnraytWf4D2f9MucDx7H+EMY60/uOWYM2XQIm/OElw2Su7R3FHzPKvHn+15fiKX+JvTzT8VhGTFM9vMbthjhsvMEKrl6XpdcDAkIteFuffnsKYXcQwKi8e/YApTI6ixNPMjLNza2nHZXOhKdTA4Ng5t3GJZnC+NPdXtBJtHXdPwozh1BT7KQrRH+wJZuL0kT3P2V+9Z0xK5+F//7Lzr8l9s/EZwhvACVv2CVE48cdxVhM56G7umx2K3SZakjqhOOq8e5TSPhpOuGcXvKVL8q/72bG4RxL3ZB9+HrWFxIJTTsP4YAQ4Ah0OERaBvi8T0fTJq8GL3EBDAkziJJBNPzbX9sK7Rsnsp2+aHHoLVYn6u88dsiCoXylpiNWtdqjYCt+mhZjruPgj2bMHDoQkHOwUJsSF5mcq4iHrnak/Ceucy6f4MXos/oYETJyAApTuSEPQj8fR36DhGxGOQptDV0NbwSa6godh8JUXp63QA4OujwzAc+yLhqOy4XrbT60HwMetpRwy27E9y8jijeVHJ56/CKgwNGLvXHty93lty5qSt3p9dWIUskEi/sn4BuOie8E1BkFdOnJuEHvKhzxHD/ItSJG29aNyFf6Of9bRVUTKsjd/skDMNlLuUODnAQ3csdP9iuSEpz78w2uD/fSeyjjq9fcEN3RPdJu1Ese1glD4OJP72MTo6ie7qsXl3fX5HaCldC+QauJGURlk54CWuC41FamQc+BqOGuzUhzU4c+BoLJ/YSkrmQhC7jemA2OfLkmDLGY8mJDfD7vA88xN/5stR9WkU80riPHp9/CdORDCuiUb6Z5MnSwwuxRBZXkdStjhlJrxHq7guvL4dgLnXlJtfycv0PVm+OxnkZ6Vd4aDFWTKF9tMRupHEcZ48biICwY60iHrPDZmOprG7Jndz9r1i02pKUJsVvmCJuJG1bfpz94wpkiHKXVSQidOlAi6s6GReKNal71Vbk0LIiuTx78mtYPPN/pPGRyk/5B3annuL7Jycey8oPYcvMPvgvRx3+98ilOFisJGzblni8j7SICN5SZ1ayhXjk4y0GJsE3IhZDvYlFpPwTin8fvSaRVk0XT2NugJm3/ONJKOL+LZZ39Y7E8lM3pLKEdCw/noz3vIl1lFAn7y5Oz2UxHsl8FOSwtqbjzqVhjN4INRHI3S6B/7YQSRZKipGj6w4hjqNkpWfLTV38Xl63LeLxbu4RvE/q3nkCFTIi4e75LHzlb1b0UeivCUP3nMRZ2bqTE0uI3whM2haOfgqcCT5KrDnuHjJjYzDIYBkPijVx8xy66wTOiKQcWTi5pkoEb28eD7rASnjLcdGwZNQsJ79GPB8RarEC5ZquIuJAOPppyS26+stJPwGTWPwer9IVHh8z3KMFIpHEmDTuDoGLPgYbipWEnyBnGFwMsdhUYnkJRnQwm5C9PvE4cJFYBgt6puVu3RL8SlPjMVhvxKS4SuneRrEl+vOG3oRP4oXfaJvO6yMwdoNlfKSx9I3DrjJVf+6UwD/YUlZLt2l7j+pIiTNi8aj+484cxXtkfLZl4iy9txenw53EW4xMh1egbI0Q9dwtMBVHRNKF424gxhQOV00dMYHE4ZSHg+Bq8pR1Er0T6yVHeYxHjsqhivtICNOYAyQERTIOyuYvIWZy42PQX1OWGGwWCRXeulJD95UhMCx1U/ysiEeuBOs2EOIyBlvKLftfsl/ctytcWs9IvcI6YoSbTyy2yYgdWrfrlhhMka+vGliTsas/n64sp6p783nL3pyUL02OeyAeVCco3hIO/HhYh/qxCz+9BT9S/+WMZLxtkN0/xP6R9U/t6k8w4ZPbHDjOvxgg5KZi3vjEYa+4P685eghuehNGRZXQbkjHuowkfm0eHaMkxQjpR/T7s8QrfFlSjtSh5W5dl51qU265ez53PQc/Goxw3XAMWTKdJA1w9Xn4ldyPN6UhWzXHhgZF4W2ZvtL7zRvmfIUFpj26Ld+38vvAylM4tvMz/M9fdHDq/jaWx2co9mUK4vFqGKY/rUPXD7ajWCW/BKjGSVPlTox10qH7tFBU2biOxAxN83QW9/PP46sYAXeN6thXDAGGAEOAIdABEWgb4pGQjG+tw68HclF5qx6NtysQ89sanqgbps+WAmq3lHjk37KL7iq2rtXC/IHEY/khfP62F3oP98GquFLU3ifui424cyUfvp8piUeOu42M9Xr0HrwEY1YfRk51He+CVH/1POJ8/eA6eCFGrs+R+igRjwST15dh9NJ4nCDXNN5AzvZAuA72wuu/ZVhZuWj1Q/0ddysLhne6wUmng2OXPnjnxyAknb2ubTlRk4ifXnaCrtv7WBVfhJoG0sf7uJwXhvmvdYHOSWmxSMlBQto5PfcOFoaf4a9pqEnH7292gU43ACtP3eVF4q7F4/sXdNC9sR6FsgdsySqz6wTsq7AQo/JxbMoVCE5bxCN5YCPkIOljtzfnYl/WRdxtbELT/es4n7oV33rslzYtXFMRNo/qCp2TM77YlYWLdxvR1NSAW2VHETD5BTjpXsAP8RaSl7sSgy+f10E3aAXSr9xFI9Gthluoyo3G6m/X4Oh1ywOBGntb/9MNHCETeTdr9zHYlSa8MS7L8sG6T3pi7jwfnJQRcmX5WxEwoyfmTHwDfrtDkX3uNB9b8XxBOPbNd1NYPBJXmMgVgzFn/F+x+DcfJJ/OQgmJhViShpRtH2OeiigkpFbo0td4EsxjogsWz/8FxoOHcVbWPiUShQ1nHqTYiikCCdk88UjI0V6YN8cTsSeyUFKWiWO7puHXcT3hMWeNhcCrTIRxvivmTBiAtZt24wTpY1kmTsb/Dj3JXj3zO0TlWqz8FDKJiWZsuVqX5W9HwOe9MOfj0dhsisTpUuJOfgrZyQHY8N1LmDPhfWxPEQg/YuFJ4laWVggWqELiHsH9XPg+lyeJafvUVd1j5uc4QF3VS9KQZv4Jyyb1xJwJ72JzfCa/KZdc4wnxOsENq/x28P08fzYGB7xewezxvbBqa4KCeCwrDsfqkf83nHR/wcv/2oKsCiXpSORoK+Kx7mY1UpOSMc7HCGefBJ6EIXoskSL8Q5oZ7+3NRNrl+2hsqsP5IyRJjRGD9ubwibmEsmG8i+UoUw5yrpFyxI37ImIjojFAb4TbljScEq0ueMuvACNcvKOw+Fg5Lt0jc5KUv4Bde5TJZSQ5tMgvDeKR424iISQCbnojBm9NwYH8Gtzh14ZbOJudhfkhpyRyUIr3K1q78a7W1PVRPJJ1if6piUeu6R6qCk7BazMhvULw/dGr0jpLySoXQwR+PlyMKr6PxDX7LIL2hMFNH4YFmTdp1RBINoFknBx+WsCw4S4KUwWsXbamI19cR+8WHsck8uDpexD+2VdwnazbDXdRcSYL3/uTh/FQzEmzWLxz59MxzmDE0H2nUHSzQXCPvW+NBxXGyn1fA3tS1lJOjDVKyl23uPnzsZRV+PGupBuTEXLuumVcMo7Anbj6G6LhWyhYzZP6LZiY8EbwEYSfv4n6pgZczT2GyaT85mPIEnXqCu8qbcSYSKVVI3cxG9/4GjF4bzYqZFamvHXZZhNct2ehVPxeIA2JBWQthYI/tgQ/rjYfC0i80E1HeKtGWhEhR017QuHimwDzJeG+J+k2mWOGUMw8eBaV9xpRf7sK+/eSeWDCrMPXaBWw1u1rFgxVui1d9AhOJHJLRjxyDXdQkn8KXkECKUZJGNI8JaAICeK6PhqL0ypQW9eEpjul8NtqgoshDCtOC/OsNiOZj0Pr4n8I+8/ewG0yD+tuo/jUUUwihIohHL+L3jCC5VcoSHzadw+cQnbtPUG3idt3yiFri8cWEo88SURk9o6EZ0oxyu4S3a5H7YVi7DMnYTslHomlp7heSK7WGap5INc9MUamnHi8e70c4eYontjqt/MESmXzhif79CYM25eF9ItiH+9cQXriIbylN6H//tMSqUTHhsfaPw4bT13isa67USxgTQixY0L8QbIP3Ugs9Yg1alQhim/W8/24XVOGvXuF9bz/nlOWvRR3EZu3kjUqHjsqbqOO77M1HlTlyNoprbES9hrEoxV+RsxvDr8beZjvR+QIw+yUclyRxqUQ64g+6U14N/I8FQMS8ciPZTi+iS8UxrLuGiKMQj9nJQt7QK5OdJX2S1FZNd5G2D4zXL3jsFuVVFJws47GJqoPN0TScOdJCTsqTLyZzI8IrDwh6nZTE27XlCM2OgHrsiz3GmL9lxRCdDsUy0SrRlpH7bFD6GcwY1byZfqVbI6Z0D8wEfuLyfjUozb/GE+KunofRoJMp+zRbbpvpfseciR72Lz4hRjeTQfdf72CH40p0t5ITjzezlgCN50Or6w7LclozwlXfw4Bwxyg6z0fR+9a8FBfezPDGyOfc8LTb/5ulSlbXZb9zxBgCDAEGAIdC4G2IR6HByDolNIFlruUin+P9ETvqeHIF2+KtsjDBxGFBFJb12rB3Vx9ZMNUsssfvQcvxSxjhWSpQ+qRSEOZxSN3JxdrJ3uhzz8jpYdD2iZ3vwh+U70UfZTqGPo75kWUKdx3uQsHMXWIJwbMS0W1bKNA67PnSNxJcs0L8WGfrgIB6dgJ3QfMtHIVvp7sgd66rpiwt0J6YBb6yOHO8YV4WeeEsbssMSEp8dj1tUVIrG5Q4HLG51U4OryMX1Kp28o1xH//AhxkZCRfd3UEZj6nw7NfRNvMIErbsUk8Vkfydej6eCDxijKOHb/ZleHGnQvCO511cFuSoXCz42Up3Y1/PK2Ds2ea5ObH3c3AMhdHODwzDAtV7uZyEsKecaBl6AaurPgANn/dCx6zVyBNJJPKKhOw/xdnzJk8CQdOWggmgdzqhWUB4QpCUCKyZFmty05vgM+0nvD4bjFSxOQjdLNIrRvVRCEJGH4iYim8v30FP43vCQ/3Xpg74yNs2BWCPBsEJL/xFK0f1fUp2+uFBZ7rcOS8pT9lBTsQMKMH5vx7peSyXFYZgeB/9cTsL+bgoCyTNpEt0fsNIclLhqUO2gYvxwOIx/yI7+A5nliWxkmuzPx1lXkoiv0JC2WEH61XC1v6Gz0K4+WCOe7vYlviCYW1KInHmL59EuaN74mlfuG8ZadUp/sA6IOjFJnA88K/xYJxPbEiKF4iHsd/+Dr+1bcLHHXdMWKNEWdsjEXriUfyoCl3fzMJljSGcMxOrZK9HKEZpsPw/eEK3JQ/OF/Nxc9iMhaSBZqrPIkvSFyrrenIUbl0cQ3V2LtLtEYrEay31JZfdJ5YiBhLVmvpOw3yS8vikbjM8oliAg8jsab5tUFqV048ytYO+js9UuJRjh9xzXbRmzE2vFDhPs2VZmKqtxGjI89Lawuth7twErPWGzEq/KxkUS6QbGH4PsUyBqQ8CdC/d2cInDIuhQUAACAASURBVA1x2HuJuOcK1qnkoXvucaUrLlmfbp4+glEGpcswV3UKX/sa4RaYgOAzN6S1Xr1WUvnosTnsaRlBRhnxaMMinLgx7tsZwruRBp67r7h3EEv9s4fjrCwFBUxC4B5RgKoGS9I4jqtA4GYTnEkyG9Gdkbt3HmtJfEEV4VeSQuqNxJo84YUYlftu3lGMNpgwPemyBY8KYVwooU7LSvgFJCA4v3n8yPgcj4qEqz4Sv+ffo1VIc0SuDxK+qrlHLqo9cRjD9UbQ0AfkO7luJ1yzT7clAdrwxEJuqdYRfi6YMGzXCeTJXzaKpJPLphQkXFbuG87Gx/AEK7H2Ii9wTXsJoRQJwxllOaKrl1ITFNZoxPJrnmj5dUo1b7ViPFICVG4FyeOqYfFISM0YIyGJQjH3uMVam8Joa+5IxKM9MR4JESZbi131JvQLPIxYWYIjjruGXTuMcPVLQbIMU0HuWzDtITEhLaSSNDabUpBcY5kzpHxT/lGM0BsxwFzAd4Nap/bbm20VXoCrK8bajeReYXEZJpZmoXtJKIxwfBV/DhdlrsG28JDwaoZ4pGXI0Z4Yj7VHEniLxb9HlVhZFXPXsvEtsRTcaLEUlIhH34PYWqRce5oyk/mXVJNEK1jSj5PREVaEH3cjG98Ra/LQQkWbHFcGn01GyElkghMZFxdDHPZctpBntG5ncr8wK13CtfDjCo9hFN9mkRQvlc4RV1+lPlDd7rcpVTHuxOV55w4iiyWMgL26TfetdO9Dj+RF7dk0b0zp+RfonJ7FP3zC+X2KnHi8vNcdnRyewdQQy/ODfJxtnfMu2p91hUP3aQhVEbzya3i8CPGtmvfyMuycIcAQYAgwBDomAm1DPE4KRa7qJsE1lWHLTE/0nByKPPE3W+Rhc0QhhdXWtfR3+bG5+jjuOg6vWI2eQ/QIUMea5CoR/LnK4vHCQXz6uuAm3et1ebxJ4bznYE/0HBWMmEvCJkQiHmXkJZWtrW6oQj3EejEahs/6o5uTDjrH7hi3vUgiOs+sHwQnkvHa0VGKq0jjKzoRV2MHFSknulr3mZsqvWGXy03e+pN26d/djGVwcdRhwMpTEqFx4cAkPKN7Ht/GWyw5aHl6fCDxmKdHf50D+i44Jj2402vVxysxX+J5nQN0Oq0+EhdzBziN3aV4M30ry4B3ujnxuHTu7owRX61ByIlqCTd1Gw/6n27gzsbPw+IJApkodzfO2DERv4zvi7U7kyTXFSEO42sIiFDGN5SILDnxeHgRlozvAa9VO5GvIqpsEY9kEynEc8xBYcZu7Fv9DyyY2BNzVK7CdLNJj2V2EY/W7tE8yfh1DyhclitjsXt2H8ye8Cr0W83IKSaWlSdwMnY51nzaC7NJAp7s1hGPRzaMgAdxf1bHaiTxGIkL+Lie8Fq1Q0GyamFL+02PEln65c9I0AiyTvHxXCG4ckt1zvgGUfnKvtCylMQlrtbjPxyCr/76H9A5dMHQpY+GeJRc3wxm9PONwFRTJpIv3FVs4iVSROb2LNdzebZjQgCSuG5jo0pwWzb/aXmBQIrAMjG2JIndR6w+lp9WZv7UalP6zl7iUZTl/bCzVmsUlUd9pPH97E0uI8fPmVjdHKmW1jda96X0RD5RBO/6JyMXhFhngoug286TkvWlgJGFcKX1EFLuJB9/8yB2VhMigRDCYbx1qvmKZa2VyoskqjzeJKmjLC0J7xKSRowb+VVYFhJLbynGnNZBj81hT8uQo+S2rjFGtBwpQ+LXOQcdRaaGJQslkd+TuWYLmCgzs1vqIxZllv6TPubHx6CfzJKUj7m4zQy34HScqZOXvY/0qEi4WblfCySvy/oEhMiwbSl+jcUZmOJtxDBTPv9yjViG8tmzrdprWRgBOs9aotsUr7Y8UnJLPg9cvEPxbnASNmZW4Y5qDaCkiKZrtmjtxu9XaKw8v1Skquog8tN63ERLS+ri2t98xqp7D088inH7VJZiVg2pvmgJ8SjHj7iFD95zQiM+4RksIPNWRVLSdYR3GzbEYusFQb/p2GhiXXcaHsT6nOKXkcTXOyvZei9GxoN3P9cr401y1/KwIIAQsiaQOLEf7UxBUGYlbspISBUk/L907CbGW1s8ysvbQzwSC0NnfSiW51jmNK2D7K35eIsKok10tSbJfFR6Rfqp3rdylSRDtdKStDQxlifE1xcp2+SKhPi+avdrQo7yFsuiJaUkX105goIF/Fz5uJuHsD61GOWqF3akPHlZsy2YWNwmIpy+YBGzZ6vbs4UvP45G4r5vcVWXMHqAbtN9K937yI/nMjZglvP/goOuOz40hPH7TjnxeGnXWOhaRTzexLEFfeHwzFSENEM8UjzZkSHAEGAIMASePAQeHfFYfxb+0zzRQ0ZK2iIPmyMKKeS2rqW/y4/N1UeIx+Tlq9BjqC+2FKo2GlrEY3kspogxIEnsSs3PqG2IrqabQ2vyUi5bW5+TN5w16b/jzS466JxGY7sYPyhP3x86BwcppiKNrSg/ysk9SghqEY9aMnONBQgc1gm6V5bySWQ47gIOTHoGOrclzQaEpu3YtHgUCdD+K05aPeSo5aiOnInnHtBHxw93KohH/iHofiWyTD74frQznumkg6OjI7q+uhCHryr1Qd2e1v9kA1dWeQIJ3m+JMf5UiUtEIkzubk3iDs4e9waCDgouu3TTJxFZCuJRcH9erN+PwhYQj7ROciQk5Pl0P/hMJ/EWX9NM6MKXa0PikdRXEDsPSyaoCEI+NqQzVgWFKywEFfI+wOKRJtCRx2lUn3uqiFotbOVt8v0nVpqEQP3G08q6lP9dxIe6gEt12kk8uk/8CGXnw7Dq3f8Ljrr/gPO3QcgoVRKWpJ3WWzwqs1qrH7qo/kqkkw3ikZYjR0oaTdSIa0d+VxNIwv9RMBRYLML4emg8R1mbkhwapBZtVx6HkX5niwSVy03PW0o8EjdSEq7hZmU+Vm0JgYsqhiWpV7DqJHHjzDY/8piQtolHGn9TICUlPPwSES2zjHpQX8iaVn+9EglJR/D9lnAMJFZBJAnFHmU8SFoPOUptaWCvLGePxaNYZstx5MtIQFoPHTd5TEi13tCyto7UMpESfk08ARiCb1IsLvDkWu5eMdbx2ZcFIpaSOOQoJLfQcLduAX5SzEn/ZMRdJ+6mJOmMGQN3n0K5gixtOfFIYpq2RLdtYfUw38vJLbJ+SB9i/awidni8RWs3LTJMLodEiGw4ikw76qFky9Cws/Jq+PM2Ix5tkKBWDYpftIR45K3kCH4ko3UUIc01YliK8QmbW0fkMSHlY6OWUbDaM4KOA8Xou6O31UX5cRSIR4sLMS1EQkwUZmfCe28s3uJDJJCENAexTRUPkpYnRzpWbUE8ChhHwFBgvRejOqQk2mwTj3IZ6Tm17KSEHyEAg4OF5GFyF3hS/lR0JE/eWr9gEpOV7Tyh2FvyWHD1qCzIwQbzQYz2NQseCD4RWJwpeAtROciRjzlpMGNOmvCSTiBAD2KHipSzhW+zxKOvNsFP29ciHsk+MT9hMUZ0d4TuP13ww4HDKBb3nHLisXrnh3BoFfFYi/hvn2fEIx0EdmQIMAQYAn9CBB4Z8VifHwH31z3xt+/iUSJuNAXycAXmxFoCBhP3peLIHRj+uif6z0vh44ppjUPbEY93kOWzFj0Gr8HK48qH43tnYjH9HZXFY20GvMaSfsShWL4RV5xbNklkc6S2mtTqT1t+R9zTQqd1h4PO4g5dHTEDzzo8iy+iyYO07AFCfi57AKCEoL3EI5FfSDLzCpZm3gZXtgfjujkpkspo9ZG2Y5N45F2kHeD05npFEoXm6hrqU4D78n7Jz2V9lNfBE5AciR1ZiUMLX0MXnQ6vrrJYb8rLNnfOE4+im7Wa/FL8L3O3PrZ5DH4a5wbvfSmSFSQhnEpOBMLnn8qs1mVpq7ByYg/MWxiIbBnxyCdBWfKqVVZrUo/Wh7gKJ61/i0+UQt1/1eXUVnrq3wULS3stHlMQtvRVeHw8FMu+HYxfJpAkLX/FvM8/woZ9UcjXiG1I23tQVmtBDlcY9qWI8RtVMRtJTEcZVqReiSSUkbq0PXosk6w030OwGCPS8lsuMnZMxrxxvbAy6CBfv1RnC4hHXpayeARN74X/dHTEc6N+Q7zKhf6hiEdVVmst3ZVIJxkJqFWOfEfcij/xNsJNI6sw11SNfbtC4WwgD0tCbLvCQ7G8ZdrcdOWDFklQ83OAdVZrPrmM6GpMZeCaanE4MhoDVcllONFd1m1rOvI0CC56vfzYYuJRltX6dkEa3IlF0gaS/Vu2xovxJyfGVeCefK2Rn8vWHZvE471i3oXYWSQayUNxojkcxNJSHiOS9ufW6SP4u8EIOYFHfyNHuqbVXy/Hrr0k1iSJTamMaUjLSzrQJsRjFbYFExI2FkGqjM/EIrA4JR5D9ErX5xYTj9wNxJnCIFgsilaNhPyrtYwL6ZvgZt0MKay3xC+lWNCjvfgJMScFAlNoLwzzVcRCc/hSIlZBqst1W5Y8iMr2Rx2bI7e0ZKCkCCW8tMqQ7yxuoZGaWYUvH0ngYyBSV2nuUhZmEEvAvTkK62Y+QY0xzGaMR+pqTOWov5CNf/srk8tY3GUjYShQJlih12kdW0w8imsA2Z8JlnpkXlsswSmR5kLIWPnaoTi3EL7NjU0tiQ2oN+J9MXEKl52CIXqjIkYk7RNXX4J1xIXYOxkHNawZhXlArAXv4cxhEmuSJNeyjmko1deGrtYVSQd5a8IxWhmfa7LxHVmPZdaNBBM+uYzsOyqXrWPdycP8ejTrcA14q0aDGbOPKQla6mbdHCmsdrem7Vnwq0dlzlE+Zq+rfyqOyO4JpKwUc5LHlrh1m9BvX45V/Hc6x9TELmknxsrikbqCN6/bauKRhMBJ2/MF+v2XDo7d3sJvcemKUDNy4vHmsQXo6+CI/vpc2mW7jlzDeQQO18Hh5d+Q1ahct+2qgBViCDAEGAIMgQ6PQNsQjx/tRlzpNdxtIpuke7iUexiekxeh5+Df8EPUJQmki+ZNcB7khQFzYpFT2wju7iUc3xGE14eSzM9/DPFIhLkStx0DB3nB+bMDOFRRD67xOvKj9sF9BMlyrSIeuWs46LWCTxTjvjYFOeU3pJgsUsdkJ60lHpsqovBt3y5w6uqCr0znrVx/Oe4Mtsz6AUFJZ1BZa4llU3+jArkRnhjSVQeHrh/DRC0vL+zHhG46OD0/FmsPnUH1LUuyF5m40iklBFtCPNIkMy//korcPePQ7WllUhmpctkJbccm8dhYhKCRJJmNE3pPDUBS0VUeC67pDqpP7YfHz0bpLTON2ajr/Cq+35uJMhkusialU+7MBkz+ZAVCMstQKz7ccY13cDF1OV7r5ADSjxuqzSG5uLmxIRs4wc26Jxbr96GAT2QiJ8JycGTTB/hpfF+sCU7gN3NFcfOw2L0nPL4QM09XnEBGxEKsnvZXq6zWZcX7sfnLXpgzYSh890SjoDIXRZk7EfxTfz5+IyE3qTsvIcIi1s1C0O59SDudIcU/LDl/FGlRy6HnSU1rS0uJXGtDi0cam3LBYj+kZB3CyXwxKU5FnmJDS9uWHx9EPNKkPR7T/oHN5nCcLDqtSbYq6qxMQ/TKgZg9rhcWLvVBSr71NWWVp8Wx6omfvvwXTMkpfAzOsrIjSNz1DZZO6Yk5kyZgX4aYPIhmtW4h8UjkKqs8ikiv1/jM1v/xt1nYm2OxfGxXxGNjBTZvJe5jZnwUehp5NXU8wVV3rRQHzNEYpDdi4B6LtdedPIEcc9uUjIiyeyAWNKWn0jBTzADtLCM7LURbCKbGnufjKMrrJS6ICnKmsZInuIgFyoi9GUgquYF7fJIDIRHM4tBsyb2ZTnruRgEWBhDiIRKexypQK7NKo2XIkcZ4VLTH3UCCmWScNWFagiWTMYk5+DuxqvOOwoKUYpReFzCR1yc/F0i2aBhOX0XNfXKPbMLtqrPYti+CJwvkRCJNpOLmH4cNOVf5+JsWDIkbtzKmYVVGKr42ZyLpfI0Uq5Oru438lAQ+kYc8jqBcpuaIMWU5kVTUh2LGwXO4qEGKWVyhjei/OQXh58Vxqb+Ok6mHMW69ES6y5Eak/pYSj+SaO3lH8XdDCGYlnMKKTWZMOliucIMnLzF5N2t9FAxnxEQdchKnoQKbt5l58tIo3icpfolW+B2yiR+NOTloZwb2h0ei39bj1vFPqYWvBrGrSTzKdPvdvRlItEO3CSZNFZH4pm8XdO4+FEtSLJno5WPYkvPmyC2teigp8iDikVxbciiWJ5X6b0iC6dxNfuxI4pr8tMMYy7scW6y9OK4U3nwcwnB4pF7ky969WIRNYgZoq6zWlKj0S8C+MjIf76M8Ox1fBQihD9RZrUuSDvLx/1wD4uGbWY5rojssnwgmJAk7ZNmkab8pKdY/+BgOX6yjXyuOFD85OUYK1GWnCARekCxbsRRz0Iz3DmQho1zARFGh7B9atytx2756l9+H8vhlHsE0Msf0FgtGSmq5GELwWWwRSm4LBCvFkKytJKZhvUSOnsHybUkIyixHtViWeNNcv5AND18jXLZmoFBjb0TEozqgJsZkovOnAn5GNIsf7wpNXJAjMDdVGBcix43i09rJjVpBPFLdct2agfDoSLhuOopMFQFL3ayJxa3Wi3uqy9OTBCMKsu/fvjcOa1KLcfa6RTfu1J6HD5/kxxKHkeJCiEMh5mQMgo4dw98NQvxT+js92sJXi3gk1zSn2xGibsuJx7LKLCStH4Pn/kOH//zbZ9iakWO1R5MTj9zVUHzWVYenR+9oUVZrrtqMqU874JmpIdIenvZRfqw7vwdTX+yCzs+/D0PmLflP7JwhwBBgCDAEOjgCbUM8DvZCryGW+IfkvOfghRg0/zDKZG+2mi4k4qvhJF7iQtB4ib0Ge6HPWF+MG6skHrnaTCwaJ69TcHPuKbWzAv+OsZCa5bv90VsWg5GPvShrp/fHYVKsSe5mDn6fTGS0yN1rCJFjE376biV6qOIz3i88iFkjhT7J+0nb+/vGQkkNWks85hkGgGSUdtDpoBsVjErVJo9sOvX9hZiNjk5OsriNjnAkMRt13TB2WyH/IE6E4bg7yPYdIcZ/dITyGnL9B9heaXnrSAnBFhGP3F1kLHOB0yuf4Mvh3fD8t/G4ZiV3NSJnvWCRl48v6aCIPen8q5LwE+IwkhiNghs0jU1JXKLV2FyM/ha9O2nhQvrojF/FhDg8Jnz8SGWdpG4ePydnLEi1ZIuVBhRAc2NTX38dCfqhmDPeNqFXkrwQS9x7Yu4v6/isz2XlUdg95yWeZCSJXzzE2IQeUydgvedrqqzWp3Fs84f4mWROlsoSItINa5Z9Ci8V8Ri6qL9QjpYlddPYh+N7wWvFFmRLyW9SELp4gPA7LTOuB5+1mr9mQi94rRTiGRKyrEUWjwU7sIFknh5P4i6q3M8n98fS+fMRnnZCIgxTAt6VyUGuU8rhMXuVLHHNCSRt+BC/qN24aV8njMFujcQ1uWHfwot39VbJI6+7yITgH1VjQ7EhmMtcxFtr8UgJ0bLKbBzbMgEvOung+NwYbEgXCE1CPPJx8zZbEjwIbqLyhAURWC6zbhSIM+2YeXJdFtYGmlzGOu6guiz5/0Z+GiYRtzu9SZUwwQg3v3jsKrY8aHESgWKR1dUglJu/l1jzKdu8knUY75KMtrK6CdE3dEsMxqxXEo+CLMcx1VcgExTJG0jyi+1ZIAlx5H/EQkogD61db2fIrBu1iEdST2P5SXxJHrz9kxAjC8VQeTxZiqsol0Nw7VWOjUCyWbdPHv7dNqYg8ZrlpRDXeAVh+8PEpECy8ecxsk50Q92+1TIQzF1847GnvF6Cgzt3HB/JYlJa69RB7BIJOXoRIRXPHIrls5fLx4j0c1RYkWSdw90uhi9PUFvGnXdv5rMVh+LrpEoFSdga4pGTSHCSLdliZSvJeu88Vm8wwsVWrEmuEdmxUXDVh+Cb1Ks8gd4S/KR2xJiT/YklmMqS01KmZa7W5Lqb+S3TbXLN9SQP/DfZM5DPoFXI1oixSWWy5yiRW7Ks1s1dR0kRe4hHrq4cG/jMxFo6EoJpCRWK5B6UQJEnfCJE2jRzIh93llpHEvmIy+zOHcp1gcwBV+9wTN0aDjXxSGQR4vFZz0tXgzL2Ie0/V5mFGfw8VMrv5m0hlSh+auKRhPgx7SF6a8aPxyzW4Nz1fCwU4yqq5zCZP/3N+bR5PoPzXJIlXbZWWuaYGVPiLyjwu5SeJMWilddNrrdOdCNaDpKQBLI1gtRPZJ6SoIzfGGO0rE1uIiakXlKefPrJ5KYdsA+/euTExfCksHzceTn0JgwMzkSuLBEPwbulFo9EHkIc8rE19SZoEaaZURF88iGtWJPkeknvt2ehjA9DQONPauCnN2KY+Yy0VlI8+HpEotWF6KoNq03allpOW8Qj0e3NfKxJ27pNiceyyjSY57rivxwd8cy7Xogp1H4xrCAem6ph+qQrdJ2HwjfPcu+S90t9TmStNk/F07rn8FWMxeNNXY78zyevEde0zm9uQIHqnq51DfuOIcAQYAgwBDoGAg9JPN5CQXwEFn1nwJARi4T4h0MWY8CEDVgeVoBrsg0CgYM8xFw6Eo7P3Zeg1yBP9HpzBdx/O4Scq+W8e7Lc1ZrGadSMqcjHWlRaUwqu2DZiMJLysliTRJaGqnSs/XoV/jZELsc1If6jingkN82GSzkIXuSLYbSfsniPIwMfnnhsvBCBb527wLHTy/jCeF4iEKkaEexqCmPh//1o9H+xG5zE2Iaduv83XvvkNxhPXrGyxOS4OlSm+GHGm33QzUkZ79HB4X1sq7A8pLeGeCSyNRYEYlhn8uDjhiUabyc5rhoRM55tNtZkn7kpKncqDnWVKfCb8Sb6dHPir3Xo1B2vfrIGsWdvKpIm8DEuc81Y+I9X8FwXR0U7Dg59MDfFQiZyjTUojDUo8HB8+gUM0qiX4s73UTE25xRjU3/zKIK+6InZn89WZG+m5BJv3VYehuB/9cKcyROxL1OwbCvON2GX51DBBXmiKxZ7LUf86RwI8R8/wK50iwVcWXkaEoM+xaKPiRv2XzHv62nYFZuC8ylC/Edq8UjaOn9iD/at+xS/ff4KfnbvAWIR6THl/2DRj59jR1iMwsWZEmcKl3BCPMo+NJ4hqbtFxGPlaWTs+hjzxvXAT1NfxYJPX+LdwkndswmJSrJtT/scYblCP0m/5e2qz+WJa3hMaebu7wU3bnn52TbcqcsqM5Cy1wNrvrRgw8vz4wqeECb18nUXRcC8biIWizLPdv8feH7/uYC5zIWb4je7FRaPUluVeciJ/Qlv/3/zcLBYwIISj76bmnMZVZKMj5J4JOvfjfM5WLkzEm/4mPi4hq7rw/GJKQsZ1xp5Akc+Xxqul2DL3ggMNhjh7B2Kj/Zn8uWyYyOtiEfyguRUUiLc/YR6+/lGYU5iMS5fPI05ftbEI5GlrroQG/bHYISvcA3fxt40xJQqk+hQmbhbFQgLj8MYf7MQ50+MzSi3brRFPBIL/szYaD5Gm3t0MW6JD0FkPb52VomJ5JanV44NT7LJ40HqTRjkH43vYvJQqGGJzjXUIjU+EZMDQ/gHcJIpdejmBKzPqMINlcUmV3cVR5NT8cWmMAwgeEtJhazHhlraSXLKZSLnKlJYwk8tj3id3FKTlOVuVyAsQo5zCEYEJ2NH/nWre1NriEfSRmlqPJ8hW25lS+W8m3sE7+tJtvFiq2zjtExjURrGGowYtOcUT1I3h1+6hm7TemjMSWefeBy4aP3w3ZxFKR0Huf6Rem3r9jHElN5R3PckORovwPyZcH916OyOfSrimJaz90iJM3uIRF5mO2M80va5umpEhB/EWH8xPqo+BG8FJ2H76RoFacbXzd3DyUMJGE3mOZkDmxKwiZSTXHuVWXW5awXw3hHBk+TOfL2HEV56T8imbLAk4LDIcg2piYn4JCDUMs82xWFVmnUSHUEeDpdzMzE3OBxDxLkmzCVL3RQ/NfHIX0+xCkzFEZmFHXe3EmFyTGTzUj4OtG75/KWJf7TxU8mrN6KfbyRmRZxGoSrhCdlHVRacxModUXjDR1hHbNVN9JSPESmTUy4TOXfRIK7JdZr4yZKjCDjX42xaKmYGhYljacRA/1jMTTyLKqtnitYRj9z1HPxIxpCseeqYilwJ1pEXGL4pOCwbJ6o3goyUaLS8SLtdmo8NB2IxnN6XiA5ujsOqY1WaidmEemg2cSNIfGGtv5YSj3y9dTZ0+5ig2xbi8RSO7ZqFD75YjxSNeNN0nyInHkn9vLu1zhEvzz8i3RO1ZKffcbfS4OWsg+PLXki7Y3nuoL/Lj9z9AgQMF/b9OufVyGHEoxweds4QYAgwBDo0Ag9FPHbonjPhGQJtgADZwJXx7tUWopBu1uTHskrifq18myx8J7pli4SWVjlSDwn8XSq5cQv10O/IUdkWySAtd/cWYh6qywn1qsppXEfrttUeXw+5TibH2aRlWDmlJxYs3YQTpco2zp/eiS3f9cHs8YPhHyZk9lZgoZZBVbdcHu3rlDjT8rycldrYyMvQcha8H4SfEn/59RRzktSJJJdRt6P1P3W15rNLy11FVefkQY7+kXPiEib/jv6mdSTuviRzsP3lBRdhudtZc9cK9YuxZSWyTrtNUo+8r/z/4ne22iDfy2VpkmGh3V9VeRVWtD6t9uhv6jbI94p+ysZHXo9AspEHVHms3eax5+uW1dfcWFmX1dYDUk6BmaJ+7bGhWGq1ocaDlLVqg8fIoqeW+gQsSHl7/wgJnB4djf4qYpdeL7XdTJ1aZch3cv2zZx7dyj/Gx/9Uk69UFnKkc0z+nfB983NVkpGOTzP9IfVVhkxFdwcHOPRdgDRZLFJ1u/b+L89q/6BrJOweIKO8Hq3+ke+0/pRlhTlD29S6RjEfRd0T6rBdv3Ls7ZiX/NqpnMty2W3hR+WWZ2yn1wkyyusUz2W4idD19QAAIABJREFUUOKRkJGKeWxjjpG6+TZV8pLvtP60ypI5rlVegTPVU/mxJW2oXqZIcsvra+ZeZQtvrT7S7+rPH4c7cTc35WtbIvJta+NE66DzW44POVeMTTNy8/1suIAA4ortm4yDN7Tb48dFdb9Sy0D/lx/pdRZ5LGNJiUe6V6H7FK39CPlOTTyS+M6h05+BrvMgrEhv3h2a4+4ie+1QdHJ8DtNDlZazcnnpOTGYKPAeyhsRdBoawCweKTDsyBBgCDAEngAEGPH4BAwi68LjQ0C+gbO1afszfs9nnh7fAwsWrUfSSVW8yTBPrJzaE7Pdx2BXmuBe/KRj1Bri8fFpNWu5LRGwEI/aD5Zt2daTWlfdzWrERcVgqMGIwbtO4KydyYXaGg+u/g7OZh7FJ8Tdn7iyl1lc2du6rQfVx8c9PrkPPw7oCp2DI15dkWXTsupBdbHf2z8CcuKx/UvbPiUkMTFLTqXxMTFdvWOwpeTxrMl83MrKIqwPDtF0ZX/U6LV036omHol8daV7MPkZHRxfmIGQcmurb1KGkJ+1RxaifydHPDc91CqElLqfXNNtVKX548PuOjg4dMawgDNotEFiq69l/zMEGAIMAYZA+0eAEY/tf4yYhO0YgZZu4J50go32T4inKMZpVMd45OMsOmOZ907kyqwk6bVP4pERj+14Ej9i0Rjx2HqAq44nYpgYN47EpFTHxGx9zS27krucCw9/IX4dHz/TEIFlJ65ruj+3rObWleaqIzHzBRKfWIiF3G3YKqRe1X74b10L7Kr2hgAjHls/IgS7+XQd4ePOhmF+xg1Na87Wt2LflTEmSyxMEhdzmCkfl/9gcq2l+1Yt4pFYfNakesKtkw5d31iDzFtKEpeQjjdzNuLDZ3XoMmQVMmxYdFLUbqV5wY3GXNfp8NxnRpTZcHWn17AjQ4AhwBBgCHQsBBjx2LHGi0nbzhBo6QbuSSTVtPpURmIwxqzFhl/ewoKPe0nxG0m8ySVzv8MeEqPyT0I6EnwY8djOJu4fKA4jHlsPNo29KY8p2vraWn8ld1mIOepssB23svW1t/xKrjoC05/thO7OI/D9tixcYQ/oLQexg13BiMfWDxjBjiShEWJ/JiFYI6Zo62u3/0pCxsUYiRy241baX1vrS7Z036pFPJLWBfJxKUbN2o9iDSv0unM78cn7K3D0WsMDhRXiRnbBc25jscCYg2tsTXsgZqwAQ4AhwBDoaAg81djYBPZhGDAdaJ0O3L9/D2WVJAYj+zAMbOsATzxO+MguPam9cZmtyey+xHSA6QDTAaYDTAeYDrS5DrR033rzVk2by8CeOVr3zMFwY7gxHWA60JF14KnLl2+CfRgGTAdapwPV1ddQXH6afRgGzeoAIR7Hu3/YbBmqRxVVF9iazO5LTAeYDjAdYDrAdIDpQJvrQEv3rZVVVW0uA3vmaN0zB8ON4cZ0gOlAR9YBRjyyTQ3bUDyEDrR0A0fJJXb8c5G1q35fin3GbYx4fIi51pFvtEx2tlFkOsB0gOkA04H2oAMt3bcy4pHpbXvQWyYD00OmAx1fBxjxyB6EGfH4EDrQ0g0cIxz/XIRja8abWTx2/Bsr2xyxMWQ6wHSA6QDTgfaoAy3dtzLikelxe9RjJhPTS6YDHU8HWHKZjhaVk8nLEGAIMAQYAgwBhgBDgCHAEGAIMAQYAgwBhgBDgCHAEOgACDDisQMMEhORIcAQYAgwBBgCDAGGAEOAIcAQYAgwBBgCDAGGAEOAIdDREGDEY0cbMSYvQ4AhwBBgCDAEGAIMAYYAQ4AhwBBgCDAEGAIMAYYAQ6ADIMCIxw4wSExEhgBDgCHAEGAIMAQYAgwBhgBDgCHAEGAIMAQYAgwBhkBHQ6BDEI9c7QmsnLIEL430Q0DW7Y6GMZNXRIDjqhH7Q1906fwCJu8own2OY9gwBB4KAe5SHLZ83Rc/TZ+JyPy7D1UXu5ghwBBgCDAEGAIMgY6LANdYAuPM0Zh/qAINqj0mx91A2orRmLYtD7dVv3XcHjPJGQIMAYYAQ4Ah0DEQeCjikeMqsePLhej9cRjyHuFNvPbwbrw52As9B3vhvQ1FmshytZlYNG4her9u+Qyan4rqFsgl9WfUNkRdZKSYJtAP8SVXHYGZz+mg0+mgGxWMyhaMzUM022EuJcTs4VWvwWPCJESWPlj/LsfPgdeE3li7v7TD9LGtBb0cNxue43tizvie+H3fnxeHtsa1PdbHnTuOjwwmzEi62h7Fa7FMtD+jwopQy9bCFuPHLni8CHDcfWRERcHNNx4Hqh58v3q80trXes2RBLgZQvF1yhX7LmCl2hUChHQM/9YNXTq9gOnGMmvisbEEYd+4oLPjc5iq8Xu76gwThiHAEGAIMAQYAk8YAg9JPFYg+HNP9JgUitxH+ODE1WZh+YRF6DXcF35ZtzSHgKvNgNdYT/QY5CV9+s9LwcUWyEWIR74/I7cisp1upLn6KqQGzMJwtxfRrbMTnJy64vkh07AiJBtXm9r35p8QazHf9oaT47OYsL0I91owNpqD3g6/5JoKETH3b/CY0BseM35CyhX7x4Tgk7xyAGaPm4CIkgdfdynu31gwrgd+31fCI8FdisamGb2Ftkn7tj5zg1H+hGDPXTyILV/0hse0fyLiMVk8ctwFJHu7Y8kPi5F27cHjZo/aclw5/Dab4Gaw9YnA8myl9TdXfw2H4xPxyaZwDPYm14XgrS2HYDhaisvtfG2wC5NzaRijN+IzO4hHgp+/FX5mDA2MwjTzCWTWNNnT5CMtw4n9GRH6xxKPtWcy8N3mcHyVbB+By10/A89AQQ/7B2fgTH3b6PgjBbedVH63sgAb98fiff8Qfi73Wx+OiXvTEHn+Bho7+BosEI+RcF4fh/127Je469n4Tr2eeYdg2KYYfB97BqV1j1+vrqUmwFkfgi9TLv9hGsRxDTh7LBlTAqNgyLMPg6vHEzGUxzIE05Mu/mGytueGOK4RRUHv42nds/h4XynqbcwvrqEYeyZ1h2PnV7E8/WZ77hKTjSHAEGAIMAQYAk8UAh2CeCSIc01NaGriwNnYTFjKNKHpqkBCPmnEI1d9CPMHPQ1HYjHIfxzg4CCeOzrig+2V7V45OY6MY1Oz49juO9GMgI2FW/D75H4wrP4SC8f3x4bY6mZKK396aOLxYhQ2ftYDc8Y1/5n909YnhngkCNqzNiiRbtv/OC4fpu97Ys7nnjjWCuKx5sQ6jB7pg9P3LQ+dhDjz3WSEs8Gs/dGHY6mMeOQun8HyzSFw1RvhIn6c6fkTYiVIiTp7iUcr/CgeehNcfeOxq7S+bRWhhbXR/vzRxGNVWiLe0Bsx3Q4Cl3TpalYy3tZHw8MYjX76GGwobmhhT/98xQkJUplxGH/3Nlnmo8EsnRP9M9pB1rVn5FpOPJ7CN3rVmiabkwM2H8WRm5Y18HH0/fEQj8RyNBIu+nD8bgfxyHE3Ebk/BAO2JMFjqxEDgjNxppl98ePA8WHa5G7kIuiLyfBOq0FTC/rVeNoHQzvr0P3jfSh9wMsR4n3zxXOO0L3yG7LuPl6dexis2LUMAYYAQ4AhwBDoSAh0GOKxJaBS68cniXgkhF2uYRCcdE548eMgpF24gQaejG3ArapcRK8eh1l7qloCEyvbxgiQMSrYPhoen/6ApIIEbJnZE/NXROKynZvnhyYeOU4k4QRyt+liJE9Ezv5pC8p4XRG/t1OeNobnia2OJx6/64HZs1pGPBJLlwsRX+HlTjronv8ExlKlFZ5AqJIxu4bw/aFw1h/EjoviGMrIe6J32bHRcNObMHxvJo5evIN6cW24eakc0dFx8Eixz7qtPQ8SJepaRDxuz0I51f2Gu7hcWoD120N5grbfjhMofYxzgfbncRCPQ+22HK1BxP4wuGw5jpyiDEz2NmJSXCXqHiNu7VlHqWzcvWLoNxnh4h0Bj6TzKL/dwL9wa2q4i8ozOVi9NxnmPynxOCzyvIAFmZf3bqI8/wTmbCAErQnvRZ1/rJagj5N4dNaHYY09xGNNNr71NmNKQhm/7rv4xGKrHaFZqG6292NjyQFMe8EJus598X3UBSt3aS35Oe4SImZ0h67T+wg6/+AXSsSAoXyvO57WdcIHW4rtakOrXfYdQ4AhwBBgCDAEGAL2I9BmxGPOzWJE6QMwbMQi9H59MfpPCkLAsSuKN5blu/3R+3U9/FSbKxqfUR2TUShvidmoda1WV+0hHolFwpWMWPz6+VoMfEto46Xhv+GVNzzRQ8PVmrtZjFj/IIwetYSPI/nS8FWYuCIRObWNChGkOJEfhyGXu4XCmAP4dNwyvPT6QvQd5YuFoWdxqxUPbYSUipj5HHQOfTA39bqiTfIP2UiprUEJIXE9LxRL3F/Bs12IW3ZndHf+EMtizlnJwOUZ8KqTE2812XQ9D8afR6BPt868K3ef0ctwsPQ+3ybXVICNI7rCqfMIBBZZb/C4mgT82NsJTgOWIfO28CaZ1u3kRGQQPg+yzqQu5e84P4su5JrO3eH84TLEnLtl1c/6qlQEzBomyuuErs8PwaytWZqu51zTFWTt9YT7K5Z6ew+dhcAjFx462Q3XlAfTD70xd+EBVIlu03Om/YikS9Zv1PmxyQ3HnkV/h9cnLwlu0VP6Yf6U3pqu1o21uUjcMAvLZ7jiJ96F2hm/TnOGh8zVWq0UnGgB2ZyFoxAn8i0Ep9SA4GheMhLzJ/eGx6R++O23bcipVcpeX5WGWH+ZHJP6YeGPX2FfQqFCpwgZZ/6xNxZ7J+OyvN4JzvD8wQOx+TetxpG7fQ5HdszGms/FPk4ZiGXzlyAup9aqbOGOMSpX8ubjYnL1F5GxW1n3iuVbcOqSav7mB2DFBILHJVQfC4DfN/0xl+A9ZSBWrN6HAtEih8xHIR4ncWnvhTnje2D2+J4qmUj/EzXj93FcDU6sG4mnnXTo5PIzDlXbtgImZSNE4nGnRuxZ4fcw3mJmabZ1KApba0PNuRys3hWJoT7EjdaMoRvjsDa9SjGOwtrShJrSfATuj8UoP7Pg/u0ThjHBydh95oZijSeyRO4Pg9vGVBy+2YCK7OP4blMoBhhM6O8bBY+kMis8yFwQZInC275C/QP9o+GRWKJwEadE3WdJV1BzLhtLgsP4et18wjEtNAdnZa6aksUoIR5V6y13MQff+xrhsiEFh+l4Xs6Fh78JfLxF4rIem4AxfF/NGBqUiJ2FtxU6SGSuVeBnwkD/SHwRlYcicd2Tz0fqBj91o4AFj7dfCPrpjZATj5xcDpXcObFRcDMcxK5q5Zwk7dRdKsIm2fj0943ALJksNJ4kcd13NYhWsWq3V426ucun4eFvxNioEtxuLINvkAkuW9ORr2FRxHH3cDbzODy2yVz9N8VhxdFyacyJtVa8ORxuhnAsyLR2c+SaKrAlOARuvgkwif2sOp6IYUS2qlvIOZKCaYEh6M/rUwRmRRfiokYYAULqV2SnwyM4wkq/b6pwlY9TW50Tt2Leui/gCNJU7dH5aH2/vo+SE+mYszUMg8jYeIdg+NZk7Cmwdsvmmm4j53ga5mwLl/o3yD8Ss0JPIatGtaaJLs7vRhWDu3cZCTHxGC3q9htbkrG3SBmygWBArBl5WWT1k/XBkHVFIp0VFo+Vt5GdkgR3sd5BgQexIr1aQSJy1wWLR0I8yv8IDrdOH8H7eiMG7zolvQwQ4i2GY20eh7uVZ+CzW1yrvMMw0XQS2SrrSIJJdkoKpovrDcFv2CalzPJ2m26U40DoQYwV3eBJ+Tf8zFau1nI55Nfz5HKQCUN2W2Smv9uDn1CvEMKAWKrzFurqORl4FOkq/bmcmoB+hij4FXG4k38Uo/VmfHJI29uFu1OJmNhETJZc/cMwZtdRRJVYxpyrK4ffVhPcfA9iZ5n12sJdz8XPviYM2JyGrEayz7wF016h3yU3y7HPGINh6+k9JB6Bp631leBCdC8xPhFTAsU10DsUo3YdRUKVch9J9KGhKg6/vvo0HB2fwyjfTDxoznK5Pni1kw7//Uuq1f2Ljon6yN1KxtwXHaHrPR9HNNZsWp6QmocWvIZnuvw3ZrC4kBQWdmQIMAQYAgwBhkCLEWgb4vE9H0yavBi9xAQwJM4iSQTT821/bCu0bILLdvmhx6C1WJ+r3NzYIgqF8paYjVrXavXYVn20LNkUFuzZhIFDFwpyDhZiQ/Iyk3MV8cjVnoT3zGXW/Ru8EH1GByNaRgZIcSIn7EHg7+vQd4iIxSBPoa2hq+GVWENFsftIiNLT6wbA0UGHZz7wQcZVpXWUVkXVh+Zj0NOOGm7ZneDmdQQ3ZBtaLm8dXnFwwMilAfj25c6SOzd15e702ipkiZuzC/snoJvOCe8EFFnF0alJ+AEv6hwx3L/Q8oAi1v3UU0+Bft7fVqElMv8dd/skDMNlLuUODnAQ3csdP9iuSEpz78w2uD/fSeyjjq+fd0N3dET3SbtRLHtAJqRI4k8vo5Oj6J4uq1fX91ek3lDqpU0BbfzQmO+PFRP6wjuklCdj+BiMGu7WhLSoiv8VSyYRwkpIjELcowlxRf5Xx3hsrIjGlq9egoe87DjLdTTGo1ose4hHIU7k69i4dRXWfdpHlIfK0gu/LjGhQtQTnkz8oZdSDiqT+yBsPHhRImeoFeCc6SPx23RZvaLcHl94KeIhck1nEfXr3zTr9tCISVkY/L7CpVyNmRwL7m4+ohYNxE9UVhnWHp/ORFSRQKqTa7h8Pywf1xOe34yE50QLxsLY9OKJVJIIhFqnPsitfaHhEGpk84xvo+ECIr53QVdHHZ77MAg5D3D1ejDx2Ijs2Cjeim/IjuM4bkf8wqqsVIxbL3MDpS6PBjNGhytjDlIyTHLhJu7fYnlX7xhslFmYSLIGJsE3IhZDvS2u3/z1hlD8++g1mZ40oTwtEcO1XFINyjiWlHh8LzgW78nL87KY4R5dLD10Nks8Vp7EF75GOG9IlVw7CcE2x8+IEcY0rA4O5QlBIq/UT99DCBVfIJD5a1NmvQn9NqUiucaylnB3ShAoq1NeLzlXEo+iHBpxH3NiI0WrV0vdRJ9unTmOKfKxlFx6LYl4KHY2Xff5MSUWtcq6BbfsSKzJuwtyDxL0zNrdmmByJvEgBlFSU4adi4rQvJN3FH83GPHGgTwra/Cms2n4yGDEW6Z8XBHnDZFhqD4E7wVFKOrn9Ukfgi+SLkr3Gn5+cfeQGRurKEvHUS0LKf8o/ggptZYPlRCKrxJKcLlRiau6TbInyUo4iDc08HM1hOG7I8pkJ4S0kghkOdZ6EwZtz0S+rD2J8DOnw2eLJRwDxcTNPxFRsljEHHcHaVFR6K8hi4sskYxEPPpEYsq2cKk8rdfFJxqBRZb9nySHingkWNw8eRhv640YtCcbF8RxF6wPw+AVdwwTfdRrlQnDDuRKMby5hssw7Q3TxsRgxriosxL5TdprqMyGR4BZCk3BzwtxTVPHeKRyqK0R6RgPlJGlpG4Bv2gJD8V8l+HH12srlAb93v8IjsvuHyQrs2mPGW6bjiGzgQOVQcvdmqu7gA3blH0U5owRg2VkKZnXpUkH4WaDwOSJTr0Z0xIFjxry8sC4xwgXn0iM3Sirn95DZH2kes7dOg/DZktZOSZyWWh5HsfrOdj4j+5w1HVG3++jcKHB9hzK9X4VnXQvYHaS9Ys3eZ3yc/JyIn1Jb+h0bliWdVf+k+Kcu7APE7qJe8bX1iFXFhJFUZD9wxBgCDAEGAIMAYZAswi0DfFISMa31uHXA7movFWPxtsViPltDU/UDdNn4664cWop8UjefJJ4gORTtlObtNTq3QOJx/JD+PxtL/Qe7oNVcaWovU/aaMSdK/nw/UxJPHLcbWSs16P34CUYs/owci7W8fLUXz2POF8/uA5eiJHrc6Q+SsQjweT1ZRi9NB4nyDWNN5CzPRCug73w+m8Zik2wVh+0vuNuZcHwTjc46XRw/P/Z+xLgKqq07S91K5WiKIqyKMuyLEWGFEplQiSFgsin4+C4MKMywyIojPIJIv4iKkRBVkEE2bwhhLAkhB0C3Jt9T8gKCSQBErISCAmEbEAStkCW289fb3efvt19+2YB3GYOVeH0vX36nPc853Tf7qff5337DsLrXwUhtbxZ43HEjhMaU/DNs24w9XsLa5LOobGdxngP9UURWPRiH5jctB6LjHgk0s7tidewLLJEPKa98STWv9IHJtMw/HRGujkTridhzlMmmF7ehDINsSd7ZfadiEPVdmJUPY+2QongdEY8MnKQxtjvlfk4lFeLlg4bbPeacSEzGLN9DqNGXk+C7Rx2jOkLk5sHZu7PQ21LB2y2dtyqOo4tk5+Cm+kpfJlkJ3mFq3H49EkTTMNX42RDCzpobbXfQk1hLNbOXofjzc5vbBmuzkp68BZl1hMmIeqCNHbhkhWbpw7Agu8tygMSHS9cP4pdnwzAvPf+huDoAtTfJrttaG0qQtwKbw3xSHhk+f4v5o0fhJU/W1Fce0ey+14TSkNnYdEDejxKxKNEsH3zySxEZlfjTrsNrRfDsf3jgZj3/gwkVku4EJkYtmQ6DkZmo/Iqs6MOhZbPsXSCNE5lbijuIcmPieybROM8i+utNrTWZ+LQ189g7vhXsPt4kwKnULodayYOwMIVB1He3Cad9/eacDFrD3aYDykPo+wAwptdG0p3v6XBjNURsRZsqDgyFQvGu2P5qv04Uy3Z3XarEnkHZ2HpxAFYsi4O19iaEonH/iIB+83/W4ikwmtos91DQ9bPWDOpP+bN/B45sheo3YYiaawktb5qt0u0T/XQKNpztxhB7z4GN1MveH57FHUG3lpq+6UxdO7xKNa5VYEA8hQzWzCEPABDc5Faecv42tBciuUkbfRPgF/uFVwTrw2tqD1fgFXBofD0jUdwpT2OHxGPy/alIfjUZVTflCSjbbcbkBgVi2FmC/4ZU4k7DD/FO5MIx1C8GZKL7IZ76LC14sIx8lyzYHhIgXI+2Cpz8dEmCzx9I/FFUilKmqn9dkgS8TT4Fag8c+RkLPTQ6rU9DWEXbqLN1ora/OMYRwTn9kwcv8XWqhwjU+XxKNjuouZ8Efz2Rog4vR1doXjSMOJRfDDfGIWvjl7AlbsdsN2rh/VwBIaYw/CFvF4lIpZsjsLi45dQR/VsrWi6VIw1hJ/ZivfiJUxojRQnx8PbbMWofSeQwWTwJPvOP4YxD0g8CmwuzWGYHH4GOSLWNty9UYv0lDQsz5Qk9upr8BWRyLPgo5SryjkknUtar3mJRI6A59YMpMsvZRhp+M+Yi8qcS2u0Gtt2WOG5+SiOVDGpP2FyDnus6bCovL6Fjmrs2BkKz03JsKi8N4nIOhkTDS/fGPiqEkVJxCOtJwnDYzTG9haUZSSDJONe+04rL0fIlmun0vEmkWb+cfgho0KaR3F+HG2h+r/EP8K7qTALE0Ti3QryAFyRWobyO3YiTt1v64WTeH+jBd6BabCUXUeL+Nt0G+VnTogk+ZCtGUi7Y/99un4sBVPCcpFa0YSbbdL9S1NlIX4gj9SNMdhSbq/LCD9a20M2RWN+Kq1tG2x3ahASEg5Pczi+PXFDMed6TqoYA3TIpjisyaqU6tI1sPIcdoVmKBJxhXiUif+3wwpRTpLyu41IiyCSnKTTUuIzapzZofZ4FFpvorwgFz7b6bwJw9dZ9t8EifCT5n14YAr2Fkm43K46jS/IY9k/BbGNtGY7cOlYMkaaLRgamI6oizcl/O7eQMmJDIyltbAxFoEX2LXhJmKOhMPTNwxjw8+ipFm6pyPZd9nRBAePx54Sj93Hj93f3hXXvSi1LtT9fuh+HwRRZm3F36IviPJg8jJOD48U5zxANeeEd0tZFsaaLRh1pMAu9b97A2X5uVgSnq94lopz03gWPpssGBokeTWyxSB0XMX+faEYEpCCKJmcZsSjSDD7RuDzZGk9td+sxt4DYSJ+s4/ZQ3tQ/TgLeeRbMXxXJiLY+nZiC+tbtKu9BonfeqG3yRVPTNiJIgPPREGogfWDfjC5TUGo6oWPuh1n27dT5+IJFxPe2nFJ452rrk/J46LnPIe+bk/ioyOVXJatBodvcwQ4AhwBjgBHoAcIPBzicfQWBJ3RSmCF+kx8/cYSuE+NRLH8UNpT4lE9DmfHquuw7c6IR3oguLg/AO4jfsAMS7XieUPHKqShyuNRuFOIDZOXYtD/RTvIy4R757B56lLNGJU2Rq3Hd1FVGvmucDkBU0cuwbDvMlGnIySY7V2VQnsjCkOX4d1BfSUC0rU3Hhs23UEq3JzmA3dTX0wMqdaQDzT+OyeW4VmTG8but8eEZMRj3xe/R0pduwaXEr/n4eryLBZkSg8ngnAdSXOegouKjBTxq4vC9CdMeHxmrELk6MfD+nFKPNZFi22YBvkg5apWfkq20x/7J5wPwmu9TfBakaN4Oin7Kg/gX4+Y4LEk204utORgpacrXB59Fcti7XJzfbusjZ6UQksuQr5wh8/8nbgoPywIQhUSlg6RyLsrdrsbEudiyfiBWLO3SJPZm3nRqb33hPoYbJ82AD5zt6D0rr0Nsk2f1Vpvb/c9Hvtj8Yr9KG22403yosy1wzF3/HuIUsWPMsKK9TPv212KrJV5PM6dMhYHM7SSu4rDk/DNuP/FrgwVKSyStP3hM/0TRObUKw8BRv3px0nej2rM1PsF4TyiFwzGvFk/Ik9HLAtCJeJpftRkokw8fjd3HbLr1XiUI3r+M5j7yRKNpyb1pYy1ixiP7Q0JWODVF66mJ/Du9tMOa1Ztt3pb8SI0J8BIas3qCu03kH88EzO2ygQkyaeDUrAj3y6PpLpNp9Ix2hyGzzO0oTAI69tnM/Gm2YoZ6ddZs+I5ZzQPzIvuTZV3nt3WCMxJr8ZN1YOzcK0Q3wZY4LknTySSiZQjDzovcxg+PlqtvLxhHev7ZP0NDSKPQvXcXMGu3aHwUEunWXIeSiSjki/SNhEwI3ZmIV3lGcqIR4+AZIRU3NFcM+tOaJNJfrqxAAAgAElEQVSxXMxIxAizFZMSLznY3H7pND4lUkSWIws2KTu5Z0AaEnQPxWw8D+LxyBLFvB5WqpGlE4Z6/BiujMjrKlamUJuPz/11Hpl3L2DNNgs8d2QhT3U9EoSrsBDpQASyXiKvu26THZWZSRhhDsPszGvKNV24ewFrt1nwwsEzuKRaN5K9Vow+dAbn1H3eKMWyLfb1JI1ZjklpjsTyU44v5ZxhwrB5mCX11d5chUNh8fibHxHVVgwhmbAlF8dVIR7I86o4MQ6evtHwK9X+9tK+iykJIsntW2K//lPb+sQbjLj10CUpYYSf19YUHK5sVfCmsTYeTxbPv1kZkkcl86gjUn2V7p5Owtf+G2wnHsMcPApbK05gktmCv0ZXKJAyO4iAIsk/+5POyVCMOVKAcpVXm0T4WfG3w2dQclfd7y2EhVjh4Z8kZtMWOhqwZw954MVjZ4UjfuUpWm8+ibyjpCx5KFPdT5ChUp/arNY9IR57gh8Dxo5j5zEeJc/ERAz1jcS6QjuBTd6ir5pDMTb+EmtSLNtr8jDdl8jsFBxQyfWNzgE1gbmp1N52R00uppmteCfuoqJuUYjHjVGYf7xO+Z46bTqZguHmMLD1RN8xvCn8RtoN+zyK+wyuDaLxqv8EoRm55tfwqKsrej+/EEer7S/FpDZOY/WzrnDx/AG5KnJe1YTTTaHQF8PcXOC1Ms/hWq4+iL1kJOz4P44AR4AjwBHgCHAE7g+Bh0M8TgpHoe4HWbBVIXj6EgyYHI4ieZ8z8rAzopANy9mxbL+67Kw9uolJX70WA0aasUUfa1K4gt2f6DweLyfg3y9JMumBL6njTUrbA0YswYAxuxGnyPAc22C2iTd85Mmgw4rt724ptUPei7Hw/cgb/dxMMLk+hnF7zilEZ8mm4XCjjNeurkpcRRZf0Y2kxi46Uk6WQw+an4lmnX1GN10tOSvh6WrCsJ/OKDdsl49MwqOmJzE7yU5a6MfUJfFYZIa3yQWDF2dppOD6dujz1bhP8aTJBSaT0RhJYu4Ct7H7FQ9JOuZWni9e6+cm4tL7MQ+8MWsdwk7VKbgZ9dOd7+6e2oAfJ0pkojrxwuWI6fhuvAf8I+0xmMr2/B3zxr2C3cfs3h3UhyHxWByAVeP7Y7lfhsO8PEzi0UiuLc279kHh9vkkhP40ESs+HKyKZyjHOFRly1bIuG92okq3npi8e1eGfZ2IMdkSFmA5yZsnuGPBtLfh578Tx0sbFRLS2Tx0SjxeTUDQxwMM4y9SbEaSr8+dOAUxcmwrSWrdH3o8lLmZ8QDEY308vh3cGyaXvhi98eETj9IaogRD5L1YiIBDMRhB3j6+4ZiVak8IUpRIiWgkIoQ9/NtLSRo9JrJcOf9oHdQVn8Hq/fYYjFJ9qa6GOFM8Hh1lu/rrn+JR55uIgyqPOGfzzIg6ivGo/qeQnSrPPEVqzSSLYhmGV3ck4+djF9GgIjhE3GSptYfKQ5L1QXaTRyCV9I9iLXqaY+BbepdVUUqlX5kEZTESh+w7pfHKowPYeDT4Mcm3isxljRtJrSVborDq7B1Wrcuyu8RjVSZ5kUVgUa7dG45IkuyoKHiI47eHKKBO22vP4rut5DFrhZdfBCbsz8TeUzVoUpGIzDihqRiLAyzw2p2DEtlrXsqere2P6kv2arO40/cK1qo5o+82B2ll9KzP36oU18/dZpzOzsJXgVJma6+AZBy+LBE8FDMvPEQOX6Ai5Ng5SZJqkv9+ofYia7+OE6kZ+DhIjgcpHyfFCtQSWIzwG66TBEsYatc2SXd/pqQ4W48jR3fd1uOnEGabEnFY9WJNbNcgniOzQy3396Q4f3vTsftMg3IfwfoxIgHZPvVvE7PZK+gE8g1sluIg2knQluLjeIc8jWPspChr16jPHhGPPcCP9ang2EVyGcX7cIvW+1W4XYrlAeStqB0//aZWZB7FXzZaMMQ3FMO3xOKLyDykX75r+Jt6tzwbEyhBWXgZbouEYBsK4mNFQnevKvajQjzqZOA0HglrLXHbGd4Mg85Kumc/u/1feIzu57znI9mBeMzFD38y3R/xeDkEEx5xgecPuRoP7s7s4fs4AhwBjgBHgCPAEbg/BH454rGtHAEfLkF/FSnpjDzsjChkw3J2LNuvLjtrj25i0latQf9R/ggu0769VLwV1R6Pl+LxvhwDkmJXGv6N2YVYWTJm1Ibatoe5LT7IC+1oPLker/QxwdTrbey5JI2pyOwNk4uLElORxVZUl2pyjxGCRsSjkc1CRym2vtoLpud+EJPIkBzlyKRHYfJagVxZ7mh4nExwOvV4lPd7rz7d5Y1gXfR0PNHFGF3f3achHkXM7l1BntUPc972wKO9THB1dUPf4cuQfk27HozsN/pOEFqQH/SmHJ9woIqQc4fPhAGYN04rt5aIsr/hYK42HpFCbo2biKiLki2MCFu5LUd8GFD3/0sTj+q+aPvu2UBs+EAbl1Id41CdxEZNPOqTexgRj9Q+zU3b9VJkHVmDgLkjsYCIwQnPYMmyPSjrJA5ip8Sj6DHaXxMPUm2zGFtzwvu/CvEojvFOEQL/0U+MW/XcgkTUqBKi6PFmnxVirQuPR1Zf7Ed8cGzH1bNZmETeVhspOYe0piSyygI1AaDffiuiXCG6a06kOsRgVNfXEGedEI9q+yQbZQm5XzJCVTHm9PXYZ0bU6T31FHyMiEcipeRwHUZyYqXtTohHVoeVEgEYi20V2qQItF8hw2RbmCflCyH5iryctcPGo8Gvx8QjSVqNSVDWj77sDvFIHozWgyTDdSSoWSIMR7m1AKH9Jorz8rA2JBaj/SRvU++AZByobNWYQWTLiZhoDPGNR1AlealJSWc8A4/hpE5O2VPi0Z9iKwYdR24n1wyNMb/SB/G3p/0GMqLIy9eiJCURk3Uc7Px8JOKRyVeFjmuIIPm/OgajmmDXEViM8DMiHvVDZzEDnZF46voKYUbEoy5DN+tTI6tWkZHSuSjLip14vRmRgOr+2Taz2XtXLko6IR6ZLRI5ZsXY+CrWhFIa9dlT4pFie3YHP9apgqNu3th+VnbUnMIMOWau2oubCGopREQM9HJrWnPtzZeRmHwMnwVHYJjoAR6K0YfycUEVB5T6oDiZ+/ZaMUQmNinpjH+wBSMO2UNjiPXkGI8e3SQeO8Objc1ZKXTUImmBN/qYTHjsX0EovGUP4cOOEYRcrHja5f6Ix3NBeK0PJx4ZlrzkCHAEOAIcAY7AL4nAL0Y8thVHYcJLS/DnL5JwUb4ZlMjD1ZgXb/dYoZuuiui9GP3SEnh/l+HwcMYG//CIxzvI89uA/iPW4acTWo+VuyXxmPaazuOxKQdLx9I4ElGheYBVx+Kxe4X9msQjw0YQqhH+4WNwMdnl0HVRH+Nxl8cxM1Yfx0tlt+omvafEI/UtJZl5Dj/k3oZQdRDj+rlpksow+9Ql68cp8ShKpF3g9somlHQRxJu1NcqvFPeczY1qjBo7xIcdih15BUeXvSje2D6/xu69qa7b1TaTWesJLc1nipUoe4VIUmNvbIuv0zTdUR2NwOnarNbC+d3YMKk/Fq2O1iRioOyvaWtHPnBW667IS2agSK5uG4154wdi+TpVrEnCvTYa2z/qjwclHu19kdeeDW3XCxC78kX4kMdolPNkRJ0SjyzW5JebUNKiWvua9aI6f2Wp9S/h8aiMr60K4Z8PRh9XVzz1r51dBqtXiLUeEI9KX8I1hIeEw8MchZX5UrxEicgJx/wTzboYfyp85PNGEBpwaF+YGH/to/hzqJJjPIrEQXm25Dmk8s5T26pPVMJsYiVd+7MjyXsuAt+ddMxczuqxkhF1PSYenVwDWLtUMoLQyONRXY+2y47GY6jZiqlJdi9SVsd2+TRm+VswZE8eKm0CBCYH1mWCJmljbnwcXnAS41Eft9B2rQzrgyl+mtaTtCI9EcPNVkxOrNaEbWD2GJXdIh5lmbWaYNZv6+XWrC+RYKMYrO03kZ+aLMb1HKGK68nqdVTkYPJGihF6EXfE/qyYYoBpz4jHeoTsI8l3HLZd0JKdrN/fuhSunsZMInS3HBMzFtN5QLEtPTbGIbhCdQ5qrlF2j1tJ/koxDhMRVHhVjvFIx6liBarUHIwE7Bbx2N6A3bJseVeFXXJrhJlCmN0H8WjUnv47IxJQX4c+C63V2LqTpNYJUHvmifuEDlxIScBQs90Lj8nAXw4t1bzMkxLU0LXSXpfaYHZoPE6FDlzOy8A/N1qgTi5DbTD8dnaBHxuLgmMnxKMis6ZEQmqSWb1tILe29yH9prY3VyJ4nxTXc74qrqeElYCGbJJKSzE/b+dn4m++kVhxWnuf3FOPx/aaXHxktuCF3dqkR8w2Z6VwoxA7pzyNXqZeGPR5FKpU8cTVx9BL75AJj8Cl11SEyfGX1fs7276T6iOqZv61v17xaO+sPt/HEeAIcAQ4AhwBjsD9I/BwiMd/HkBiJQX+pgf4u6gvTMeSyd9jwIgf8WVMvWJdbWggPIYvxbB58Sho6oDQUo8Te4Pw0ijK/PzrEI9kzNXEPXhh+FJ4fHQER6vbIHQ0ozjmECa8TlmudcSjcB0JS1eLiWImbMhAwaUbnQaXvl/i0VYdg9mD+8CtrydmWS84SH8FoQTBM75EUGoJrjTdU26S2m5UozBqCUb2NcGl7wewMs/Ly4fFTHxuT47FhqMlqDN4U6xMDN28dyK1VtdTb7MkM88uyEThwXHo94g2qYy6Lttm/TglHjvOIegNSmbjBvepW5B67pqIhWC7g7ozh+HzrUXxYBTkmI2m3s9jTkguqlS4sP7UpVCyDZOnrEZYbhWaZFJT6LiD2sxVeLGXC2gc6kzf7Niu5kaSWQ/Aym0ncUv3sEiJMsoPTsQ34z3gF1YlzltL3gb8OGEAfD5bgKNlNyHYWnD52Gb4ytmf1fEKaYwhnw/EvImjsSO2DLcEG1qqMmBdJGdpfijJZRylxWzsrCQPqMx1L2LuuMHYsDcPjZRR09aCusIEhK7+OxZOfDDisSFlJfzX78Dx4iu4JctghdYmlEfMxuJxA7D+UCUzxaHsnHhsQX7gG/AZ/wx+XHcQpy82dkrQMA/TnhGP56X4j+Ofw4ZdmajrhqcVxUnNW/8a+lLcKu8FSOlEaqwm84xiPNKLhz2H07DrdDUuN9tjuLXevIr87ExM8LPAQ+VVKNScwWf+FngFJMI/rxo1tx29SBjI1DYlDaG4cUtzrknX+LY7KC84jdV7I8XszxqPvR54PFIfV/PS8TcxEUg8Vh2rwCXZltabdUiNT4O/QXKZ35p4ZIQZJfFYkV2Nhnv0u9eOhrIzWLpDImk/z7gmhtRQYh+aw/FxwgUxDmPr9UpYQmMxXEzKoYuhyIjKTfHwL7wBm6ZdktxqiceOi7n4UIwfGIk5lJynUZp/W0sjcjPTseKYPZwBm1OK8UkZhL0C0xBRYZyASJJZk7y30YCcvoFEawQ8zNFYXyyREkJDEVYdSMOuU/b1JAhtaKo4gzmbtXEYmR0MG89tGTh8NBkjA1IR2+C4FntGPHag5Gi8mPTIa2sygk5dkefHhtsNF2EJy4DV4FwTOi7gwKQn0avP43jLt2tvezYGZ2VLyUl8F56HtIpGNMlezSIedRcRERojnjcjDxcqL5Nu5WdgNCXf2JEBa1mDcoxR+yxpCMXMS2yQvG5bm2uRmZqBqQEk2e6+1FrfviC0oiAhTvTIpNiAwWdqRFtI2kz4HQrNQLjs3agQZr818Ug2x8eKyWyG78hETOVtMcu50HoDpzNSMIa8BP2PIoIlR7lzDispNiidvycp/q0NN6uKsXEPJZGSZO2fZjQo0DSdIDLOguH7cpDX2AFNu0SoqSTsPcGPdUDrojghTrR/1P4cnJTnlO2nksmsKaFO9HUDctogOUxTVhqm0Rq8eAO3Ze9G4d5NFKYmOcRhZH0JMjbD9+fCEhEpkYX6sBQ99HgU7l3C1p3klRmKtw/nII3NDyX7KjmNZeEFmkQ3ZEvHtUysGkWJFB/HG345uGEQroHZTGWh7zC4mZ6GT5pWRaKuo98mMjd/wzD0cvHED7nOQ1VQ3M7s1S/j0V6PYPBMC6p0eOjb5Z85AhwBjgBHgCPAETBG4OEQjyOWYuBIVfzDkUTgLcPwRemat5S2yymYNZriJS4Di5c4cORSDBrrj3FjtcSj0JSL78fZ26R6JHMeoPSzGl/H2UnNSwcC4K6KwSjGXhxhP979gwgl1qRwswDrJ5ONdrslOwLxzRc/ob9Kak2w3StLwIw3pDFpxin39/ftZQq690s8FvkOA2WUdjGZYBqzG1d0XjqCUASztxSz0dXNTRW30RWuFLPR1A9jd5UppIog3EG+/+ty/EeDGIhu/8AeVVwmRgh2V2pNAyYvuJyVnnB7bio+Hd0PT85OwnUHu+sQPeMpu71ifEkXTexJj4Vawk+Kw0gxGiUZtD02pasDNrWxs+HeywgXwsgDC+WEOKK9YvxIalOHB9nk5oHFmc3KPKo3Opsbuyego3SatdFRuBmrKOvz0hApqUZ7mZTwZPwA+Exwl6TZRER++H8IWvmKJlEK3RyfP/w+5lN26AmyjHsCEZHe2Lj+cyz/lYhHGovkHUkZsFVycrKFbBv/YMRjvZhwh/BQtT1RlqpPmYaYc/Z4ckJ9LAI/lnGjOhSncZwKy4l/wW514praeATPHCTZzfCm4+S/5RvTlCzz90c8duACzdE4HTYT3bF8Y4rSNlsPrKQHzqrwmXB3M8H1qamwVtpJFzFW3Q5VAgbxgZhidbHvorBK9mAU5b1BcvIKZb9UT5JjhmFm6hUlhhq9HDqdGC/Hf2TtqcsE7GcvMIR7yI2PFYkSMXYfiyXH5H16j70eEo/0QB1piVRiTtrHZ8UQlZcmYfZ78XgUr3vxcSK5pcZEkjxaMepAHopVSVAUclWVVGMIeScdSsVH+uQtwg0kh0aKBIi6bYrTOWFXNIbriEfJFnkuHRLpWDAt1Z5dVll3TSVYtlWSZ6rx9vKV5l3xclWR1exYVjKvyXeiK8QkSSyWpdpmFqOQshXPSqsVySB2PCuv5qbhVcq2rFtHbD+VPSEeqb5wW8rwTm3q7RlCXsPy2lb3IVwNx4eP0O8o/b2O7d30VlO3od5m8lItvvI5SeP1T0bIJXuSDKH9KsIOR4jnmdExXluPi96R4vjuVoDkvGKWatX5zqTXD0I8iu3fvABfMTu7AX5yQhexnnAPOeSp+RsTj5LN57GBMnoTtnpMfCMwJ8OeBEVNDqrXh6dvBGZYk/GWzuNRaC7EfEoYpWqbsPYKiMeUQC3x2CV+m6SEOFRP/e/u+ROYJEvn1fazeWdermqyWn08hRCyHJQymrPkMI2ZyWImaU17lODIV1p/Fp08ntojbPIpriNdS3Q4sP566vFIHtD2DO/a+aFrhN4Tt+OiBR893QumXoPweVSVJnkNs0Fftp9ZD283E/pNj3K4B9XXZZ+FjnxsGNYLpuEbOlUdCMJp/PSsdD9qMj2KWXH2mLesLV5yBDgCHAGOAEeAI9A1Ag9IPN5CaVIUvv/CFyNf/16KfzhyOYZN3IZVEaW4rpNGEIlSfywSn0xYgYHDl2DgK6sx4cejKLh2SUzqopZasziNhjEVxViLWm9KSYrtJAYj1VfFmiRY2mtOYsNna/DnkWo7rkvxH3XEoxgnp74Au7/3x6tsnKp4j29sfXDiseNyFGZ79IFrr2cx03JBIRDZFBJ2jWXxCJjzNryf7gc3ObZhr8f+hBen/AjL6asOnph0E3klYzM+fmUQ+rlp4z26uLyFXdX2mIb3QzySbR2lW/Fqb3pY88IKXcxC2k9xC6M+frzTWJOD5msTpxDerVcysPnjVzCon5t4rEuvx/D8lHWIL7+pSc5DnkaNhaFY9q/n8EQfV00/Li6DMD/DTiYKHY0oi/fV4OH6yFMYbtAuw10co2ZuzmvmhjwSD342AHMpa/INO57q44X2QljnDMS896cjXg7S3n79FCJXjsZ35Cn43lD8+OMOnK5vR6lBhmbKZH425HP8MIVk2IOw8IvZiMipQ5sTWTDrm2WbVkug2T5WdldqTfVFO474YM3Hg0WJt2j392uReCobEZTx2Ulyme7EeCS5XF7oD/D7fBjmT5BiMn7z71exft1OERdaE+wfG5dGyj7OHsdx7riXoE5cQ8e1Xy/A0a3T8eNHku3qY5f5pqBRbv9+iEcJmzrkHfgKaz8ZImLD2l/me1Rpm9mvLmlc1/PWY8xrvihQkVVKrEC1lE69bbYn26Brw7WKIgRaEzB2i5TRmuR4Q/0jMSHkOKylzQbXhjZcPnMS83ZGigSkRr6nJ7da6xAXk4gx/lZR5jdkUySmWHORVnYWS7boPPZ6SDxK2N0Us3HPDIzAMDGRhhXDt8ZjcWoFGlRxyH4vxKNos9CCoqxMGNqs84ghgrkiOwNTtoRiCHm1bU3AuhM1uFF3FvM2a/ET275dhX1HYjFKxCIUo3akYFdxMy5lp2CUbm4kWxzncqh/DL6IK0KZE0/3mxcKsGZfNF72k+ZUnH+5beHKacz0d8wuTX2xf0yaLsZkvEMen224fPYUVqnbpMQhu9Owt9hx/Snt3L2ADYHkURuNdUUt7GtN2VPikQ4WWq8hPTEFk+UM7x5mwjEZfjk1ht5T9DtSHjwGvV1c4OLSF5/GOfeA0hjn5INgu4X87Gws3BONv8rnjWjDtlh8EXsWBde12ZdFmztu4kxGOj4KDIe3XlK75RhOsGsUZZ+/dBard0dJ5668ppanlCE/i7zz7t/jkQ3H1lKP5MSjeI9dT8yh+MuOZGzKbVB+/34vHo+Kzbcv40hYAt7eHCrLkcPw+t4MHC5pdiCvhI4bOJ6QiLdobmhswanYV9KM5uLjeFtHuJG3Z1NxLr4Okq6tnhsjMMGSh9zrRPY5Eo9kT3fwY3ZTSevv0umT+DpYdz0W4yh2oJIym5vD8HWWNiEda4N+RxoyKUN5KMbGXRSTxwgtDTieolpPZgu8N0dhevgZ5BqsP9YWy4btofISZfskW2+K4+5ujEfpGBtuXy7BtkOxyvlAOI4LyUbiFW1IBKH5LLZPnwhz1nXDJDhqW9g2/V6S3NrUawyCK+yEPttvVF4+PAn9TG54e1eVw++jvn7z0bl4ykTXBhMmHWnU7+afOQIcAY4AR4AjwBHoBgIPRDx2o31ehSPAEeAIcATuAwGKc6lJwqD7rCFj5QQNDvWdJG4gc+h44z6ISLITvayupm25XfF4h7pkt2MbnUFgZIszG/TfS/ZJfar7MLJNvV+9rfSvG4u6jn5bOUY1L0a20XH0vR0/CRvleIM+pay9bP7t9Z3hqrTVDVuYPdo+7HOmtGVgF8NAqaOSQIrfUWxHlQ3O7GXt2GoLMDfAghf25aHMSaIlapfapFL/r7M5ZsfZ7el8TQoXgvFGbyIXnseGQi0Zou+3O5+N8TAeB2tPPEaDH8NTO3bHttVrRNuH0qYBfqxfo5KOs2NnXx/qutIacsTVqE+j79Rt6bdZ/1R29x87RrG7i+ufUk++XrHj9X3SZ821UrZJHL8T+1hb+j6cjcWhD3EdSGNnbVHp7B+rY1PVMWqzszao7RuFx/CO2Yq/R5eL3sxG/bF51+9jNjjrw+Gao7JV3ZZot5N96nrq7fYCX7zYy4R+kw6iUvfyR12Ptkk1MespV/TyXo3cO84xZccJzUmY/ThdGx7BzFj7y2y2n5ccAY4AR4AjwBHgCHSNACceu8aI1+AIcAQ4AhwBjgBH4CEhIFB8t9JT8NkWCk9fChvQ/dhsD8kEpRnyGL5dfQI7pw1GL5ML3EZvxTmdWkOpzDc4Av+hCAitN1GWcwzv+clSbFUonj/CkCk7/MlVz6O3qTeeX3USN50Ql0LHRRz64Am49vLG6k5iO7IxtzaXI/Zbb/Qmj8fHPkXs9a6JSnYsLzkCHAGOAEeAI8ARsCPAiUc7FnyLI8AR4AhwBDgCHIFfCAGSRAaoYpeSfHRGij3+6C/UrdNmBaESe999BG6urnCl+I6Pj8HW07cMvSudNsJ3cAT+wAgIzfn4QondKyXdWVfwxzwHhPYKHJz0GFxNT2CqxVFCLXTUImmBN/qYHsMHhyodJPjqaaRs2YcnPQY3N/na4OaNldmU8IsTj2qc+DZHgCPAEeAIcAS6iwAnHruLFK/HEeAIcAQ4AhwBjsB9I6DELu0i5uJ9d9DDA4l43POP3ujz+HMYs+Awim5oZco9bI5X5wj84RAQms/gczGmqPOYmH+kQRH5eGjaGPxwvNGBJKQkPFkrXsNH+8txRxUmwmh8RDxS3Ei3fk9j1Ed+OFp5x6E9o+P4dxwBjgBHgCPAEeAIGCPAiUdjXPi3HAGOAEeAI8AR4AhwBDgCHAGOAEeAI8AR4AhwBDgCHAGOwAMgwInHBwCPH8oR4AhwBDgCHAGOAEeAI8AR4AhwBDgCHAGOAEeAI8AR4AgYI8CJR2Nc+LccAY4AR4AjwBHgCHAEOAIcAY4AR4AjwBHgCHAEOAIcAY7AAyDAiccHAI8fyhHgCHAEOAIcAY4AR4AjwBHgCHAEOAIcAY4AR4AjwBHgCBgjwIlHY1z4txwBjgBHgCPAEeAIcAQ4AhwBjgBHgCPAEeAIcAQ4AhwBjsADIMCJxwcAjx/KEeAIcAQ4AhwBjgBHgCPAEeAIcAQ4AhwBjgBHgCPAEeAIGCPAiUdjXPi3HAGOAEeAI8AR4AhwBDgCHAGOAEeAI8AR4AhwBDgCHAGOwAMgwInHBwCPH8oR4AhwBDgCHAGOAEeAI8AR4AhwBDgCHAGOAEeAI8AR4AgYI/CHIB6FplP46f0VeOaNAGzJu208Ev7t7x4BQahD/JeD0af3U5i89xzuCcLv3mZu4O8bAaE+EcGfDcY306Yjurjl923s79A6oaEIi7eFwjsgGQcq236HFnKTOAK/PwSE6jOYHRCKYVtTEFln+/0ZyC3iCDwgAoLQjtRdyZAAACAASURBVNKgsXh31UlcM7hXu57kg9Ezrahs4/dxDwg1P5wjwBHgCHAEOAL/FQg8EPEoCFew97NlcP8gAkUGNyYPC8Gm9AN4ZcRSDBixFG9uO2fYrNCUi+/HLYP7S/a/4YsyUdcDu5TxjNmFmFp+M2UI9AN8KdRFYfoTJphMJpjG7MaVHszNA3T7hzmUiNn0NS/CZ+L7iK7sev01JM3D0onu2HC48g8zxodtaEPiXCwZPwDzxg/A+kP/vTjcL6412Sl42WyBp9mCaanX7reZ/9jjhIZC+ARY4bX3FC7z69V/7Dz3dGAVaQkYJp83X2Xd7enh//H1hYJM/MXXinFxVWjl580fbr5F0nH/JPzJrRfcv4zHVd0civv3TcTTrq54+vN4Q2LyDzdobjBHgCPAEeAIcAQ4Ar8oAg9IPFZj9ydL0H9SOAp1NyYP02qhKQ+rJn6PgaP9sTnvlmHTQlMOlo5dgv7Dlyp/3t9loLYHdhHxKI7njZ2Iruma+DE05Bf+UmirQeaWGXjN62n06+0GN7e+eHLkh1gdlo9rtt+nzQwSItbiZrvDzfVxTNxzDnd7MDesjd97KdjKELXgz/CZ6A6fj79B5tXuzwnhk/bTMMwdNxFRF7s+rj7xaywe1x/rD10UYRHqYxH4sbvUN/Xv7G/Bblz6D8FeqE1A8Ex3+Hz4f4j6jTweBeEy0jZOxIovlyP7etfz1p01LAiXsHmHFV6+zv6isCr/NgShAYf3h8PLV/ps1LYg3EN2VDS8fCOxOO+mpgp5PC7casWQzUnYf7FVs++X/iAIjYg+HOEwxhcCojApJBsJVXch/MbrVGg4i3mbLfDYk/ernjNCTSGW7Y7ChMhzaOoGBoKtGsG7wyQst6QhqfnhrMNfeg38Vu0Lt4uxaLMVXn5HEXnDGCtBqEbgzlB4+SXhcIPWq1G4fAaf+VvgFZCCiNqOX3UYglCPA/vkuVZdH0YERGHq4Ryk1f6657HR4Il4HGW2YGxs5a9KPDbkH8fMwAh8200yWGjIxxf+0jV22IEzqHFyDyV0NCMnIx0zAiMxaiPVD8WowASsSqvApXvG68cIlz/Kd+1n1sLbzYSnZsU5kI5sDILQhpItr6K3a2+8urkIbd24TrFjeckR4AhwBDgCHAGOwH8fAn8I4pGmRbDZYLPZOn0QZXVs1yQS8j+NeBTqjmLRi4/AlTwGxT8XuLjI266u+MeeK7/7FSwIXc/j734QnRjYURaM9ZOHwnftp1g23hvb4us6qa3d9cDEY20Mtn/UH/PGdf4395udvyqJoh3lw/1ExJR03gudXhsebq/a1gShGNY5AzDvkyXIug/isfHUz3j3LT+cVT3AEvHoH2iBh2+o8Z85Ej/kS2EnKtITMdxswTsxFbhl8PAn3L2ANdss8NiagXQdyfJb4kfEY9ThcIfxkfcl/Q3ZGI1VZ278ZvNKs/ybEY/nszHWbMGb4d0jHm0VOXh/Yzg+tSTjr+YIzD95Q7tI+ScNAoLQgnhLGDzM4ViYc0ezj30QLpzEhI0WeIUUoFF3Xv2250099u91vC7Yz5tYbCr5bb0wfyvikXmifpXVvbAbNceSMdycgPmWSHiZE3FARzDTWhBuV2Dzbnq5I12XCGcP+Rrl6WvFP3+nXp2CcB25az/A5OACtOjWL1vjRqXQno1l7q4wPTkLcV28OKWXbnvf7QVX0yhsLvvPI2CN8OHfcQQ4AhwBjgBHgCNwfwj8YYjHngyPeT/+JxGPRNgV+g6Hm8kNT38QhOzLN9AukrHtuFVTiNi14zDjYE1PYOJ1HzICNEele96Gz7+/RGppMoKnD8Ci1dFo6OZN/wMTjwoJJ5G7ttpokYic+00wqmTinsh7mxOvjocMx39NcyLx+EV/zJ3RM+KR5GqXo2ZhcC8TTE9OgaVS51WlzNl1RBJBZ07A3lp5blUvYYTq05ixyQLPwOM4ecfx4a+l8BjeMlvwejdJrF9r4hTikQjRZjauVjTVVOBQaIwkZd2WifSbjmP61Wz8rTwez2fjnW7OGV138uNj4LU5BbGVxVgcYMHLR4q6fd35tbD8vfVzMycVI8wWjLQUodngGl2UFIuhZiu+yrr1m5LfetzI41EkHoOycPouO2/u4drlcuwKiYIXkWI7snCm9Tc8b34jj8eK1AR4my2Yc7xr4lH0HN0bCs+9p1B59jje8rVgRtp12HRroSItUbwWjdqTjcTKm2iRr8stzdVITkzBF4m/Tzm50F6KoLcegatrbwxblN5tOXT1nn/A1eSGSUcaurXuhXNbMMpkQq8PrE69I/VrmH/mCHAEOAIcAY4AR+C/D4GHRjwW3KxAjHkrXn39e7i/tBzek4KwJeuq5ibu0oEAuL9kxuYi7Q0xi8+oj8ko1bfHbDQ61mjKukM8CkIHrubEY+GnG/DCX6Q+nhn9I557eQn6G0ithZsViA8IwttjVohxJJ8ZvQaTVqegoEkrs1LiRH4QgULhFsrijuDDcSvxzEvLMHiMP5aFlxt6JRmNQ/0dkVJR05+AyWUQ5mc0q3eJ26IHhu6GmR5Im4vCsWLCc3i8D8mye+Mxj7FYGXfewQahyBfPu7nh7T1XYGsuguXbNzCoX29Ryj3o3ZVIqLwn9WMrxfbX+8Kt9xvYes4xGYXQmIyv3N3gNmwlcm9L88zadnMjG6Q/6qezf4qk3ONx9KFjej8Gj7ErEXfe8SGwrSYTW2a8Ktvrhr5PjsSMnXmG0nPBdhV5IUsw4Tl7u+6jZmDrscsPnOxGsBXB+qU75i87ghpZNj3vw6+QWq9d7zRucW4KI3Hw+79j6ZRnJFn0+95Y9L67odS6o6kQKdtmYNXHQ/CNKKH2wKIPPeCjklrr8RRkD8jOPBylOJF/we6MRhCOoSvewKLJ7vCZNBQ//rgLBU1a29tqshEfoLJj0lAs+2oWDiWXadYUkXGhX7lj+cY0NKjbneiBJV/6IL74psNDjXD7PI7tnYt1n8hjfP8FrFy0AokFTQ51y/a+o5OSdx4XU2irRc4BbdurVwXjTL3u/C3egtUTCY961GVtwebPvTGf8H7/BaxeewilMglG56MUj5Mk7QMxb3x/zB0/QGcTjT/FUCpLpNupn9/CI24m9PL8FkfrnHtzKwSdOQH7DGLPCsJVWA6Q91Y0NhRrPZ0kmXUUPM3RWF9kfxgvIKJKJdP08k3A/jrtXKvXk9B2HelJKXh/axi86Ti/CEw4nIfcRjtZSgTn332tmN5JrMiaEyl41Tccc47TnMoej0aemO0XsZE8PmnMsl3kBRpA8nOKt2i7hYJjGfhQtueFrYnYkFOvkXXSOdZ4vgBr90djlJ8kp3whIBqfxhThnAFBK1CbWccwa0ckRohySite8A/HC75aqbXGDt01Vxqfsey9tf4cAg/HY8zmUBF7b/8ozCBb2HWSxZMU54V5V+ml9o5tCzZJlv9CSD5qZUw9A1IR1+g4n4JwF+W5J+Czi40xDH8JTMTq45eUdUq4FSfH4wXfUHyYdEWDqXTtuomk0Eh4+cYo6004fwL/FOX+N1CdfwJfBIZjGFsn1jMolseoWVNCO6rzT8Jnd5Q8P6EYtT0RG07W4KYOV/VxD2ub5NaLN1vg6Z+KOB25TTLr7cGhDvsyI/ShAY4i0mAtMRs7rlfgUFgi3vSX5nzY5mjMji9Flcq7uSgpDsN8Y+Fn8HvK2pH6jUfwpQ5oiEcduUhk03J/Om+OIkK2S6g+hRmb5HiLrfVIiGb2hGJUcBrC5N921hfdGzUUn8byfVGyrNiKEQExDnYr9anN2GRM2hqOoeLaDcWozWEYopNaa+zQzW9mJOFqt5m1TWVrdTH8QuLwuhMMWTxJup4NYV6Joh3qc8exbbJnup8FU5Jq0dZ+DqsCLPDcdwpXdC/mMiPCRQ9sIzJTfd9F1zNriBT2Ym2ho9xd6KiAb2AovDanIl5eb0RqDqdx32hGTmoq3tsSJmIorpOkCuWcVONBEueK3Cx8sVMt+07G5tNXHcLXCG2VsM4chN6urvjThL0o7iIRjCBkY9kTrjB5rMEZHQ5qG9TbgtCMyGm94Wrywrp8x2uOum515Kfw6NsHz36V0G0iVH083+YIcAQ4AhwBjgBH4I+LwMMhHt/0w6T3l2OgnACG4ixSIpgBfw3ArjL7g33V/s3oP3wDNhVqb06cEYVSfXvMRqNjjaB31h6rSw/jpQcDMXzUMsnOEVJsSNFm2tYRj0LTaWycvtJxfCOWYdA7uxGrIgOUOJETD2Lr+p8xeKSMxfAlUl+j1mJpSiMzpdslPQyc/XkYXF1MePQffsi5Zn/gd9ZI3dFFGP6Iq4EsuxeeW3oMN1Q3/0LRz3jOxQVv/LAFswfTTaQk4WZS7l4vrkGe/PB4+fBE9DO54bUt5xzi+jQmf4mnTa4YHVCmPLCytv/nf/4H7O+tXdXOzIZw+zR8X1NJyl1c4CLb4/qPPZqkNHdLdmHCk73kMZrE9kUZuqsrHp90ABWqG216MEj55ln0cpXl6ap2TYMXIlMnQ3VqoJMdHcUBWD1xMDaGVYqEuxiD0UBuTQ/2NUkL8cMkIqykxCgkjybiij7rYzx2VMci+LNn4KOuO85+HIvxqDerO8SjFCfyJWzfuQY//3uQbA+zZSAWrrCiWl4nIpn45UCtHcymCcOxPaFWIQiZF+C8aW/gx2mqdmW7fWYu1cRDFGzliFn4Z8O2feY7xqQs2/2WRlKux0yNhdBSjJjvX8A3zFYF64Hw+XA6Ys5JpDodIxRvxqpxA7Dk8zew5D07xtLcDBSJVIq5x7xTu5K1L/M96ijTbL+MqDme6OtqwhPvBqGgRXs9VNsu2sQIOifEI9WpzEwSvbf0cmtFZh14DCdV5E9BfLRW4ix6UxrbIdytxt79ERjK5IWK1JBiQyYj5FK7aLJQmYspGy0YE1muubaox1N2NB7e5hj4llL8xk6IRyYP903EQZm4V+Tnu48hyBoFb0YyMLs2xmKjTLzSOXYpOwV/22gVSQNRHukbKm9bMTQwE2kqUp1eSETr2iSZO5OvqmM8KnYYxH2kZD2jVDJ4NvZbJScwZZOxLR/LRK0i63Ymr6fvDdq2lWfjn75h+DzjmnjdkWxwlFsTJiUpCRiuws0uGdUSz0KNFMPQc+dJB7KC7PQJsGDI7pMolokvQfbQfDUoBi9vZKQpk6Ra8VaEVjJOBGhufHy3bGEYPuyS5NaJoUQqOcqtmcx6hKVIQ/4QCaUJf2BORoTqvFLbKFQXwGd7qEjA6defd3C24pFYdzwZL5hD4ZOtfWnA2iJiJyIkDB7+aUhsoWuPyuNRTzzeLsZCIh59UxDFiMfLp/DxRgvGhp/Ayh1hkkekcg5bMCQgHUm3pHOf7jPK0xIxytd4rZLduSqiVbhRhrWqNjUyZD3xyOwwiPso4mpORrgOy6YzmXjHyTn8tRzHkcm6NfOiP4cM2pZk2bHYVtEOGndGRAQ8DeTWzItyaHAmUrqIn3kjN02MbTk6otxB3twhJtyx4PXI88o+ssHbHI63gyIdr2fmcMzLatK8vBeEW0iPjNbUtZ/DjuQqrSFBuIacnygWoyt6D1uE9GvG13mxbvZSPOFqwqCVecpvOVuHnZVtSXPQ22TCSP8yp9UEoRzbXmb3o29gR5VzO5w2wndwBDgCHAGOAEeAI/CHReDhEI9EMv7lZyw8UojqW23ouF2NuB/XiUTdq+Z85Sarp8QjPShJ0lAbKvcZk5ZGyHdJPF46ik9GL4X7aD+sSaxE0z3qpwN3rhbD/yMt8SgIt5GzyQz3ESvwztp0FNS2ija1XbuARP/NGDJiGd7YZI+hoxCPhMlLK/H2D0k4Rcd03EDBnq0YMmIpXvoxR/MwYzQGo++EW3nwfa0f3EwmuPYdhNe/CkJqebPmxpQdJzSm4Jtn3WDq9xbWJJ1DYzuN8R7qiyKw6MU+MLm9rvFYZOQgkXZuT7yGZZEl4jHtjSex/pU+MJmG4aczkseUcD0Jc54ywfTyJpRpiD3ZK7PvRByqthOj5BXA5tFWKBGczohHRg7SGPu9Mh+H8mrQ0mGD7V4zLmQGY7bPYdQwIsx2DjvGPAKTmwdm7s9DTUsHbLZ23Ko6joDJT8HN9DS+TLKTvMLVOHz6pAmm4atxsqEFHSSZar+FmsJYrJ29DscfICEDrVVRZj1hEqIuSGMXLlmxeeoALPjeoklyJFw/il2fDMC89/6G4OgC1N8mu21obSpC3ApvDfFIeGT5/i/mjR+ElT9bUVx7R7L7XhNKQ2dh0QN6PErEo0SwffPJLERkV+NOuw2tF8Ox/eOBmPf+DCRWs4fSYoQtmY6DkdmovMrsqEOh5XMsnSCNU5kbintI8mMi+ybROM/ieqsNrfWZOPT1M5g7/hXsPt7EliuE0u1YM3EAFq44iPLmNmm93GvCxaw92GE+5JBRWH1tKN39lgYzpVHZs7TiyFQsGO+O5av240y1ZHfbrYvIOzALSycOwJJ1cYr3hUQ89hcJ2G/+30IkFV5Dm+0eGrJ+xppJ/TFv5vfIkQkruw1F0lhJan3Vfs0S17yK3Ce7hLvFCHr3MbiZesHz26Oo64ZXiULQdUI8KkSRTm7NZNZjYy7itsoWu+0k042WZdyOD4JUTySrzFaMOXIaOQ33xPXXdrsBmUnJeNXXgr+GFov4CdcK8a1K5ssS33jvzkFJGxEmNpyOjYanTCYq41J5PJL8vPlyOfZZY/GC2YIXDp7BJRkjhfAjotE3AlOjzqKouR229hvIiosT5ZD/jKnEHSKGRe9BqheFxccvoe4unWOtaLpUjDXkyWa24r14qS7Ny7W8NIw2WzA0KB0R55twh645VP/CKcwmIkdFMip2qL5ja86IeBSaS7F8GxE5YZgcfkbB8O6NWqSnpGF5ppRN3B430AYiEyWpdRkaFcm9tLaoHvtHmIoya98E7K2RrzsyaTg8pEB73RGqsW2HFZ6bj+JI1R20ie0SJuewx5oOi8ozWxBuINEaYehFW5WZjJHmMMw5LhGdZAsjHol48iYML9xEm60VtfnHxTiJntszcVwmt6j+tVPpeJMIUP84/JBRgSvK/Djawsb6S5Q3ZaJIL7eWZNZhWJyrJQPV500GkZBOiEda2xGHwjHEHI7PkspRcUu6xrfUXUSIheTQofgso1H87RbOHsNfzHaZL0t8MybqgujBJgi12LsnFB47spHfakw8khdcU0Upth+KEl8QqAlTQSb8RBLdLxoLM6rQQBLtu9XYtS9MJF4X58mKBvKO9KPzJharcmtwTZRy38O1igIsEtdwKD5OqUO7+PKlAydjpLG8GpKLXPab2nYHtSfSxBch6uQyzA71d2xOjYhHoaEAX2+m8yYc06LPIr9RuveSJM5H8dMJaW7U9xcXFKn1Hfs9h7jOCTf1eVOPAySzJrm6TN6ytTA1WRofs01or8GB/TSXFHc2HO8dPoHY8pvKi1VWj0qh/QJ+Jpx0XrREcieFRmCIbzx2VEgvaqi+RDwSUR8KwvA0jbHtDvKTJMn40MNnNdftmqyjGEXnzeYErM+W59FG81OKbYcyEaMihTV2Ca2otE7DU64muP5pGqyVjmoVqn8xaLQos56TZL9/U7fjbFu4EYYpri4wTbYYhi1gx5WHTIZ7Lzf8aY7zpDWsLi85AhwBjgBHgCPAEfjPQuDhEI+jtyDwjFY6KdRn4us3lsB9aiSK5Ru+nhKPaqidHauuw7Y7Ix7p5vPi/gC4j/gBMyzVuptRx6zWwp1CbJi8FIP+L9rR8+PeOWyeulQzRoV4HLUe30VVaeS7wuUETB25BMO+y0Sd6iaY2d2dUmhvRGHoMrw7qC/cTK5i/J7Hhk13kAo3p/nA3dQXE0OqNcQkjf/OiWV41uSGsfvtMSEZ8dj3xe+RUkceAPab9BK/5+Hq8iwWZEoJCyhoedKcp+BiGoY1MhlJtgt1UZj+hAmPz4xViBz9mFg/TonHumixDdMgH6Rc1cpPySa1XcL5ILzW2wSvFTkama9oS+V+/OsREzyWZCuyPaElBys9XeHy6KtYFmuXm+vb1dvcnc9CSy5CvnCHz/yduKgQJVVIWDpEIu+u2PFsSJyLJeMHYs3eIo00innRqb33hPoYbJ82AD5zt6D0rr0Nskmf1VpvZ/c9Hvtj8Yr9KG2y401eNZlrh2Pu+PcQVWnv1wgr1s+8b3cpSWuYx+PcKWNxMKMOHar1VHF4Er4Z97/YlaEihUWStj98pn+CyJx6pb5Rf/pxkvejGjP1fkE4j+gFgzFv1o/I0xHLglCJeJofNZkoejz2x3dz1yG7Xo1HOaLnP4O5nyzReGpSX8pYu4jx2N6QiAVedN4+gXe3nVbWpdpeo22FoOuMeDSQW9tl1pKHoVHb9J3o/ejE41EQarBrdyg8A4/hhM4bidZICBEXMqlE8tStRGztyROJYuYZ5+mbgH01dO6Sh2OEkuTGPi4LhuikkfSQ77XlKCxVdsmiQvj5xWLtqUaNt7VwgaS+9mQsFzMSMcJsxaTES8qLLxorraf2S6fxqb8FzJuP2eXpG4+gijbtNcYgxqNiRzeJRyIjX6Z4jWGlaNARzc7WNyPyuorLKdytwM+BVgzZk4dK5bojz8umZISpkkMoknzfSHyRclFji5EddwqP4+++FrwTbU9aRGTyIZpz3Xpg9o7YmYX06+rzRlo/HtsylFidCt7mSCw/5fjizMgWZ2v3Qb83klvbZdaSh6GzPhhZZuTxKFwvwFebLBAJQP2c3yrCd/4WMFJJqDktkn1jY6VYgcwzjkgxitNInmKrKLN6SIF4zVA8HokI0503RC56bUtDXJ1dacIIP4+tqYi6ck9zP1CZLsUv/Er2HiTC1dtsxYzUBpFcZGOnOWk7fxKTyJtVliMLHeVYFWCF59ZMHNf9NjEvRDXJyOxQf8faZ1iqPR4lj0QLxsZU4KYeQ929AGuHeScayaJZHSqFi7l4n7xAVd6XtBZoXjx356C83f6bJ9YX7uFCThY+D5Qk5IT7iO3JMOfUaK4vVLc4OQ5DzeH4TpW0iNomT9QRR7QetBLxaMVboUW4rOpTuFaAOUQAhxQo9zY07yJZao6BubhFM4+Sjdr7I/pO/Y/m8Gr6Ynj3doVr79FYdVJ64aGuk+rTByaXF7GpVDt+dR2jbUHIwpLHTXAZ6Y8y1W+9vi7ZYPRCTl+Pf+YIcAQ4AhwBjgBH4D8PgYdDPE4KR6HuZkOwVSF4+hIMmByOInmfM/KwM6KQQe7sWLZfXXbWHsmW0levxYCRZmzRx5oUDIjHywn490skk16GgS+p401K2wNGLMGAMbsRp8gBHdtgtj2smy6pHfJejIXvR97o52aCyfUxjNtzTiE6SzYNhxtlvHa1x1Vk8RXdSGrsoiPlZKn1oPmZDm+smZcH9cv+tZxcCU9XE4b9dEa58b58ZBIeNT2J2UnXWTWHskviscgMb5MLBi/OcirXZI1ejfsUT5pcYDK5KrEj7WMkSY8L3MbuVzwk6bhbeb54rZ8bTCQ7eswDb8xah7BTdQpurO2elndPbcCPEyUysVWF0+WI6fhuvAf8I+0xLcv2/B3zxr2C3cfsHn/UnyHxWByAVeP7Y7lfhsO8PEzi0UiubTTvt88nIfSniVjx4WBVPEM5xqEqW7ZCxn2zE1UqPGicTN69K8O+TsjTrTphAZa/NwA+E9yxYNrb8PPfieOljQoJ6WxOOiUeryYg6OMBhvEXfSh2I0nbJ05BjCz7Yh6PejyUuZnxAMRjfTy+HdwbJpe+GL3xtPJA6Wxc7Hs7QWcc45HVY3JrxeuPyZWD7ZJYVldddko8Xi/C/ABJMqsnOcSYaiTZ9E1ESD0jFsPBSKamU+kYHZyMrwJD8XHqVTASk3kPKuNSyyLNFOcvHouTy1B+y05gkb0K4afykGTj0F9bKYalpyzpZnVYqbQjk2H0eXOQBR7bMnFMH+vvIRCPki1RWHXWOHsys0tdMiKvK+Kxpeg43va1YoouFqOU6TwMX6i8iqn99tqz+G5rKCgbrxinc38m9p6qQZOO2KG6Qkc1duwMhWdAGhJl0l7Knu3YH7P3o9Sr6mEYyuk7w1tz8K/wQS23Vrz+5GzWoyPOKb9tRqYwssyQeDx7TPQGJs9abSxV6bPofbgjGwWiJ3A5VhHhJZNMubFR+NvBo5jqFyPGfWQkJiPJFOJRf94EJuCH1AuovKs7b2SPR0Zcqseiv8bTmDzN8dghh0/Q1pXs9GCEqBwj0evwWYdr2cMgHiVbYuBfbuydp7aNbXeXeCxJjoO3ORI/nVW/2GCZzqVYmqxNVtI1RrC140ZlKXaGxmEkeR76huK9OJ03eX0+PvezYOj+M6iRzyspe7a2P2pXIh5jsLFUO0aRbCZPa5lsproKAS17vjK7elJey/0Jr/YywcXtZaw8oT1XqZ2kOW73STyWY8soE1xe3IRS3e99T+zjdTkCHAGOAEeAI8AR+M9F4JcjHtvKEfDhEvRXkZLOyMPOiEIGvbNj2X512Vl7RDymrVqD/qP8EVxmJ9LoeMVbURXjUbgUj/flGJAUu9Lwb8wuxCoJEJwTj2obH8a2eCMstKPx5Hq80scEU6+3seeSNKYiszdMLi5KTEUWW1Fdqsk9RggaEY9GtgodJdj6ai+YnvtBTCIjCJdxZNKjMHmtQI5KUqc/lvXj1ONRJkC9V58WJZP649Wf66Kn44kuxuj67j4N8SgSFPeqkWf1w5y3PfBoLxNcXd3Qd/iyTmMfqfvVb9PDa37Qm3J8woEqQs4dPhMGYN44rdxaIsr+hoO5tzRNKeTWuImIuijNIyPCVm7L0Uiu6MBfmnjUGAfg7tlAbPhAG5dSHeNQncRGTTxe0j2IGBGP1BfNTdv1UmQdWYOAuSOxYOJA+Ex4BkuW7UFZJ3EQOyUeRY/R/pp4kGqbxdiaE97/VYhH8Xy9U4Tt/+gHV1NveC9IQo0uRpsecwkXORZiJx6PGMVZLwAAIABJREFUYj2ZJKOMtqfvCmAy6/cSHROEqPvplHiU4/l1Gj9NFYdRbEv0tLuH7KgojI0pR1p0NEYcPIPLMsHHyDSFeNRktXaUEzNbFcLQgHhkdVgpjYnit2kf6Gm/vh3lc9Bx5OnWmRJ3UeXdqNRXfcf6NZJaS7Z07nXKjmclI/IYVux7dUkerSdjouWYfVqCiyXZcJRbCxDab6I4Lw9rQ2Ix2o8ScljhHZCMA5V2Eob1I5HZEVicS4oGSjoTB2+/ZByp1Uoxmb0f6RILaeZYjqGr4Bd0HLk6vFm/v2bZnp8peqSODC0Rf3MkmXUkVuXbY78a2dMp8Shnde70vNFLp8nTroOS2hDeFxG8MxSTE6+gTSb45mTJoU7UMR6VrNadnDedEI/6cUljSsCBeu38Uj2FDJPlycyDcYS12OG36WERjx5OSFC93exzd4hHus8L3iXHb9V5jJKnNcVM1MutWfuspHOhpSJXTNpDLzjUiYEE4Y4YO3TIxiQcaiASuBHWg2HwpBdAqtA01JZCPJZpr1MK1nrikchIA49MZpezkl7sVYVPhzu9pH7yQxypuKfx7GbHJc12hct9eTyewRoPTjwyHHnJEeAIcAQ4AhwBjoAjAr8Y8dhWHIUJLy3Bn79IwkWZeJDIw9WYF29/00oPTxXRezH6pSXw/i5DE5NKbe7DIx7vIM9vA/qPWKfECGL93C2Jx7TXdDEem3KwdCyNIxEVulhbStxCm13iYkResvZ/qZKkYeEfPgYXk10OXRf1MR53eRwzY6/qYh1JDyh6uQsjBLtLPNJYLolJZp7DD7m3IVQdxLh+bpqkMkbjZf04JR4rD+Bfj7jA7ZVNKFFl/uysrVF+pbjXydwYHit6L1DsyGocXfYi+phMeH6N3XvT6Bhn3zGZtZ7Q0nymWImy3FqSGntjW3ydpsmO6mgETtdmtRbO78aGSf2xaHU0GlQEnmCrRtrakQ+c1bor8pIZKJKr20Zj3viBWL5OFWuScK+NxvaP+uNBiUd7X+RZYkPb9QLErnwRPuP/DP8o58mIOiUeWazJLzehpEW19nXrhUhB+seI3l/C41EZX1sVwj8fjD6urnjqXztR2NU6Z0lYuiIelXox8C27IRJ/onz4ovahltnByk6JR+ES/Cm7ND00i7FwjTFk+EnEWxy2XbiIzTui8EP+bdwpzMSbREaek5KSfHi0QYptx+ztBpEozg2zpRv1KYnNULMVU3WegNSO7fJpzPK3KPJkxRNTlwmayAVKUPNXg6zWIia6uIXCnWocDImEly4BjOR9aMXkxGpNaAWGv1HJiLxOiUdZZk3ec84ILk+d3Jr1JZLgFEO5/SbyU6VYnSN0MSGprtBUjMUBFogE5t0KmAOt+Iu1GFdV1yKxnpxcpnvEoyQF9/CldeJIdjIbf61SYBmN/dOQdFfOZr01E1k6+bDenk6JR5nsI6/J27prjfq+gbUptrU1E5kVpzDdn7IcCyhMjMVQIpnOZGKUORo/F0tYKR6PqviErB2jkhGEau85o3r0HXlbDjGHYpYcf1Jdr+PCSUzeaIFXSIEYo5o8MUU5sC4TtJgAJSJajDXJvDSpHWYHk5iztjtqi7B4OyVO0iaXEcdvDsWMtKsOsmJ2rL7sFvEoy6ydnTP0vZHcWt8XkXmpYRTn0wImVWd12ouO4y1fmcAU+wvFp+nXHcbRM+LxMrYFh8JjYyIO6Ih/1q9RSaFxcn/+h6iM6eW1AKkN9vtVff3yLaNgcumFL5O0L+X19fSfhRvhmOpmgsv0KMPYl/r6/DNHgCPAEeAIcAQ4Av99CDwc4vGfB5BYeR0tIgF3F/WF6Vgy+XsMGPEjvoypV1CtDQ2Ex/ClGDYvAQVNHRBa6nFibxBeGkWZn38d4pGMuZq4By8MXwqPj47gaHUbhI5mFMccwsTXKcu1jngUriNh6WoxUcyEDRkouHRDE/tIGZy8cb/Eo606BrMH94FbX0/Msl5wkP4KQgmCZ3yJoNQSXGmyv61uu1GNwqglGNnXBJe+H8DKPC8vH8bEfia4PTkWG46WoO6WoweD2nZGCPaEeGRJZp5dkInCg+PQ7xFtUhl1+2yb9eOUeOw4h6A3KJmNG9ynbkHquWsiFoLtDurOHIbPtxbFg5HFbDT1fh5zQnJRpcKF9acuhZJtmDxlNcJyq9Akkz1Cxx3UZq7Ci71cQONQZ/pmx3Y1N5LMegBWbjuJWw4Pme0oPzgR34z3gF9Ylehl0JK3AT9OGACfzxbgaNlNCLYWXD62Gb5y9md1vEIaY8jnAzFv4mjsiC3DLfK0qMqAdZGcpfmhJJfpDz3RxsbOSooPl7nuRcwdNxgb9uahsZ3IwRbUFSYgdPXfsXDigxGPDSkr4b9+B44XX8EtOdaV0NqE8ojZWDxuANYfqmSmOJSdE48tyA98Az7jn8GP6w7i9MXGTsmf+yMez0vxH8c/hw27MlHXDS8uehjMW/8a+pLk33sBUlSJPfQDVLzGuiAe6TiJ+LNgUmweVm6jzMM5KOnCq7Jz4vEeTkRHi2TEP61ncLLmVqf4dZRl4e/mSMyPy8R7W9OQ2CSAMmv/tC0MM8LT8d7GcMw/wWLFOs9qrceAPiuect0gHjsqckSSxHNjDFZkV6PhHj1st6Oh7AyW7qCEGvYs0PTySxqjFW+HnsW52wJsLQ1Ii09UMjQzebhkhxy30ByF77JqcFOw4XZNGfz3sszfkSLhysbQcTEXH4oJOyIxJ6kUJY2t4nXA1tKI3Mx0rDhmDznAjmEZwj39E7D1bJMh5pLMmmLgXTS87hQlUay5MMzOvCb2JzQUYdWBNOw6VY2a29LvgZSU5AzmbLYosTmZDdJY7yGbvCo3JSI4IxNvb4zD1vOOZCEjSrtHPHag5Gi8mAzIa2sygk5dkefHhtsNF2EJy4DV4HwQbA1IWTgMfXs/imHfxKPWQB6utr272/aMxpFYdTRLTIajzjzsrJ1OiUfyqiOZ+sZIfJVcjrLrlMXdOZlTnkLZ3pOxKSEBI/afxhW6lxIl3zFYHpGE4Wa7F+IvSTwSYSYm/dkUhw15tWgSY0y24UphHuZuJy/BMHyXc1taT/IYPcwRmJ16SYw/2dpwAXsPRcNbzjSvIR4ZUemfiF3nW0Brz94ueRpqicf2kiy8Q3LmjdH4Lu08ym9IL1A67lxFVkoK1srJZdTzUy9mCLeAMlAnXTbGXJJZS4mD7CQwe6FyDZaDYfAwx2HbRYp1XQ9LWCoCTlSiqtHeXsedZhSfysJ0fyuMvDLpZbA4/0FZCE2Ig/fWTKQbKEF6Rjx2IDdW8nD2DkzFgbN18vx04Fbteew9fAyxuuQyQns94nzoJZcJT/5rF4q6esmVtQSPm0x49sc8NaxdbrdnLsQTri54cVNpp+v8epIPPPr2Qj8vHyR0kl27yw55BY4AR4AjwBHgCHAE/nAIPBziccRSbfzDkUTgLcPwRemoUklLbJdTMGu0Nl7iwJFLMWisP8aN1RKPQlMuvh+niqk4UpI5DxjJvluNr+PspOalAwFwV8VgFGMvjmB1l8H9gwgl1qRwswDrJ5ONdrslOwLxzRc/ob9Kak0zeq8sATPekMZkFOfx79vLlIm/X+KxyHcYKKO0i8kE05jduKJ7SBGEIpi9SRbsGM/QlWI2mvph7M4y5QGV5D75/q/L8R8dj3Fzext7VAlPGCHYI+JRaMHJlZ5we24qPh3dD0/OTsJ1B7vrED3jKXsMRjG+pIsm9qTHQi3hJ8VhpBiNkgxaE7dRh01t7Gy496JYlkZj9MBCOSEOTZAgxo/UtenmBjHmpZsHFmc2K/Oo3uhsbuyegI7SadZGR+FmrKKsz0tDpKQb7WVSwpPxUjxDMdYgEZEf/h+CVr6iSZRCD8XnD7+P+ZQdegKTcRMR6Y2N6z/H8l+JeKSxSN6RlAGb2UFScia9fjDisV5OuEPxHUU8KP4i/ZFUfco0xJyzyx6F+lgEfqyqR3Eaxw1QHfcX7FYnrqmNR/DMQZLd+vYnumP5xjQly/z9EY8duEBzNE6Hjdh2itI2Ww+sFIRWVIXPFOVvrk9PhbXS/nKASLbNO+zyWSYBtMdZjMKq/NusKaVk0mCKPTbU14ppqZJ3oVKBzgMx43P326b6iyguoFmS5epj1o2JOKeMUagrwByKV2e24OUjhaKXLnlApYRGit+p4y4qhGo3iESyvyfEI13/cuKlTNdiPEOVpJLGMepAHopVHm0dFTI5qBrjELFeGuZs1We1thNn6rYpM+3Y3XEYpfN4pGtETnw8RhCJompfjJHpa8E0nTxZHGvHFTGpD3lTqfvw8pXmvTuJgzrOZWOsrwXDRZk7ZfqWPE7ta8i+BohQmpVWa+it1HFBInFJvu21J09JnqVZUz3weBTHd7sCAbulRB3a8f1/9r4EKIprbfub6pqamqIoiqIsirLEJRTR4hqNhRdFP71evXr16qdXItGoV/3VGKNGjWI0Gpa4rwEVEYwb7gsogguCG+IOLkQExV0UEEQRUVn6PH+d3qa7pwdmEBPNbauwe2ZOn/Oe55w+y3PeJR6fUYJdOEBTlPEqA/Pa0rmO/rXCnLMv5T+/071obv35yn34LPwQVqpMXzmZacTn1RbMrN/JwwqT27JrZzBgVTzXflqYfy8EdKF5V19Ng79A1o05xWvGEXIPK7lI0jT6tyXQzfskHgl5iVMHaKRqdb+j0aXj0W1PFh7KgqDkn6URzpVpPwvfj8FxJ7hANArikTzD/l3Uh6QyKE7rlQcwZBONxq0kHjlZEg/Bl/OlqBx7aF9UaxlybfTUMv4oMT+OAxX08EHQaJXhqe44otbkYGrmLgZ0kY0f4vjHuzOIR8Dhu5qBwvLTj+GvtK7hyiA28vIcIR65+r24icXraR9VYsiNJeF8HcX8SXUu1vdtBBNjRptZJxXBpMQ06iupTscsDwaM+wycquPASnyWHuikz24MI9MT62WB6MTf5VcavMbIvb8MPOak10pSyp/T73UEdAR0BHQEdAR0BD5+BN6ReCxHbmoSwr6LgH/PMN7/of/P8A2MwcIDuXgmIx0pVJREKTqTiK8HzcUnfsH4pOsiDFpwHFklDxH7tZp45E2cNX0qcr4WldqUvCm2DR+MNL3M1ySVpfrJRaz4dgn+4i+X4xnv/1FFPFJNheqiLMSGRaKbWE+Zv8de0e9OPNY8SsIkH2cYzS0xLu6ORCCKXYxiV3ozGWsm90O7Zm4wCb4Nze4t0HHYAsRdKbbSxKSb08en12B0V2+4mZT+Hg2G3ticb9HAqA/xSGWryYlGNye6EWyDuZeUPgv5Ni9E0miPWn1Nes9UBk6heL99fBprRneFt5uJe9Zgdkf7YcuQnPdSYa5EF72l1/chdGBbNHY2KsoxGLwx87SFTCQ1pbiZHKHAw+jqCT8u3zJFviLuXB0VbXNb0TZUI3Hnt80xjUZNFnyYyZ/lMKi+jvjJn2D6V2OQLAQxqX52GYnzu+NHqin45edYsGADrhRUI1cjQjONZP7bromYN4yaYXtj9neTcOBSIaqECMy2tBXFaNNyE2i1bPaaWvP1KMVve4OwZHQrzsSbkztsKVIun8cBGvHZRnAZe3w8ksp8ZO6bh1UTfTFzEO+TccZ/umH5sk0cLnJtIbFeClP2AIsfx2kBnaAMXENQ/SwLx6PHYMFIXnb5s6ERJ1AqEOb1IR55bAqRuX0qln79GYeNmH9oxHEpbzX23HOEoCRzOfr0iECWjAiTSDZ5AAn5vYrcEvOWyDyODDiKrU8sZKaURgyYIs9Pfq/Kmxv/nj/E/sQU/F8Uv+mVmynKzYHJm9tYHEO1l5SBTWigmb9Tk+BVx7BPiLQsyfoeiEce2wpkn0vHuF8PcOSFT3g8/KKT8dPJuyiSkSd82hqU5FzC5HX7OdLl88hDmH6cphNMzVX+HEl1MVIOpaDnKqrxRPM9imUXnuDFrfP4PxV+fP6VeHT1IqZvSuQISIofLeO7I9m4aUMbvbo4D+v2HEFPqlUlto+QN9UiXUpx/vUMLqqijUvtXPMAkevjQc2t4wop6VKFR79dxsJtB9GFyk3zXJmAPrGnsPXGC6v5Q8qHPEXcDqoFZtESFX8Tr45oPErPvC3BqZQTGBLNY+5DAwttOIZVl56gTEObkZq+F6VMQQuDAQaDGT3W3xGzeuerZG5N3xsbJsyiqbDUFmKbiFcVYUnfm9ePshGx4zD+vtraHF702UiF57QbqUk/59PQEpGaN31W+vV7n8QjJwt5iYy0NIyKSeA0F2n/7rDuKOalP7QKQkQPT26cPomAKP5gosO6VERefooKwdRcTjxyeb+4jZidB9GB86W4D503ncKe26+Qd/Iop/Epj2rNyyJEk96YCD/BpYDvmiOYnpqL+7Lxkqal/yjmz3KvIGRLEjqvlGEukJq8Fql1dGnhcT4PQXYa9T6nmrZhLjYlpGJQtIBHxD60iUzEgC2nsf16MSo0+ionS/kN/ESjkYdTX7PV8iKke0eJRy7fN4U4cugYBq2lmts0f4rjCfx65akiGBIhJchYPBiB669Z+eCUBNC4uUXNrRkzhsZbXCJpJJO+Inkx6GpkYBq+v9a5jj5ASvZhmBPDrdOYCck211xS5vqNjoCOgI6AjoCOgI7AnwaBdyIe/zQo6BXREdAR0BH4wBCgfi6tTQEt38nJWLnolKARn9NKQ7+rT97yfMX8uatay1mQW142veefUfoX4/O0HIDI66F1z8vtQHqp3NoxoWWpcRHlt1WmGg/ueaE88Vl5HdT5Uzy00imfscgtYi4+Y0suxfNcW1gw15KBlfkolj8r3pOKu1hFfcvVQhDTfLX6As2jtjaWnpP6ukVWsXz5lZSkYpInJR49MSm1RP7TO99b3gnt/mUtq+22EYXh8Ja9j2Ibqttenje9F/9Z+pjlO/qbPW1vycN224hp1Fe5PKLMcrnk6ZVp+faTvpPVRXzGUieKn5jeci+mE680L0vb8JjbkoU+o5XeUk7dWEiyywhFy3fyNq+9r9Y8yMToVXHosDtLim4t1km8ilho1YerswZ+Yh3FduGv2rJwWNjIQ5RBfSVVZxHczAjGYxwOCYdE6jTiZ6pBumOgE4ymLliba33IJaYTr5QM3RPIHxA3mpWuE48iMPpVR0BHQEdAR0BH4L8AAZ14/C9oZL2KOgI6AjoCOgI6Ao4gQLXJXzy6gRWbE9CmFlNsR/Ksb1pK0Lwpvo4DP3WFG2OAsdUspD1XknH1zVt/TkegIREgNW/w8LdLGB8Vj9YrDyPyprVP1IYs733k9eL4NDQzMnDqtgbZKsslsTw6PuTG9ICz0Ywua3PrJBHJm1Lc2DsGXkYGBkMTzEr/+HAR665fdQR0BHQEdAR0BHQEHEdAJx4dx0x/QkdAR0BHQEdAR+BPiQA1gT+45wBEX3bUt1+fhFy7fMS9D0CoPCeDWsJkMvL+4Vz88FPqkzqJjvchi56njoAtBAjJw6Io0Qco9eeagGlnrV3g2Hr+Q/qeumXIieoGs5FBs4lHUaLSmqSk44OEMWhhYtBk/GGrKPfquuTFdIPZZALvj9yELquva/qTVT+nf9YR0BHQEdAR0BHQEfjzIKATj3+ettRroiOgI6AjoCOgI/BOCEi+N2U+MZ+qfGK+UwEOPkzlOfF9C5gatUS3cWtx9gkfFdzBbPTkOgLvFQFKPC6MVPlclJlrv9fC30Pm1H9nzrp+6BN+DRUq4pEWV5IyCX4TkvDEjiA0edRvpKkRWnT/BuvPPtFJx/fQXnqWOgI6AjoCOgI6Ah86Ajrx+KG3kC6fjoCOgI6AjoCOgI6AjoCOgI6AjoCOgI6AjoCOgI6AjoCOwEeIgE48foSNpousI6AjoCOgI6AjoCOgI6AjoCOgI6AjoCOgI6AjoCOgI6Aj8KEjoBOPH3oL6fLpCOgI6AjoCOgI6AjoCOgI6AjoCOgI6AjoCOgI6AjoCOgIfIQI6MTjR9housg6AjoCOgI6AjoCOgI6AjoCOgI6AjoCOgI6AjoCOgI6AjoCHzoCOvH4obeQLp+OgI6AjoCOgI6AjoCOgI6AjoCOgI6AjoCOgI6AjoCOgI7AR4iATjx+hI2mi6wjoCOgI6AjoCOgI6AjoCOgI6AjoCOgI6AjoCOgI6AjoCPwoSOgE48fegvp8ukI6AjoCOgI6AjoCOgI6AjoCOgI6AjoCOgI6AjoCOgI6Ah8hAjoxONH2Gi6yDoCOgI6AjoCOgI6AjoCOgI6AjoCOgI6AjoCOgI6AjoCOgIfOgI68fiht5Aun46AjoCOgI6AjoCOgI6AjoCOgI6AjoCOgI6AjoCOgI6AjsBHiMBHQTyS55ex+Ku5+LRXFNZmvvoIYdZFpggQUojkKa3g7OSJoVtv4S0hOjA6An8IAuTFaYT1GYXtN9/8IeXrheoI/JEIVN7NxPioffD9NQ0pT9k/UpT3WjZ5m4+08GFo7+kGk8mExj+dfa/l6ZnrCOgI/P4IEMIi+3gyOqzcj34JuSixc21Jn3ucOBG9g44gv+b3X48S8hB7py+Cd9clmJ70BKydcv/+COslfiwIkPwkjPNygnOLkdh9r+pjEVuXU0fgT4cAqc7F+oH9sfBiSYPWjZA8xHQzw2RyRmPfgQg7dB/VtcwdhFQjd/1A9F940e65sUEFVmX2TsQjIY+x9dtQeA09gOxaKq0q0+GPz9N2oGuHEDTvEIJ/xtzSfJ48z0BYQCi8Oln+/Oako9ABuaT69NmMQwW//yJEs2J/oi9JYRLGNGbAMAyYPrF47EDb/IlgsFkVSsymLemIoMCvcPB+3f3vaep0hAR6YcWe+zbz/G/6wV78yIuLWNbNDUaXLvjlSgWI3g//m7rJn6qu5GEGhkXEo43s76tjBXXWMe/YEbQOj0Pr8ET8lFFWZ/qPMQEh5Tj+fRMY6XzDMPif//kfNJp95mOsyh8uMyEVSBxlgsm1P7baMTdVZS2HHyV65+h4/+GN918gAGHzsXYjHc/i0HpVGo7ZMadT0vFJyjS0djLCI3Abblcr11zpyxbCq9NGHHil/L4h4SR3jmJ4V35v0/yHU3ilITclJ7dPnKvY23gN3YerlY7JdXdnNP7SKRSTkioasgp6Xh8YAvlxQ9FImPMCdjUs4fGBVVUX5yNA4NgUJ5hMXbDmZt3jFcmLQTezCaaJR/8U+zLyLB3Bvk4wOnXDmuyGOwSgxOPazgwMBoFPMTbD1OMvbPYGQp4hPdgXTkYndFuTjSqNecbmw+/hh3ckHvMR+3Uwmg5OwPX3WBHyPBMLA8PwSfdIrMks14SBPL+EkAHBaOoXIv21+/E0ChyQixKPXH16bcLBJ3W/JJqCvOcvSdUTpK8dix5tmsHNyQSTyQVN/Edg0f5rKGE/TJlFSCgxdGSSF0xGDwRuuYU3DrSNmMeHfiXsTSTN+guCAr0QNHoG0ovtbxOKz6nFvpgWEIike3U/V5TyPX4KaIrlu+8pYCHsc+QeWYrIKf+LOUO8EBT4KWaP/xIbdp7CvZd156vI7CP6YA9+hLxAyqTGMJr9sCSzXNcw+Ija1xFRn2aeQs+IRPyUaU2q0X6yMTYebaJPIbVU+T4UZKRjxK+H8LPGc+rySfENLIo9iH/vz8HTBh7LCFuBGxfO4buNifBfSYnFffBfexjfHbqOGy8tGork4SUMDo+DT8Q+6e/L1CdqUa0+v7mbgbGR8WizLg1H/yCNR/LqIbbtOYzuWzOQ18D40QqTioMYa2bAuPZBxPnHeM2y7/S+i2Qa1ZyU/szuaNG2H4J2ZKL4D9CYsmrYWr4g5CVSJnnwsrt0xzo7NgJidpR4TBhhgMGpD2LtmJsqs5aincGARrPSxSz0638hApQQjN4Yj3ax2u949YUTaBOxHz9fVo7DjkLFaTweS4Zv+D703p+DYjvGEzZ/OwY6GeHWfzPyVKQjLf/0kvlo6rcBCeXvJlttdSHkAXZPmY/mnRbh+8THqNGQm6bZ9m2YtK/h9jiD43HlrWNy3d0RhU/9gjEx8cOzGruy2AcmUyB2lVjXieTHY7iHCabAXb+btg4hd7F/Qje07DofFyusZRLbVJJNPifI7tvOvYgKjTYVn38fV5J/AGM8jTA1GY5ddyvfRxF/2jxJ4Qn81LsVmkxtOOKL5EXzZJqsX5hMbmjm0wsTNp5DocbY8yEBTLXl0md7wszJ3xbLsmy/D1pyp04ywmDoiNW5dT9H8taiM2OAYXzyO63VtOT4o74jJUcxqZkRTLOJOKoxvtVXLkLXsxWPkL6oG8z0oGFIPF7UMtYQUoKjk5rByDTDxKN/7IHER0E80obhQGbZWllwMQ1bwpOQfzbikRQex5yObjAaBZabvqAS421E3y2P69uHf7fn6AKRfccN4O8mbD0Kqrm5EcuHfI6Ipd8g9It2iEkutDsXe4gzeWZaxCN5fQOHwvwwY1BzTP+C/jXFtADhftAn+HnlKTyvZXCS5/+x3duDX2HCKHgYzfBbkonyPxEO9L16enohhkzajZvvUUPjY+kTTzNO4e/hBzBHQ5uPkAJs2BQHn6hTSFERj7wmoH1agJT0GxIeh7/H32hQ4pG8eYjN2w7g8whBg4cSi5x2Iv0cjyEyjUaqrcuNp3RMfcCTkPYQj5bnSK1z6vtsb/I8Bz+tjUPrTZdw6z28i9XZ4ejIGNFycWaD1FEk06jmpPhnEDRLGKMT2i29rEkcvE8MHcmbvDyKiY3MaDdhHLozZnSMvGH34zrxaDdUekIZApR4jNoQh882Z2i+41UXTsAnfB9CMuvelMqy1bx1ZG1Jqm9hXS8nGF37Y3NetWZ+vwfxSAsW9y21WV6IaVj2PrZSEvJPRjxeXugNg2Egdmoc1JP8OAxxM8AwcKddhLJmYzr4JSFXsKglA6Z1GC7Wsp4SZRPnA/XVJ/Sipharg+I4lJz2I76//HFzu0MCf0CJKfHVhe6vJzQc8UXyojgyTd435Pv2FnOuOSeyAAAgAElEQVTO/OEaaLU1AalOx6zGRnhPmIB+DIOWCy7Xltzqt/964pEQVJ39Cc2MDDwmHq2VHLQCz44v6Fi1uBUDg38kbtaxjiZVZxFMSVCPiTj64t3nXDvE00zy0RCPmtLb+FLUfvwzEY90UXU9wg8mxoRmQ9fj/KMyVNPNJluN8ifXcXhpAMburFvTxQZk+tcNgABto9wt/RD0nyk4mZuKjWOaY86ig3aTEvYQZ3IxtYjHpynTEfxFc/w4bR6O/1aIimqe6K18fhuX9s7GmnVpKK1jcJKX8THd14UfqcnAotYmMN6zkf4n0/ykZqVXVvZEI5MR7j2W4eyzP25S+RD6TL2Jx9Qj8LFBWKrrJWobdmtA4pGQMhzbn4TPw+PwWVQKIjMe4UlFDUcuVr4swtlTafjplPZhhiiPPcSjui5/xGdSeoMjHn02vh/isSprGXwNTugTq9QIr29deeLRCX0237WQvW9LcTs1GH4mBqZWS3DlAx5byw6Mgtnsh9XXbiKyCwNzx0jcsFNenXisb6/5737u9yQeHUH6ZcokNGLM6Lz6uk3fWL8X8eiI3JL2o048OgKbw2kJuYyF3gYYfELtIh4NA3fgKbcfExQrxHs7x1eHBdQfeC8IiCRhQ2rciXl2XJ1rWTdUluH+6UXoRi0y3GfjzAfcT6pTJ8PZ6I35mQ+wuTcDpuUCXHZA3v924pF2VN7SzgNGpg0WZjacyTWft2B23XE1cu1olxcpk+BhZNBmYeYfRng3GPGY9fIuDoVHo1vPMHh1+hntBq/H2nPFCnXZhzui4NUpHGuylZti0T+j2icjn97is1HrWa3Rxx7ikZAaFF9KxuxvVuCvf+PL+LT7QnzeJRhNNUytycu7SI7agH59eF8rn3ZfgsGLTiDreY1CBMlP5NADuE7KcfPIXowImI9PO4WiVZ9IhCbk1UvTipIqSWMagzF4Y+Zpa1t+SnqpT0zpdy+yEzA3sC08nKl5mBPcfQZg/pHbVjKQ7Ai0N5nQb8tjsC+yEfdDL3i7Ud8MLvDuPx9H77/l6knYXKzr6QKTUy9E37J+gUjpcUz1MsHkOx8ZwkmhmLdkniaUowBO9UEyKffxgDNV8XZyh8+A+Thyu9yqnlVP0rF2bDdBXhNcmvhj7KZMTdNzwhYjc1cwAtta8vXqPBbRZx69c7AbwmYjfooXZobuxRPBbHr6iKk4WaTs77SqXNtcT8TOsH8hZNinvGn2V+0w5ysvTVPrmufXcSLmaywc/RlmUDPuQB/MGeGDIJWp9c0t/8J04Tvr/qB9Aqoly6xR/RC96yKKVWYApKoAl3ZMw7KvBTkGf47QqVOQeKlIoe1DyA3sm+qFH+fGI7/oPBIXD0IYV08fBE+ZgqTLz63a0Srvr/6KRQs34mqR8h2rD370meIDo+DKmBCwvXYn7nSTffdEEqaPWYq2XejYMBe+g9YiLP4GnsncGXCq66GL4TV4Ly4U3sGhVevxz3/+DK9OYWg7cC0WHr6H13ZMBKquX++P1JQyZ/toeJkZmFuOQdydhjGzubKYhakti4ulLE4uZdHag4XJxMK1CYvvE1grUyLan0qzWPwUwMLDiU/r3prF4lRLWlLBYpYXC1Mga1OLgTxmMdyDhftY1mGy3BHikTfL5v0kfhYhaBfKfCZy/hMFs2xSmoPgaItPRd5PouUz72tRaeKddywZbVanYNejl7h04iSGxySgXUQ8fKMO4ftjd1Es61Pso8sYu4r6KUvB1vtV1u8I1Waw0afqIh45UnNfosIfpJa5ubwDVhffwea4ZPSO3Mc9x8mcehsFqnGhmDNtP4KN9ytw43w6Rgt1bBeZhNEHb+ChkJ7OY5yZu4Avxc8nPB6fqfC2x0+lXE6te4kobGjiUZUfqbyGpe0MMLZcrFiQE/IWjzO2YU7/9vB0482zze7e6DJ0KVKE+VQuNyFvcDt1JcZ194QbnfPMrvBsPQAhCTmap+Rv808jZlx3IW8zXJt1xvhN2ibftO0PjDLDxMlYiayl7cCYOyLyhvXcRGUqz4lTyu3aGB4u2qbWNIDP6Zhx6OEtzKkmMxp5NIJZZWpNx1XOT2TjOThD3iI/LRxDhXnY7OGH8ZuvWtWTlOcgfk5/tPVw5kzEze4tMSAsBfc1zEwdxY8tuoJtiry90XXcGpzJt55v5O30R92TEhaDTSyGx7N4nsViQhcWriYWJicWrYeyuFRqccEgykjH2eOrWHTx5MdhsyuL7lNZXBPS0rH6/nr+t0VXtPsCTXNxLguTM4soG/1FLE99dZR4pGVlHz2MNiuTsfkBwav7WQiNTUSHiHh8vuoARhy4gfuysYdUX8dM1djhtz9XLYbiM6m5i3U9GRjdJyOllgNIiXh8XoJL22PRv+9ceHcKxWd9VuPHhDuKuZ36ahzx91D8a80Nq3Wklq9Ikr4LvjJ/9NQ3vT2+F+0lHmuKfsOuBWvRvQ8vs1eneWjX62d8omFqTWpKcGnPdvzn3/O5+nl1XYB/TE/AKY0xylKXGhRdOoLpIxbhL51D4dV9Gb6JzkCBbC5TgF7Hh/poPFbmn8TKkV3QwpUGWTDB2cMbXSdsQ9ZzjfeAvETekV8wsksLuFIfciZXePoGIiwpV9oLEZKP+OGCKwqTEQy1KGMYGBUmsibIzadFjUd7tDE5zSQf/vnS/JNYGtga7py7LFd4dpmGhDsW35vFh8ehickE75lpeKma7+ne9bdV/nA2uWP0gWIJWd5cXeYGxIbpOn2AHJsCJ5MJE48SVBddQPTI9mjiQnF0Q5sRUbioMgmlY+udg/MQ0L4JXDj8nNG4ZS/MSMxTuMyivueiadCLiUdRqciXBsEYgY1ZryV5RRNkavaZPq8LGplNcG45FUdL+EAYVB7nlkOx85ZyXKLyxk7qjRaNhHZv7IsRa6xNlvOiu8FsmoijlUW4ED0K7Zu4cObCzjT9xizp/SXkGKZw7WCCySi2u9HiTkVof4pVff5ZiMebirUbIbcQRf30NZqFdFkbU9Pmoqy9mBvgL9XR5NYMHQeGITHPOhgm9d93fe9cWdu4oVnHEVh+UjvgiL34cf2EVCN1sjOMVEaWIG9tZzBMSyyw4RrjzZ2DmCeX27kxPFy1Ta1JdREuxE5C71ZinzLBzcMdThqm1ryfyIk4SrG5EI1RYj90a4MRa6wDppA3d3BwXoDU5hS/XjMSkffGug0p3g9ORWNi7xZcH+QCttC+ves3TdcO5Nl17J2rzLvjiOU4eV9bc17sMyRrBdowDMwjE6zWOWKa+lwlf492Eo+EZGFFGwaMeSQSatF6pLhcWUnfSzf0jmlYv5ANQzz+cxUGf/UzPhECwFAfJDQQTPO/R2HzTcsi7sH2NWjqtwKrrysb3xZRyKe3+GzUelaroWzlJ6alG4Lcnb/Cr3MoL2cH3jckJzO9VxGP5PkVrBwz37p+HULh/X+xOCwLRCP5iQzciejlv6CVv4CFXzBfVuelCDlRKopi95WbbH7xhdHAoFHfVbhUYj25qjMrPD4HHV3pQEpNs+Vm2Wa0DTmDMvlgl/0L2hoM6DVvLSa1cpIc8osq4eaOS5ApEIkP9wTCjTGhx9pbVox56bEpaMYY0T3qJiqF/ImQt1zVvPfmfLW40mfy6goieshMyg38AoDWw9h3iyIozZuczRjkaZbkpWVw9TUa4TFkB+5WWfoaIaU4OaMVzKKpujzfVrORXmZJKwnjwE3NjSgsCmyFlfvvc4Q7p5GoYW5NF9dPUmdj3uBPBHPo5hxZOI0zjW5uRTzW5B/Gxm8/RZDwOyUWJfNpFfEoakEGjZ+F4zdfKiY6rapwsqTMQNiXSlk4M+1BXRF72tJXabvsm/kZgkQzbiqHIFPQoHZYueeGtAihxGP8d00x/esBWPa1tyS7KHfQf8Yj5aEFbysTcSnvTxA0YgwO3eKJb1oHR/HjnylGwkhXMIZ+2PrE9rtD8769Kxqf+WuMDf6R2HhHJjMpxpGQRWja6xcEBM6zHh86r8CScy+1YK/zO5Idzh0EyMl69b3P7HTFO8zXsxqFaXPR0YVurHpg2dlndfaBuoS5spCFgWHRzpeFiWHBMCz+53/AXRkji7kXlXg+Tmbh68Kno2kNBuHeyKL9ApYzPaI4r+nIwtCWRaYNH0okh4W/mUXHX1ipX9Ulq/i7Q8QjZ5at9JMo95nI3Qtm2ZKWnsynolValcZkHqdFmYjBm5MU5tMcaRmxH+PTiqQDujsnktEmPA4DDjlOWttDPKbEJ0q+IOX1EnGTXysfXMXUtfvwmWDmTdPzMsfDf1sGbsjIHx7vffjH+oPwl5mI88Tsfow49ohrQ8nMvTb8IvahIbQ2fw/iserFXZyPGYLGjAltFmcqtKeoT8j23EaGn3+luYlhYGqsNHWhi7y8X3vDSWNuYlz6WQV0qbq+Ef2bGIV5Tz63m+AesAP3ZXM7bVNSdgCjzCa0nH+Jk5HDRsPcmhtbE8fDy8mybrDIbU08kooriOiumqtF9y8axCPnJ7LRZKyO6A43WV25OdvkjhH7LYGR2OITmNnGshaxyGGEc9swnJX53nMUP1J+HN97ivjxgYf4dRIDj3cIiKPpB1RFXNQ34A4pZhFgYOHaloWPkzCmGvixmY6z7sNY5MvanZKOa3qzMKrHbIaFyZNFQj4/l5UmsXA1sBiRoBzHxbGA9omDY1kYPFgkO6hJXy/iMfkwfCKOYEXKKfxzZbwQBEt0OxGPfx68I71nlHgMUvm4bbcvRxRd81pzNwY9GANcxydLpJNWQp54/AWBXy+Cl3od778Is49Z5nZyJxnDugSjV6Q18SgRmPL+enon2vopfdLb43vRHuKx5mYKxvYJldYjzYVyuP2NinikgWsO/LgMn8rq11TYx33SdSVWX1UeXvJ1WY+Izb/ir51kayTumTB8GWtpGy1MbX3nKPH48uJidHYRxyj5+2uEsclQ7JJFc6Z7p+yobnAWxxvFXmiQ5FeSEo9xQ9wkNxp0vNH6k5tPO0Y88lqUTIt28PUwWe3LjG3mSv4kSUU65ngxYFr8gDQVOU5qfsNKPzOYZjNwSrZnoRjK5bVluk7bgKROgtFgwNiV69C3kUnaP/H7PSOc+m/FQ3H/Rp4hdQr1za/t4qvFxKMSQUNJEI5Mc28HXy91vgyMMhNPkZDz798fjbm8DRwmvUeORAuTWJZyPCZ5uzFYlq9iTugeo3DnkBfVGYzBHe18ZbIb+DIYowcmHuUVeAhJxSSjQYGdHEfxfnyy9vhoq0+L34v17LjaQjxWlz9A5pYxnPltk1np0l6Za5u8GHTliG8eA1q+6NLF6DQU8TJ3BHTeOxfibaNtKFFn2a/weduPH5e+OhWTnY1oFHSKk5H3wahtbv0sNQg+zmK/5t9JUW61j0cu2nPfRgq5LW1p7eOR15oci5Xr+nJWXfxcLfICTui/9YEIN0jZOczzc4ZJdIMj7fONMLaYiuMqsi1/RwBcJLzla6nOVgFxSPU5hHhb+jUj5c3AWEdAHEo004AwjHkCkh0MDCZVTuNGIh7bR9gd5PkWRyCbMSFZOb7Ls6fvxRTxPXQJwklVX5KndfS+YYhHOun87RfM3nsd+eVVqHmVjyMLlnETX7fwa9LJgqPEI13wiP6r7m/TJi21Klwn8fjwOL7uHgKv7quwJOUenr+l5dSgovgGIkcqiUdCXuHS6nB4dZiL/1uahqyCSk6mqpI7SIlcg886hKLXavnpiRCgpkMIPuk0H/3mpeIyfaamDFlbovFZhxB0WnCpXn72SHkmR8jRF8ro4o2eU9fjZN4LadMqx4KUnsSMliYwbr2xJPUWSjmT27coyj6AOR2dwZh6KjQWRXKQYYwwNe6B0MQc7pnq0otY3tUZDOOLxVf50ypSkorJngyYLqtxU0HsCVqZLoHYnW8ZpKmGjtiO7HWe4LRFPPLkYEtu0HDrOhO7M5/gdQ0L9u0L3EnfiElBe/BEnBDZW9jQxxWMyQfjtmfiyWtqkliN8gdnETXEEyamGaakyoiz4iP4pgkDxm8RLj59jRpqDlFdjifXD2PppGU4qxqQ5HjWdU/7KmdmPWgwku7wdScP47FmeHPMCotTBDkiz45j89fNMf3Lf2DjwSwUvRJMKZ9n48jcdgrikeJxLuJ/Mf0Lb8z/JR43Cip4ud8+R+6+8ZijIh5J9UOcWt6VI/qCvvwcC+YuR2pGgU3ipiZvK8KHNsf0QR0RuSUVt4qrOAxf5Wfh9MYfsDv9GVd1Ql7j+tYAzKRm3D+sxIV7L1DFsqgqz0dW3ESEUDLyPxNxXCDhReKRIyaHD8DWw3w9q8rzkLq4IyffothsfjIjLO7uHY5ZX3jh54XbcTWfr2NV+T1k7hiPkMDmCF6WbFncOICf2G6EXECYpxGG9itwvZZBn5B72PD/QtG853pszy7DW85kphLP71zG9nnbsEOLeKTjX6dFGLMhE3efV4KtLMb5mEj4dAhBux/TFG0vylPXlWSv4A4CxEWP1tV7ZrrmyRl938pytmK4pwmMuS2mHr6vWNjUVbb6d454FMjD9rNZ3HrBgn3D4kQIC5OBRdv5Mk3GYhaTWrBgGrEIP8nihWDqX/gbi6B2LBgzi033qXY2i4QRLAyeLI4Li+c7sSzcnPnfqQxsBgtvhsXgPZaxRC2brc88ERaH1iptGDH6MyXTRB+P8vHplmRq/cIyZnF9gNc0pGklf1uCT0Vqal0kmlYJV5pO/McTj3TjvB+DEq7h6tM3qK5+gzvnaQCcOLRef44LFEC10lL3JaK1irgU86nrWhfxSJ+3zKkvwJGQGn4uuXTsU+zekYDWEYn4/sQdPODMvWvwquAOtuxORJvwBASdt4ytEt7h8fCPPYeTBUIdz53E38Pj0EYWXELC75loan0RN1X4sTL86qq31u/k1X2kzvEFw7hjcqp2QDqt52r7jicyGTBGuVaJCUanlhi54YqVVm5lVgQGBSxE/OW7KH3Nr2XellzDxsEeYBhXDN9v0VYh1dmI6MiAcRmFPQ/LuLGVZd+i9M45xH7/PXbJArqQ6jz82ssJjLklJmy/gsdC3i/vnUUUzdvYGFOPKevMmVkbPTArnT+VJ28vItTb2jycvEzBJHcGRuc2mLo/xyL38/vYNEhJPNJNz62obqBrBveBq3FOkrscBSeD0cYW8Ug3BEYX+Ixaj/OPX4NlX+P+3lHwYBi4Dt/PaUCLEckZoyt6LzqBvDI6L7F4W3IdiUHU5YwTuq27KTUXqb5hN370oYqDY2FmTGi/5KxUR7a8CNeS5mPEL+elfB294ftI7ZvY+gbcEYlHSjJS4nB9Bos3LLVqYTHQlQXjziJBmn9Z/BbBwkwPjIJYZBXy/a/6BYuT4SzcGRYtg/lxuyKTRRsDi96bhHVLGYvvW7BoJfxOx4ytA1gwPiyuOfhe1pt45A474tFh42kk3X2FSpbFy5zz+DIiDp+tPYPz4hpQPh5X8iRkXcQj1/YGJwzY/qjW5uVJNqo4sADDos7jZslbsFV0Hb8Wf6Fz/ndHJQ0/h4lH+ZpYICEbgnikGuXx0+eieYefMSD8HG6WvOHnsdeluLQu0iq4zOPEDWjnH4J2U5KQfuclv7Z8/QSZu2Pxt04h8J6SKtWRgiVh4h8Gv4n7kXqLPlOFwmM70a1TCJqPOYjb9QiyxROP1tqF/GErJRgtPh5JxSUsbm/mxvb+URfwuLwaLFuF8vwMxATSsZVBY5kvNUKuYVlrI5gm47H/frngouoNSvPSEPPNLOyXafdJcxObKZlaXyi37EO5fYzsHZCIR7pvUh0w0M+BsqjSkvk2Hf+c/TD74C1uffSm8DhC2ppgYNpiQSav9UjH1qyI9jAxnph6XBkgryZzEXyMDNovuaZY11vmdhaZtfjMpO0oEo907Da3CMSqtAeoYFlUFhzCJLq3Y/phixBgtSx1CppQYrDJCOz4rYRLx8pNhZlmCL3Ar3ck4pHW0dwCY3bk4EUli8qyK1hBtfsYM6YcE9IKvg9pe/mEXsCrnFXwY3hi0HP8ETwt3o1A+rlrNO5wlh6PsH2gM4xME4xYfwkPK/h2qXiUgU2jPGFknDAywWINyBOPtC5mtBizAzkv6Nq8DFdWUEKSgXnKMe5QXrGmu7VGCG5yhH8XZOsS+Zqu1oFD9aNIPDJGZR8xGj0RsPqClSsukrcOQ/qEYOel2ygR6lhZlotdozy5vt1vq8WlGiEnMc3ZCMZ7Do4XVwhr1gqUXE/B8sHzkSrTQCbkEXY4gB+tBm9mbcJ4gaAi5Dcsp9pyKvNw6gdydhOj0Oa/yeQuxJ7R1hqPj7b05fb4zj2WIO3uC258Z9kKlJxfzPUBtak7TzzSdYMZLQJXIe0BrWslCg5NQjPa1/pt4XgBnoj1gpExo8vsZL7Nab8uy0VqcDdO6ajNsmtSC9H93vrudHwZiA2SHJUou5+BXTPGY70qAB85OY07wPCecxzFQtuwFSW4nrIcg+enanIxUmEArixuxWuMNoBPY3m+54LpuOeJUbty8VJmESBPI78nVxajFeevM1P+teKe7kfOLuwIF8YZPdZef6c9pCJjAA1DPHZfi1+vKrWrSFE6vu8VDK/hiZIfIUeJR7mwtp6VpxHvayMe6eBxb3sUvDrMw9i4fIU2kKStKNN4JBXXsWJICLz/30HckJFstCzy9hbWDA9R1FHKo/Ny/Jj0QGF2QR4exXD/YPj+mI5C2eQlym3PlVSX4vq+UPT3doGJMcJodIK77xgrU+EXp4LgxbggcFe+4mWg9a+4EIqWjAkDtssGMEEr0aVjGE4UVCtwyVnVHkZDS8xK5ydAqtqdOtkTBsYXSwQyksOjMAljGjPwGHdYIonUdRIJTpvEY+FBLg/GOwgnipXm49wEIcON3F6PHk4M2sy9ZHVyTe5vx0BXBj7B5yVTBfL6Eua3NsLQqBtCD1vMzdX5qmW25zN5nYHd33khaOYm3BMGe3o6fTTkM0z/aixSHluIiKcp0xD8xSdYsjVbtXCwjmpNig5h3ajmCJq2FrkqNXFRu9EqqjV5iydnYhAz1RczvmiOoEFemDV2OLYmXVMQ3nShkru1H4K+aIUV23+TDgjE+spxodjt/LY5po+cipMyUpmmpSa+l6P/gSCZdqdEPI78BkdyKxT9idzfjVXDmiLox214xC0obuPgrFaYPn4BMlXkLyH3kUwxHBeGS895DC34Xa8TP6kuj3ZioAsDw/D9Vn1FTMPXpQAJM+ajKSUSN11Foeydl+PBpxU0Hrv+gvnHCiUtDO63179h+aBgNB+wA6cEueXl1HVPy5LIetniR/Gd7F1Q50efr350BDN8XcAY3dEv6oqVdqT6GVufReKxRziLUvlCJptFRxOL1mG8FiN9vjSFRROGxYj9ygjCVJ5XaSw8GRZD9vIb3GvLeK2dXcWU1GMRP5T/PGgX/94/jmfRyMAi9EL9iUcrbUS5pp0G6caThNpBadT4iERfXT4e+TwTMP5EvqLvUVP9/bsS4BORjM2PKAZlPBn4HolHsQ5SWRoY0DTkyRWMWxWHngk3FWMG91tRFiZHxuEf+3LxTOiDPPEYj7/tzES2TIOVvMrD4nV8ABl15GpJe7QBfTySigMYJW4AnT3Re9l5K0JQxMDRqy1SiTPHc22HoCP5KncT9B22No1/lTACBoMz+m65L4lA2ELsHGSCwdwSIzcqzaXV407N3XXowVDtxYuKMYdmVvNkK/ozRjQJtZBnNO9dgWYYPWYhXTJ5f4Ozc1qAMbXCEpmJLUdQ0kV7dK5yzNaIak2qsrDcl25CrE1WRazkJJvkJ9LoiaFbcxTzDXmVhDEmA5z7buG0Ncmb45jaiIFz4G7poFEEi7w5gzktGDgP2M7NH/R7R/Cj6d9eDIW3wQjXzj9JbmS4fLj5yDJXi2Xae33Xcbu2ckTi0dyaRSJ3eCNs4AmLpDEsDI1YxAlajKSSRXhnFqb2LLJUGxFSxWJdDxbG1jyRKJpwey/kx9mKiyxaMyyMPiwyawio5mRYaxZuQ5QalbXJKv5Wf+IxHgMO5OJJpeX9IexjxGykbijScExj7hO1H2sjHgmpQvYvHcEYGmH2mdrbmSfZluCHI48V7xkhuVg7PBRNO2/CQdGdkIMajyI+9Eoakni8cxTDu4bA67sU5KsIQHVUa0KKkTBjLpp3j8VhlXkyXdMdCZmL5rI6Ull5TObhy+hreE77htAO1Ix4QZ8QNB2yD1drOdiV11t+r9bW0zpoFc2ZK9JncmRDs6nHrNwpkbJT+KEFA8ZzqnSgSSNUb+3rwo2to7Zm4bl8DWPjfZdIQjt9PGrJS78buFN2uCT6jXTvgfALpdK+jGKYHdkRJkNrhF20mFtXZ1H3VwzcxhyU5jCqvZm5yAdGpgfW3bVt2lmbBinX5wSNx0Z91+LaK8s+i8py4nsnMAZ/RN7i1yQJw6kWmw/mZ1ZK7c3lQQhK4odxEXXFgCMS8Whqg1knnyrSP9nWnyP8JgiagyIhZ2g0Hkee07JSOc1Dg2kI9nJrQuGzfySnyUgKt2OAkUGjoJNWJAh5sQ/DjBYykcrHE48mtJl1UkHukSfb0J8SmhoBZCSZGjCqspinuo9w2qVmb4yLV5pE83OI5d0S3xORLPaPlB24CUSggSoYHLCYvdM8iGrt4Sh+dI2YNNoZRtN4JMusW64souSZu2L85AlKBj5Lrkr9WpRb7eOR9pGYLkYwpuHYpwruaCuqNZ9HI/Rdew2vFO/vCXzvZAmsQsh5BDc2gum5Hvdl6fj+ygdhEYls/rsyJI6i/d0TASpzfQ5D1TxDfqPm0gaY207BAZnZO9dmqrRi/eXXAukdqH3ukT9jzz0pSUNYVw84mQRyuy7tywLLO0Blt/VPOsyoJY2tZ2v7vmGIx8EJuK4SjLAPsHFMMJoPSZDUP22Rh7URhaLwtp4Vf5dfa8uPOvlMW7QUzf3DsVbta5II2opy4vHRUfynExp4owwAACAASURBVDWTDsUnKp8s1C9L8w7BaN4nFkcEP34S8SjLQ5SN65yURFBhJf5u75XPh2ovHkbEyHZwMzEwGj0QsOWWRHTmrPaDiZo8qbQzuFM5enplUJFyAvGopUUldj55B319cT5aGxn4Lr4qbSAe7R2MRkwTTErlteS06lMn8ZgdjnaMAa1+OlcnUVJ85Bs04U7IlCdJ8lNS04Dtio1LeWYEeriZQE+fnNx90Gv8Muy/XCjhpiWzPd+9ubwCCwJ5MlE0MafPPTowBj9+4YPIREvEcd4PY1fEnnmuyForOAq5EYWFXzTFz6tOW2m32SIeaaa0rQhbjVf3zuJI5HCEfEm1Gr0xf9VxyaceX95fMX3QVzh03/bgw+XHEaBNBf+V1ml5WZpj+W5+My0RjzM2SSYbYmVJdRb2TGyK6T9s5n4jxUexfnRzzmw7iPNfSX1Yyv6+aI5pgcNw6AFfLo/f/9qFn1Tm/a3o52yok3ik6Wvyz2L2wDA09w+F198W4l+Td2Djsdt4JiMhOUxEU+t+25AqM3/gfyvCwTkL0fT/tuGY7ERdlOf3uNYUpWFuR2cYDG7oHXkFL1QTsb0yiMTjzqfKdif5LIa4sfAJZSVCLWs5CyPVjjTyfsOoL0jpz8iCkWlI5sexcDOwCLvIgpSymNiExfARLMyDWO5gJieKhdnAaka6rEt2ngijBKJac5Gekj/BeltRrSWNR6WWgVZ5jhGPh7Fe6L9iXnRcvZFyGD7hR7DhAb/I57QQPwDi8dnlNPxD0DoStUTlV2pCLddilOMt1o9eJdNqDXLxvRCPrxIwwsBrnDHGRvD74bDVBlwunyP3PJmmCi5TXshpyfX1YMC4DkGcoHHG113w2djDW/CxLGhKGhkYNILeVOcnYJynmZubzK7N0HHIHKw/eQflKgKB19iimhw25j0DJeV2SKQcW7gLgWYj3CenSu8ple/N2TlowZjQaskVDgZKymQto1qijRFyXvWuaxGPFQcwkjHAqf82qzG+VuLRqQ9iZRqcPFaiJjFfbvUNGpGcar/YqCNjgLFJqKT5RvOwFz++vFe4HN4FLpwPNzPcW/bF2IgEXCuwuPTgQPmA/hOJR68FFqKArwuLi6EsDG4y4rGExRAzf5BjlI/Bwj1nfi1oSJJXLEJ9WDQaSolFFjkRLJoNY9HHzGJhJgvynMVYNxa0XEf/1Z941I50XVu0XvuIx0qujxvsJh43IEFmIs3jXY0TC+ajaYcNSPjQiMf0Xfi8QzB6R+VarWmticerWNgnFNS0WmtvQ11nNe0QjlVZFl/uPPG4Ar9ctjbRE9vG0T5C04tE2Y6nKu1Cul96tFcR1To/bigaGVwxJsmicS+WKZpLG5gAyYSa/lZ9Pw6jqAUI1Tpz9USXIaHYkn4XZTbWRI4Sj/YEl5Hy1IjOnR83BG4GH4RefCVWBSJhyriNwUGBoCEVZ/GTtxGmPhtwT3WgID0ow1MrSjhNJ5JYcvNf8Xn5fo8z4+xClTWUfgiltKLW4oRkfs8hmlpr+JsTyxRNlkVCTtRuk4hHgfSTPndczUXr5bTN6pgT5KQSTzx2xOpc9VwmEJoa5KJaJrGe73IV8+y4ShZcRtCSC/A0gjH2xkbZ2pBq7fE+B1sJfjct6wZq2kuD1Mj34lU5MehF3Q7Qvk19GY5Yht0Z+QqlDCq/o/iRsiSMdjbCNHy/4vCZXFnEacu5zz4jyZEX3QVGxoTJqdZzhDXxmIrJJgaGLmtxW8WF1E48arWlct1A7q1Hd7q+srluYGAwT1EcXJGSo/je2wlGip9zY/gOnIGoVG3NQbpGyonpBRcj5VxMcGvWCyOW7UZGvrXvTa0+o34HtNLU5ztSchphXd1hZvi1r/hO2cpLerc03gFbzzTk9++PeKzKQ9SIYDSVkZK2yMPaiEKxsraeFX+XX2vLjxKPpxYuQdPOkdioVqPVIh4fJuMrwQck9V2p+ddnMw4X8oNbbcSjXMaGuOfIJVKN0ovL0dWZqrb3wxbBb152eDvQQUp9yiL/LCf3REJQi3jUkpXU5HBOhJm287ggMlSNe+/gRmDazMUl1UJN/rxYjk2NR4EAbbfoilXQCnk+9L7w4Bg0rqOOxv7bFMQjxYx9m4/M+FWY3M8Hjcz8AOLiF4q0ehJE1Az52vp/8n4MB32iJM2oCXKA0tz6ZmxvTAv4B3ZmKM3htInHNVgY0BTzYy5xvvHkGNRGPMrT0YVE5d0ErBtN/Tha/DZK5Q0Zg6OCpoT8Ofk9KTiEdSObYvbCJBSpJguaTi1LrcQjpz3ZFNMEUpLX6mzK+bmk/iu1/qZRclQkHh3AT6wDub8VfZ3sIx6596rqOW6ePIqlM1eh099D8Yl/KD7tE4NN1y0TDNUY4Hw8ahKPTxA/fT6aavwmylTbtb4+HsU8y3O3Y6SXmXNDMDnpntUiRExnz1UiHtXkqgbxeGURTy5SH5C2/trM4038yBUW3gYWY5JYVKSzaNaRRcZxFt5uLBKeEnB5+bC4UMt4Ykt+CxFmTSBKZJiGtt/703jUIh6rcPXIIfiE878RUomrh+nnOAw4fN/hNhOJUHv8I9al8UgD7nRX+U5Ta49+tjkDohajBW+LqRNtGwnr34t45A5cqEnuNWykZncaZse2+kxd30vEY6wySjbVQnmytT8MMvNpjsSL6Gzx2SgsCMX5V4t45MYdtgy5J37F/MFd0Jj6aTUaYW4yBNtvW3xlVxwYWefc7tR/O3+oQ1gU7grktFKsSDzhAFKMxk37Hw06YzC2xGKV83hJW1FGGpIKnuR1GbZPoVFCcXSUeFRjz0ckr339wjQOURCPtvEbrMBPLIvOi68fZSA+YjL6+DSCmVqQmN3QPjTN6pBPfKau6+/h41FNANJ6aBGPgwRfvLbGYaohuf8JPfBgsSuAhbkjixvVLH7tyWL8QRYb+rDwi2BRU8KC5jUkznpTWRceEvEoM4+WP/P63An4hFtIRipLNvXxKPtOnr62e3uJx2u0j78T8ViO5JB5aOpnISUdNbWW16NBNR4F7clBm+4ptDRpedbE42XM7WljTyPtdX7ByiwLyVgb8Sivk6P3IvGoRZRJ5swCYceTdE0w5bhyrqFlSsSjYaDiwJJf05UgJ3U9god0hKcztRYzwbnFSOyW+YMU5ZZIQjs1HkVtTPF5rauUp53EI82j6OBYuDNuGJXAa05WnP0J3kZXjEwokkgfrbJqw5OmFwkQLeJRnp+kweg9H5ka636RVBOJDim9QBYq8hK0LOtNPKZOhkk1j4rzqXilZBY1y6b/JOLRap//BxGPMh+PVD7aJ1/sG8bFbei3xWJ9mLe+p8znIO8rUawfvaqJR5oPW1mAa4mRCOrfFh5OQt/mAvVYSFdiJ34iGViWNFrwi6o6/BP9ccrMrbmgM4ZGmJVuPUdoEY/Up6ahb6wiXgOHSd5awdQ9WaGgpc6Da2CN/2jAoi519RHTZJUJOiUvK5CXvglLh/WApyvFj5K4vRFzw3LoIhZH56jKgmtIigxC/7YecDIaYTQ5o+VUi69TMa36WpYwnPOtKr4D6t/r85kS1emzm3AuCMYn3OVcG9Sl3EbKEjCctsGfjXisupGEQZ2C8ZfvUnFPGAh48nARpifL1c/f4u7BrejeKRjtfjxt0x9awxGPFchctQJNOyzD4gsWEoE2+JucZIzqofLx+PwSQgbQeqTgri2TR5lK8+9JPIqdlE62CSPcYWAs5tCFSaPhYfDAuMPFtk02ZROJSAjaSzzSsvkgM20xL+MVyIOdCHAzKYLKiPLJr2I5NonH+zsw0NUAU9fVyJGpd8vzEO/FvDqvyhV88Wmclto80RROSt7m43hoRzgz1GeKRXtTLMOeKzWz3vWdlyZhJpFoMnPru3sGY0ZAO8QkFyqyr8k/iF/HKKNak9uxWDG4KeYsOqjY3NEF/aml/lZRrRUZyj7QwSl7Yy8uKI1FK/E1rkZ3w7Qv/op1yQW1LmTI8zTEjm2K6aOCcFpNQJFXuBLzDwQFdMLm06JPSD64jEguykQBrx1qITElknLKauQI/soUJsXCe0cnWPrvngP4ieUSchZz3A0w+P2CbJXmophGfeUWq9TPbNVzXN+zCf6dQvCXyamSdk+txGN+Gib2CkHTr/YjS2Uiry5H6zOpp49HOik+Pb0Q3d3NYBp1xZL0YsUErlVWXd85QjyKWoxTUrXeReE7oR1Fjcmev7K4uIhFa6o5WcHiB0+ejKSm14Z+LJ7YeIdrk9tChH3AxGPlQ6zZGA+fyGPYL2jMP792Gv+kmoZrT+HIU+tFXG11bkjiUcyLBrmhvp+03kdqRiz+s+Ct3Az+3sSjKA+9Vl5binaM0qRZ/ruj97aJRxYFlHg0uGJ8Mn+YRN6eRTANDmBqhUn7cy1+BFkW5ZyptRP6qAhMUR5u3OEwL0P2xsGc70O3EQmSpjovhwl+q7JttAttL75tRDPr2g4hRXNrOkfcjekOA+OGCUeVh2Lsk0SMbqzy8fj6GKa4GWDuGCm506F1oCTllWUdNaNac8FlZOSlWGf1VSQ1XccfQZkd/U/+fF34ydPSe5qe9u/XD08gmAZtMPlgqcz8XJ2+ts8i4SrfKKrv5ebnteWl/k2u8Sj/jY75VsSjoMXo3ItFnk38eM1J8XmmGYu0eywGeVDNSRb31vFkZAY1vRY00+Xl2nMvEo+tV6Zgp0wbmD5Lie5j+xLgE74fc68K/fU9E4+0XNHVwcAd9vh4tJCLYn3Jy/OY3SsUTfvtRPprQW7B1Nr7x9OKA/Oah2fwY0CYgqQU8xGvDUo8Zsbjb/7B6LT0smSJRMuhkby3TZyniGotBarptxOnX9ka45XatR8C8fgseQI8DAxa/KAR8fllGmZ6GWGwQRhKY0NVCa79GggParo77pBkyiy1iWgWbSMfKV1+nEIbU/xe61of4pEPMmOE2yg6/lcgfWYzq6AyWmU1HPFYgK39qQZZayzNssz3YpnP9g/nohCLBOZ7JR4F7Urv+Zl1zntUvg+deKQylu2nxKMBg+N46zdCrmKJD/U52AQjdlh8JXLrrxQ+IJCaeBTbQurblQU4v4j3ZygPlCZqE9qDn2RmXQuJZ5CZW4smxEPiVOu/Z6mY3ELp45GQc/jJg4Gh5QJclnMQpBq5a7trRrW2m3gUzfUH70WpzXnP2oydYijhR0nIXaPgSbUa+29VKC6JWIvpabtUFpzHom40wK0H5tThvuPqEh8YDb4IV1nbyvN19J6+c9HUdN03HNdla/La8iFXl8DHaIBveHat+/7a8niX3xpG4/HfO5By/xlecwTcGxRdT0PwkDDOKfOUQ0WSfAX7foWPXwh8px9F1vMakNdFuLB1PTp1pg6cfx/ikQpTnLIFf/ULgc/IvTieXwVS8wI3Du1GYE/edFoe1Zr6MzwasgjNO83HoBWnkfWwzOokUaog13mtzbXlv9u6Z/MPYVIrZ5hcWmN8/B0rMwlCcrBx7BSsP5mDx8/fSp2lqiwf15OC0Zn6r3MZinhR8/LRHgS6MTA1GYAVx3NQWF77JlYk8RwhHsUgMy1npeP6zgC4uSqDymjVVSzHJvFYcwvre9FgNiZ4DV+Lk7dKOCzoiUTh1T0I+iFOGghEn42MU3tM3pWBBzJcNMvOicHQ4YuwP+MBngukJqmpQEH6QnQ0G0DrIY/0LeZRV9vwRFpzzI+5iHKrwa4aeTsDMeMLH6za/4Brt9eZK7BgUHMEfStEnmZf49GZNVg5ypuLcj0tIBBJgikareOuiZ9gemB3bDh8E+VUS+PBacQH+3H+GymxKfp4pBqMZ6KDsPPgBdwrein5G6upKMG9cxsRxZGaSk3L0tMh+JkLDBOA2AMX8Oglr1nDRWvd+iN2n+HNWeh7cPYXf0z7wgvBc9bg4gM+/5qKB7gYOwLBgc15H41CoBCJTJy8DBkPSzntLULreWEzosfTespJyte49msvBH3xKRYs24kr9/j0Iv7q62tq1m4nfuKznD+jES4wMP2xtcD2u0CKLmDhtC349dhN5L8UAjGQKry4eRJT+wSj+ZhDuCsSZ6LGY6/12JH1FC+r6IRWjeLsM1j29QJ4dfgZg2MtfldEWey5ipthbcJHSeCJ+VEtq/sHJqCVEwNTi1HYc/uNNE6IaepzdYR4JHdZ9HNhYfZksSqNRdGrWrCuYTHXi0WrKSxm+rIIOkU3OSxO/8DCbTCLqb4smkxh66V9ZCHCHCMe76elwDc8Dn6x53Cq8G2tpC31gzh2VRxar07Gyqsl3PynhS+vRXkQi68Wo+QNX8fXRXewY+9BtAuPg9xHJHn7CBti93Faj+1ijmH9tULLMy+KcO50GkJOKQ8sxDJFsrAhNB7J2weI3BiP1isPYubJ27jzonYsLHirFp6kABuoWbuWxuOr25z/R5+IRMw8/RDFtZiOiXV05GqLKHQkD3larfxI1QvcOfEL+jdhYHAOxB7BIT+pOIixZkrU9Ub09XJuzUAqipF1ZCXG+rpYmVqTisMI6v091p/MRXE5PwZTYub5re0Y5mbxfUjlEQPDGF3aYequK7j/wrZ5MG9mzcBlWLxVACQ6trxIngA3am69IIObL3jfhwzMPlOQeJ+uM17h/olfMICahNEADzLSUPSryBjd0G8175eyqvQ64ia0gRND3bkYICfZtLQm5fjK7y15N8bA5SeRW1wuzWfydOK9Q/iRKvy2dgSGLk7AlfsvpLUWqShC+tx2kG+oxPztvdZn3LY7byGqtV0aj4RF2gze5YX/bBZZD1krv2hiuVTmgq28qfaiJSw8+7LcHFd9j0UPM4vvZ/JBvzbmWRMPYh62rlQb+NR+Si7Gw3/rBaQX8tpz5E0ZrqUd5wJPtV51AoeEyL10/H+fGo9Uzuo70ehuYOA24ajC9YC6DjzJFoV1WYV4zs3tNXj58CrWTV7IBc7sFZlt6TuFp/Dt34LRvEc0NmaVg5C3eHzuCCZRly3UZFmmHakup0GJx5fn8GOvEDTvHIEFJ6i5ZQ3Kb53FgpHz4EUD4qiiWudsXgXvDmHwn3EQZ26WKEhTtZz0c32IR1LzAPvGeMHJ5Iq2U5PwQOPgtzaiTK3xSJ4exBh3AxhzMwxedxEFFXROrUHF/ZNY3Mudi9Dcfqkl8ArJT0JQ4AxsSr+Jogp+PULH1hfZsRjkZgATsMvKJz1dv0b60YAvHhgYk4liG34r1bJpYSZ+Vy/iUQgyYzYPwq57aZjZzDqojJi//FobnjSdvRqPNO2jTb35YCze47DrurCWry7HzYNBaE8DmzA9JTcy75V4FAObUL+ImzJwp1SpOCSvP72vF/Eo+L4zmLth4elHdVqdiNGZzSY3+IemWfUjDmuBMBXJWe676nI8SI/G4BZGMAY5fjRYDHXF0hFLL5ehilpwvClF9rG1mOjvypGUcuKR5G3GqIAw7M64g1JBwYGQNyjNXMFpDlI/lnR858p0AD/RzJrpuxn5VntaFpVpM7kDUfcZabyMgu9Dptko7Mqj+443yD8TjSFefJRreVRrSmpyfhUZM7otPIfCaoLq8ps4GNQezlwUZWtNPPuJRzFvV/QKS0V20cs6+JqTCO4+AVGp2SiS9nvVePlgP76h5Kh/JGfmzwFI+9TmUQgI242MO5Y9Km2fTCFgkei/VEwvv1IFsdg+1Lfl+PcT1VrDvYG8fPl9fmwfzjReDBok/028p3vZ3PV90cjsjMb9Y6xinIjp6nNtGOJR7SPEnxJ4ofCbk6aYZNhHJzC+u9Jf4if+IfAeEImAAUrikTzPQFhAKKgfRe7PnzcJ4Pyucd8twvdHLKTmwx1RlrSi78UOsueHHpB8TZKXWVg+hMpo8W3Cy/ErZny3GHLikYL69uZRjO3F10nLF8q/5NEVNcy17WmY7AjqW4meLDFg+mioIJNshLfjTa/U0dOMnOqzGwZsuikNlHSRfy2yJ+f/UR1Ni3++H7bIAp6IhKBDxCN5jYvzW8PUdji+6e6GJpNSrQZeSoYdHOtpifjGmXcZFL4nfWYrCT/eDyOd0HiVcam+RqMVNgWHJ8HLTH1ZqtTBuQADPpgtBMShbUDNV9tRn05qv5dUJpMPfkpXbprFdqutbTgz65jumP6FktATn6XXmutrsHBQc8wK2cUHU6m+yQdTEQK/cP4MKZE24v9h/fyuqqjWNbi95ysumvR0yYybEpHtsHL5RPysIh5PLaY+G1Xm3tRf4iBqZv0Jfo5IxVPZqYg8CrbVc1/8r6TByNXjYRJ+5cy1myvNyb/gI3RvOVUoETUS8UjrKPfXyMnhZS1HQTI2jqOEpIbsgV74eeUpyc8IcQA/eTsU7B0MFwODLmtu2ZyMSNFZzOgTwplWS2MPHW+4MW0uhm+7LXvHBFNrOo5Qf5DSWMWPLX/55iCyBB9Qcjnexz2NAntlVW+4mxk06roE6arATO9SpkPEI2GRsYKFK/XnqOXn0cSCBpOh/+gmc9cg3g8Z48nimBBYqPQoi8YM/33HX1gJb0fqYCHCHCMe2fwrGLeaRqCOw2fyiNjRp5CqdoTNFmHXtv0cSaiMnp2InzIt5fLEo3WEbRpZu0001Wy0mNHSOr66cxmTouKtZYiIx2cRcRicWiDgV4Zj+xKh9r0ol+Uf+3IkTWnyMAPDZHXiInsr6nlE4Wvo6eXT6LPSWm6+PGUdLXgrx9BaNR7JK6QnHgSVQy4zzf+rY3wdHWlzdVotolCdxpHPfH4afpPp/GF0x6CtedK4QtgiJIxy4+Zz+XzDz9XWPh5pUJyR3NykmsfonGd0Rf9tFvNu+t4UJU2Ap815rzF38k7TFW4bAIZxwbB9TzWrSk1uRppodOsFyKDBIqpvIaYHv1kwikF66Mm/R19MHtlGSTwSAhrxlEajtphx0znbBW2nfIM+70A8UmErs1ajC3UhQ9cBoizS1RX9t8qC8ziEH+/nTytfI8PA5BOCM/Vw76AJcAN+6YjGIy22+iGLkU1s+3lstchyKFR+lkVLYczttVEgZ96yCPcXxmcPFsnPHCceqRzk6XX8EGU9ptKxrHV4IkIyy2SbY/uJR46kPHrYevwLj5e+axdrcQchNgXt46u7GMC4KH2yir+LV55kU83tnUI50tFr6D6FSyE6zu0LmsfvKcS1AF0zdF6Ef49cBi8Z8UjIQ2yfOFe2XuAJQcveJhT/WnPDQmqm74KvuLYQylf6ZdyIA6KvSVKNS5HLeZJRJcf3Ib/iLyrikZRlYvHgn/EJ9WEvppeV5TUzTeHip17EoxBBlfqVZ1S+F0WsayPK1OQe3RDf3z2M01ZUrvvpnoGBk98CnJMF9KPPD22ksXeiYyvjjmF7H0rjtigPLSM7sjPMnJ985Zjcdu5FiaCVZNP0KWeCIq2oRemAqTWVh9zdir4ubgj4Zhg8zX2wQSOoDMmPx3APwRegycSRrzR4iWXcbIu5ssA1jhCPpCoHaziNLuXeiZ/LnNEjKls61HifxCPF4sXxGfA2C/4MpbnAUu+JRy1jVL2IR/IIW/vTiOnW87w8b6mfpE7h3ZhwfXsCkmUafFIa0Q+meo/K9T81fmVImeTBEb3y+AzU9JeTSeXjkTMtFvwNSvtkigvHCTTB5FTlesxe/KhJsIlh0DfWEptArA+9kupUTHKigeVmII07lHmIbQJu0nqHyuzSA1PGtQdjUPpnrDr7Ex+NWnpvjFwk6haTJ2KQhgmwvcQjJ9utDbzPS811gwld1siD8/D+JjnTakV/onib0GWt0p8m78vSej1C1w1Mk8lIVQVHVWCWH4s+XHCkU9LYLv+9vvf0nVtLI8bbSTxKBGijIJysxarUEvGbX4P1l0VTr6+s4nPvSDyWIzc1CWHfRcC/JzUnCEFT/5/hGxiDhQdyNYIx1KDoTCK+HjSXU/n/pOsiDFpwHFklDxH7tZp45E2cNX0qcv5HFkCuTcmbYtfir0Tma5JWvvrJRaz4dgn+4h8MixzPeP+PqsAw9MSgqigLsWGR6CbWU/KBEoJe0fKOXD+Nx5pHSZjk4wyjuSXGxd2x2mzTE73Sm8lYM7kf2jVzg0nwbWh2b4GOwxYg7kqxxuT5FvmnIzG6qzfcTEp/SQZDb2yW+fWrD/FIcazJiUY3OgAxbTD3ktI8i/5Oicek0R61+pr0nqkMnELxfpt/GpGju8LbzcQ9azC7o/2wZUjOeymRW3z+1Si9vg+hA9uisbNRUY7B4I2Zpy0DL6kpxc3kCAUeRldP+HH5linypXmL/5RtYyGe6O9itOdpNCKzoO0nPideqe+h+MmfYPpXY5As+CmsfnYZifO748fAppj25edYsGADrhRUIZfzX2jReOTKqC7Fb7smYt4waobtjdnfTcKBS4WousH7fxQ1HmnayvxzOBI9EUvH+2LmIN5fYtBQP8ybMQP70/I0A4yQ6mfIObwYqybyz0wL+ASzvg7A+t0X8FSmhUTbpbrgLBIW/Rthw3jTck72sF9wKve5QiNFJB4lU/OAppg26C8I/u5r7E7JtZKDy/tZFo5Hj8GCka04E3L5s6ERJxTmMI7gJ7XDy9OY420E0/InnLWxsaRagwXnU7Fgygr89W+h/JjWeT7+NiYWG88VKSYMydRaNhY09QtD24GrEbTlKgpsnJKL8jTklY4PRWnzMWjCTuS+tGwoG6IMR4hHWh7dED48wWJEZxZuRlbh69EgCxZD01HtRuqDzHU0K7UvDTQzoTELmnZ0Uv3qYiHCLASgiIVEhmn4eKQ4Ps3OwMzYJPivjIPk11AjLc2vpvQuNu9NRu/IfZa0quAwHPEoj6YdHo+/Rh3Ct4d+Q3ZZjbTptshHUF2Wj6TDJzAsJgGfU1+LVGMo5ghmpuTgZplADIhRsOV5q+4V2pQPL2FwbX4bBV+TFjlq8PzObwjfeQh/WxVvqR8tg6ujZWy14G35juYjYa2h8cj9XvEEhw8dw4Co/RwBKeJtj9amKKet6/shHpXzKEODwAQuK+L4MwAACQhJREFUxL7rRdzJv1wW9kUmNo3pAg8a1MrAwKmxLwIX7sO1jNXorgouw2kIXNqCWX3acumpeS7j5IGWvb/H1gzrvOm7U5a9R5FeNOml/utmpVNXIoXYNkCpiSmXj95T7YOEkSbOJHxBBk+Asy8ysCbQh1szME6N4TduPTKKKsD5xpNpPHLPs2/w4NBMdPGgQawYuLboi5Dku3gtBPmpr8YjLxs1f05D1JiuaCasAyx1VJqqO4xfWQ4OhY9BV2EtxcnerCMCFyXjrmA+q8bqj/7sKPFI59SaZyy2TWPRxkM5DtMxV645yWk3GlgYTCwiBTMw2sduhPPPmfxY6eDeURyoHJUFt7Bx7xF0WcWPqa1XJqBn7Cls/a1UIi3ENrdX45HKx6VVjXniGEKv1A/tLRUZQJ8r3D8SbowTuqzJVqxb5HV7nJmClT+uQbc+czlNwaZ+ofis7ypM2XAR9wTNOXl6UnIFa6etwGecT/if0W7kFuzJKsPtHVH4VEE8PsC2b4X9kmLtYNm/9IqUEY+C30bbeyGlOTipeorTa9bC/+80P16O3Vll+P/t3W+IFGUcwHGWZTmOZRGRI47jCI6jNyLni44oRAgXfeNi+MoXiUUJHRIeCPai7PRFLzxClMsyS84iQV8YLVr5Yk/ySrMS5VIQ78LOtKswC6s7uducXzwz+8w+Mzsztzu3cbf6FWTcmWeeP5/5uz+ffZ77IbNnW1Pjcuqt9yS3VrezXI9Ht5/x9AqNFXgsjsvxzY9JOpmWpVtPyHjAe1EtgUfnPCnKxPA+2biiQxannHtyuvVJ2bSvINd9v+5SvU9vfvWBvLJumbSmnTHzEulW6VqzTY6M3Ak9/lZxQob3bZQVHU5PM33vWbrzWzcYqwOPept/6UkbN/Bo/Safbn7EDjwteS4fOMb6bPVI+CeuKY23aPbCM89l/7+t6R/ls13rpLt9kd2TPZHISNuql+TQuQnf9Tsm75SCINf8190cx3h0jrslk2MnZNe6bmlfVDn+oTl2XpzAo13G79/J4JasdKrhiow5BMy8tY8Kyh7MqUk9MtL9+hl3OBS93c6vFHg0z42EmsQk1ydHL3n97PRTl+XYlqzbvqaWLsn1HZVL3w/as3F7ejxaUzJW2C892U6704EqQ+edH50MfLeczc9+J1AzmRs9Mc322HW0ZqTwctoO3G8fdsZBtKYuy+Cm5XY9Ek0t0vXsgJybmJbRAysqAo/296zTuyRbOp8ybatkW35UJvVPpX1jD9YUeLSfN+cDj6Hy8frNyK8jx2SncT6puncEnNvOsRmTwts9ku0sT+SSaXtccn15GZ0M/gm343VXhnrVOIxLpb80rIjfNO7nWgOPd4d6pT3lzECuns1Rf2Yu7bZn8VZu5mzqUftUs21OgcdqCiANAg+6QDWz+TlpvOPlqBdg96e0pRuAXue/IajPbtrSmKLuOt/NQ+dRTu+M+eXP0zwubl5Gt/qw9JX5V95wdeBx2/ZBuWHkqeoUlq+qT2XewT8rrkg7i59u68THm6QllZTu3Rfd/7XW2/RS1U8fr7JhUBuNyWV8szFGtVGXw/L/E1D+UeeavmaDjlO1x1/XPuicNfN1ejx+Lu+PG9e7uiZ8163OTy91G8rnYOW1E1S2md4sIyg/T9qAazPYwmmH2Uadt7nObYd9/Ye/4AS2YRYbnXfU0gk8lmdtjkpbzTbdRr+ZGk8xqN0qz4q2qXuLvpf72qjWV3Pf0XUNTu89Njq/sPqZdTTT6P3sts5yb1X7mSZ2vfQ6fxtLzwKzLN2esGWFoX6e+POO4WfW22xrWF1Y/2AIWDPX5N1ssyQzOTlsTNz0YLSOViAQLeDes3330Ki9Ku/Dwc89/W7lz0uXqe/9+rN+R1Gf7X3d541+HnrfHdx0+jlgLHXeqmxdX3Ods95bjr+e5r7m88Gfj97PfVaGWKr9zHzK/w72Cyy/Ed8b9DjTpe+5fj+/i/ps/1XH02cZdiz1MQha6n3K3sHfJd0yjfMo+p0u4Hj66uuvT/HrPulMJaV9a8H95Z4/TdzPzrig1fV4tIrnZWdnyumdafQKDyvbsi7IGx1OgD+s92vYvlHrCTxG6bANAQRiCZQDj4fdyVhiZVTnnVT38SPPLLZnAHsh/3PFA66W4twejzFnrq6lLNI2roAOPB4q9XZu3JY0Vs2tyZPyYlNSUktyMvDNL57eyo3VEmqLAAL1Fpge2SNPNCcl3bVDvoz4iVy9yyU/BBBAAIGHQ8C6U5DeGoJ9tahY927J2f3r7WEnEhuORwY11TwNhd5O+7vv1sKfof9Zrssv/n1DzvZnJZ1KSqJprXxYx+8vBB61MksEEKibwEINPKoGWn8My2vLmiWZfkrevDgZu80EHmPTPVQ7Enicn8NtWX/JUG+rZ7ymth3n5qcylIoAAgtKQI3jd+uT56U1mZKW9R/JD/96e1YtqMpSGQQQQACBhhKw7lyQ/qwaQm+lDFyZnjXYV23j1M+rDz7dbM+d4Yy1qsbzdGZGD8pDBR0v9Gclk2qWlQNXPMMjBKUf6k07edvjd7dLz6nbdau7Ko/AY5A66xBAYE4CCznwqBqmgo99q3vk+Hj8mZ8JPM7pFHlodibwOH+H+v69n+SLPRtkeWvGHv+35dWz81cZSkYAgQUloIKPN/M9snrHabltjGe9oCpJZRBAAAEEGk7AKl6VA2uysnfkn7oG7txxHRNN0tKVk76T1yODieo5d/XAGsnuHXHHp43CtMfULI1Dmh+tb91VuQQeo/TZhgACCCCAAAIIIIAAAggggAACCCCAAAKxBAg8xmJjJwQQQAABBBBAAAEEEEAAAQQQQAABBBCIEiDwGKXDNgQQQAABBBBAAAEEEEAAAQQQQAABBBCIJUDgMRYbOyGAAAIIIIAAAggggAACCCCAAAIIIIBAlACBxygdtiGAAAIIIIAAAggggAACCCCAAAIIIIBALAECj7HY2AkBBBBAAAEEEEAAAQQQQAABBBBAAAEEogQIPEbpsA0BBBBAAAEEEEAAAQQQQAABBBBAAAEEYgkQeIzFxk4IIIAAAggggAACCCCAAAIIIIAAAgggECXwH1JBVDyxtF62AAAAAElFTkSuQmCC;" vertex="1" parent="1">
          <mxGeometry x="-2500" y="180" width="990.76" height="90" as="geometry" />
        </mxCell>
        <mxCell id="0h4DfGHdkXLBzVzGmen6-4" value="&lt;ul&gt;&lt;li&gt;&lt;div style=&quot;text-align: left&quot;&gt;&lt;span&gt;Registering dependable objects in Blazor App withe the help&amp;nbsp; in the configuring services&amp;nbsp;&lt;/span&gt;&lt;/div&gt;&lt;br&gt;&lt;/li&gt;&lt;li&gt;.Net Core provide&amp;nbsp; Dependency Injection (IoC) Container service to maintain singleton , transient &amp;amp; scoped objects&amp;nbsp;&lt;/li&gt;&lt;/ul&gt;" style="text;html=1;resizable=0;autosize=1;align=center;verticalAlign=middle;points=[];fillColor=none;strokeColor=none;rounded=0;" vertex="1" parent="1">
          <mxGeometry x="-2490" y="100" width="670" height="70" as="geometry" />
        </mxCell>
      </root>
    </mxGraphModel>
  </diagram>
  <diagram id="DFSEVce3aTwzhR8rYgqK" name="Forms Validation">
    <mxGraphModel dx="2383" dy="1174" grid="1" gridSize="10" guides="1" tooltips="1" connect="1" arrows="1" fold="1" page="1" pageScale="1" pageWidth="850" pageHeight="1100" math="0" shadow="0">
      <root>
        <mxCell id="2yWI5xrgbvcOCaIW9Fm4-0" />
        <mxCell id="2yWI5xrgbvcOCaIW9Fm4-1" parent="2yWI5xrgbvcOCaIW9Fm4-0" />
      </root>
    </mxGraphModel>
  </diagram>
  <diagram id="wXSd-ohbzt-GexWAePs1" name="JS-InterOp">
    <mxGraphModel dx="2383" dy="1174" grid="1" gridSize="10" guides="1" tooltips="1" connect="1" arrows="1" fold="1" page="1" pageScale="1" pageWidth="850" pageHeight="1100" math="0" shadow="0">
      <root>
        <mxCell id="wuvYDHtGsE06wqAo6m07-0" />
        <mxCell id="wuvYDHtGsE06wqAo6m07-1" parent="wuvYDHtGsE06wqAo6m07-0" />
      </root>
    </mxGraphModel>
  </diagram>
</mxfile>
